<?xml version="1.0" encoding="utf-8"?>
<!-- Generator: Adobe Illustrator 26.0.2, SVG Export Plug-In . SVG Version: 6.00 Build 0)  -->
<svg version="1.1" id="レイヤー_1" xmlns="http://www.w3.org/2000/svg" xmlns:xlink="http://www.w3.org/1999/xlink" x="0px"
	 y="0px" viewBox="0 0 750 8000" style="enable-background:new 0 0 750 8000;" xml:space="preserve">
<style type="text/css">
	.st0{fill-rule:evenodd;clip-rule:evenodd;fill:#0571CF;}
</style>
<path id="mask_gnavi_sp" class="st0" d="M0.1,30.8c1.6-0.5,1.2-2.3-0.1-0.5c0.1-1.3-0.5-3,0.8-3.6c-0.5,0.1-1.2-0.4-0.6-0.8
	C0.4,26.1,0.8,25.7,1,26c-0.6-1.1,2.1-2.5,3-3.1c0.3-0.4,7.8-6.8,5.6-3.7c-2.1-0.1-4.8,2.9-5.6,5l0,0c0.4,1-0.8-0.7-1.2,0.7
	c2,0.8-1.6,1.6-1.7,2.1c1.7,0,3.4-1.5,4.6-2.5c0.4-2.1,2.8-1.2,0.7,0c-0.6,0.9-1.9,1.4-1.2,2.5c0,0.8,0.4-0.1,0.8,0
	c0.8-0.2,0.7-1.2,1.3-1.5c5.8-2.4-3.3,3.3-3.4,4.1c0.9,0.4-1.1,1.7-1.3,2.1c1,0.1,1.7-0.3,2.5,0.4c-0.1-1.3,2.8,0.2,2.8-1
	C7.8,31,7.7,31,7.5,31c-0.7,0.3-1.1-0.9-0.3-0.5c1.8,1.4,2.1-3.5,3.6-2.9c-0.5,1.3,0.7,1.1,1.1,0.2c1.1-1.4,0,1.5,1.6,0.3
	c0.2,1.7-0.4,0.9-1.4,1.6c-1.1,1.8-1.3,1.3-2.3,0c0.1,1-1,0.2-0.8,1.1c1,0.9,0.8,0.1,0.2,1.5c-0.2,1.8-4.5,0.7-2.4,3
	c-2.2,0.1-2.4,3.5-4.6,3.6c-0.4,0-0.9,0.5-0.7,0.9c1,0.4,3.4-3.4,2.9-0.8c-0.4,0.5,0.5,0.1,0.7,0.3c0.3-1.2,1.2,0.2,0.4,0.7l0,0
	c1,0.7,2.3-2.1,3-1.3C9,38.5,8,37.5,8.7,37.4c1.2,0-0.3-1.6,2.2-1.2c1.4-0.6,2.8-1.9,4.1-3c1.4-0.5-0.4,1.1,0.1,1.4
	c1,1.3-2.4,0.8-1.2,2.9l0,0c1.6,1.9,3.2-4.3,5.7-1.9c0.7,0.2-1.7,1.4-0.3,1.2c0.1-0.6,1.2-0.9,1-1.4c-0.5-0.5,1.2-1.3-0.6-1.1
	c-0.1-0.5,1-0.5,0.9-1.1c1.8-2.7-2-0.7-0.3-3.3c0.1,0,0.3-0.6,0-0.5c-1-1.8,1.2-1.1,1.4-2.5c0.5-0.5,0.9,0.7,1,1
	c-1.3,0.3-0.1,1.8-1.2,2.6c2.4-0.6,1.5-0.4,1.6-2.4c-0.2-0.8,1.4-0.4,0.4-2.4c-0.9-1,2.1-1.9,2-0.7c-1,1-0.1,0.2,0.5,0.6
	c1.6,0.9-1,1.8-1.8,2l0,0c1.5,1,5.2-1.3,5.6-3c0.8-1,2,0.5,0.8,1c-1.7,0.9-2.1,1.3-1.2,2.9c0,0.4,0.6-0.2,0.8-0.1
	c1,0,0.5-1.3,1.2-1.7c5.2-1.9-0.3,2.9-1.9,3c-0.3,0.6-1.9,1.2-1,1.6c0.8,0.7-0.9,0.9-0.6,1.5c0.1,0.5-0.7,0-0.7,0.5
	c-0.2,1.6-2,0.7-2.7,1.8l0,0c0.3-0.4,0.9,0,1.3-0.4c0.7,0.1-0.6,1.7-1.1,1.7c-0.2-0.1-0.7,0.1-0.4,0.3c-0.2-0.2-0.6,0.2-0.5-0.2
	c-1-0.1-0.9,1.4-1.9,1.6c-1,0.5,0.3,1.2-1.3,1.4c-0.8,0.4-1.4,0.5-0.7,1.3c-0.1,0-0.3,0-0.3-0.2c0-0.4-0.8-0.3-0.4-0.6
	c0.6-1-1.5-1.4,0.1-2.1c0.7-0.7-1.2-0.8-1.3-0.6c-0.5,0.8-0.2,1.3-1.4,1.5c-0.8,1.5-1.6-1.7-2,0.7c0.8,0.2-0.9,0.9-1,1.1
	c-1.7,2.7,1.6,0.9,2.2,1.7c4.6-1.4-2.7-1,2.1-2.8c-0.2,1.9,1.9-0.1,0.9,2.5c0.2,0,0.4,0,0.4,0.3c0.4,0.1-0.2,0.5-0.2,0.8
	c0.4-0.2,0.8-0.5,1-0.8c5-3.8,2.6-0.6,0,1.6l0,0c0.5,0.4,1.2-0.9,1.5-0.1c-0.2,0.7,0.8,0.7,0.5,1.3c0,0-0.1,0.1-0.1,0.2
	c1.1-1,1.1,0.2,0.7,1c0.8-1.7,2.2-1,3.3-1c-0.2-0.6,1-1.6-0.4-1c3.3-3.9-0.8-1.2,1.1-3.9c-0.9-1.1,1-1.6,1.6-2.6
	c0.5-0.4,0.4,0.2,0.6,0.5c-0.7,0.5-0.7,1.7-1.6,2.4c-0.1,0.2,0.1,0.1,0.2,0.1c2.1-0.5,0.8-1.9,2.4-3c-1.6,0.1-0.7-1.4,0.2-1
	c-3,0.7,6.2-5.1,7.5-6.8c3.1-0.3-5.3,3.6-5.2,6.2l0,0c0.4,1-0.8-0.7-1.2,0.7c2,0.8-1.6,1.6-1.7,2.1c1.9,0.6,8.9-7,4.6-1.8
	c-1.6,0.6-0.3,3.5,1.6,0.1c5.6-2-3.1,3.1-3.3,4.1c0.9,0.4-1.1,1.7-1.3,2.1c0.9-0.1,2,0.1,2.6,0.3c-0.1-0.7,1.1-0.3,1.4-0.3
	c0.5,0,2-0.5,0.9-0.7c-0.7,0.3-1.2-0.9-0.3-0.5c1.9,1.3,2-3.4,3.7-2.9c-0.5,1.3,0.7,1.1,1.1,0.2c1.1-1.4,0,1.5,1.6,0.3
	c0.2,1.7-0.4,0.9-1.4,1.6c-1.1,2.3-1.8,0.5-2.8-0.3c0.1,1-1,0.2-0.8,1.1c1.1,1,0.6,0.2,0.2,1.6c-0.2,1.8-4.5,0.7-2.4,3
	c-1.6,0.3-2.2,1.6-3.1,2.9c-1,1-2.9,0.3-1.7,2.3c1.1,1,0.6-0.6,1.2-0.5c0.7,0.1,0.7-0.5,1.1-0.8c0,0.4,0.2,0.7,0.3,1.2
	c0.2-0.2,0.5-0.3,0.2-0.6c2,0.1,1-0.9,1.6-1.4c1.6-0.2-0.7-0.5,1.9-1.1c0.9-0.7,1.5-1.3,2.2-1.9c1.1,0.4,0.6-2.2,2.5-2.2
	c0.6-0.1-0.2-0.8-0.1-1.1c0.2-0.4,0.9-1,1.3-0.6c0,0.4,0,0.8,0.5,0.5c-1-0.1-0.3-1.2,0.4-0.9c-0.2-0.3,0.2-0.8,0.5-0.5
	c0.2-1.1-0.3-0.9,0.7-1.3c-0.6-1.2,1.6-0.4,1.7-0.9c-0.1-1.7,0.3-0.4,0.9-1.3c1.3-2,3.5-2.4,4.9-4.6c0.3-0.7,0.9,0.2,0.4,0.7
	c-0.1,0.1-0.1,0.4,0.1,0.2c2.2,0.1-0.3-1.5,1.3-2.1c0.8,0,0.6-0.7,0.9-1c0.9,0.4,0.7,1.1,0.2,1.5c0.2,0.9-0.2,1.4-0.5,2.1
	c0.6-0.5,2.2-0.2,1.4-1.2c-0.3-1.9,1.2-1.5,0.3-3.8c0.3-1.1,2.8-0.7,1.4,0.5c0.4-0.2,1.4,0.2,1.2,0.8c-0.6,0.5-1.1,1.2-1.9,1.2l0,0
	c1.2,1,4.2-1.2,4.5-2.5c0.2-0.4,0.8-1.2,0-1.7c-1.3-0.8,1.6-0.8,1.1-1.7c-0.4-0.7,0.9-0.5,0.7-0.9c-0.4-1,1.7-0.3,1.7-0.8
	c1.2-0.3,4.2-4.4,3-1.1c0.7,1.1-1.8,0.5-1.3,2.6c1.7,1.7,2.5-3.8,4.8-1.4c0.6,0.5-1.2,0.8-0.4,1.3c0.3-0.6,1.4-1,0.9-1.6
	c1-1.3-1.2-0.6,0.1-1.5c0.2-0.5,1.2-1.7,0.4-2c-1.6-0.2-0.1-1.4-0.4-1.9c-0.3,0,0-0.7-0.1-1c0-0.7,1.3-0.3,1.2-1.1
	c0.2-1.1,1.4,0.5,0.4,1.1c0.2,0.9-0.2,1.4-0.5,2.1c0.6-0.5,2.2-0.2,1.4-1.2c-0.2-0.4,0.1-0.8,0-1.1c-0.1-0.7,0.4-0.1,0.7-0.6
	c-1.1-4,2.6-2.9,1.1-1.7c0.5-0.2,1.4,0.2,1.2,0.8c-0.7,0.3-1.2,1.3-2.1,1l0,0c1.1,1.1,3.3-1,4.3-1.8c0.1-1.9,2.1-1.2,0.9,0.1
	c-0.8,0.2-1.7,1.1-1.4,1.9c0.4,0.7,0.2,1.1,1.1,0.8c0.7-0.2,0.4-1.2,1-1.6c0.4-0.7,2.5-0.3,1.7,0.6c0.6-0.5,2-2.1,2.2-0.9
	c-0.7,0.8-1.9,0.3-1.9,1.7l0,0c5.6-2.6-3.9,5.4-0.3,0.4c-0.6,0.7-1.6,1-2.1,1.8c0.4,1.1-1.1,0.5-1.1,1.4c1.4,3.2,11-9.7,13.6-8.3
	c-0.6,0.3-1.4,0.3-1.5,1.3c-0.5,1.3-3.5,1.5-1.8,3c1.6,1.3-2.6,3.1-2,4.3c1.4,0.9-1.9,1.2-1.5,2.4c0.4-1.2,1.7-1.2,2.4-2.2
	c0-3.1,1.3,0,2.4-0.8c2-0.6,0.9-4,3.3-4.2c0.8,0,1.9-1.6,2.2-0.2c-0.1,0.5,1.8,0.6,1.5,0.1c-0.2-0.7,0.4-1,1-0.9
	c-5-2.8,0-1.2,0.4-4.8c-0.1-0.1-0.1-0.3,0-0.4c0.7-0.5,1.4,0,2.1-0.1c-1.6,1.8,1,0.7,1.2,1.7c-0.6,0.6-3.5,2.9-0.7,2.3
	c0.6-0.5,2.3-2.9,2.8-2l0,0c0.9,1.4,2.8-1.8,3.9-2.3c-2.2,4.6-3.9,1.6-6.3,4.7c0.3,1.8-7.7,2.5-4.6,5.2c-0.8,1.3-1.4-0.4-1.3-1.2
	c-2.2-0.2,0.5,4.4-1.7,4.2c0,0.3,0.2,0.4,0.4,0.5c1.1-2.1,2.6-1.1,0.3,0.3c-0.2,2.5,3.8-1,4-2.3c-0.2,0.2-0.4,0.4-0.7,0.5
	c0.6-0.8,0.6-0.8,0-0.7c1.1,0.1,6-5.8,4.6-2.4c-0.9,0.9-2,1.4-2.7,2.5c0.6-0.4,1.8-1.9,2.6-1.5c2.5-0.4,4.1-5.3,6.8-6.1
	c0.1,1.7-1.5,2.7-2.9,3c-0.4,2.7-2.8,4.2-5.1,6.5c0.7-0.1,1.1-0.3,1.4,0.5c1.5-0.8-0.6-0.3-0.2-1c1.9-2.1,4.7-3.7,6.9-5.9
	c-0.2,0-0.3-0.1-0.3-0.3c0.2,0.1,0.4,0.1,0.5,0c0.3-0.6,1.8-0.7,1.1,0.1c1.9,1.5-6.5,4.4-5.6,7c0.2-0.1,0.3-0.2,0.5-0.3
	c-0.3,0.7-3.3,2.4-1.3,0.8c-0.7,0.6-1.7-0.4-2.1,0.5c-0.2,1-1.1,0.6-0.5-0.2c-0.5,0.4-0.7,0-1.1,0.3c0.3-0.4,0.7-0.7,1.3-0.9
	c-0.3-0.2-1,0-1-0.5c-0.2,0.2-0.4,0.3-0.6,0.5l0,0c-1,2.6-5.6,3.6-6.4,6.1c0.9-1,1.6,0.1,1,1.1c0.3,0.8-1.4,0.8-0.7,1.5
	c2.3-1.6,2,0.8,3.9-1.5c-3.8-1.5,1.8-2.4,1.2-4.4c-0.1-0.1-0.1-0.3,0-0.4c0.7-0.6,1.5,0.2,2.2-0.4c-0.1,0.1-0.1,0.2-0.2,0.3
	c0.1,0,0.1,0,0.2,0c-0.1,0.2-0.3,0.3-0.4,0.5c0.4-0.5,2.4-1.9,1.9-0.9c1,0.2,3.8-1.9,4.1-1.2c-0.9,1.2-4,3.1-3,4.5
	c1.6,0.6-1,3-1.1,0.8c-0.9,0.5-0.5,2.1-1.9,1.8c-2.2,7.9,5.2-4.4,7.8-3.2c0.5-0.5,6.8-6.7,3.9-6.1c-1.8,0.8-2.1,2.4-3.4,3.8
	c-0.8,0.6-2.4,0.6-2.4,1.8c-1.2,0.8-1.4-1.9,0.1-2.3c0-0.4,0.8-0.6,0.7-1c-1.2-1.1,1.3-0.4,1.9-1.5c0.5-0.2,0.5-1.1,1.2-1.1
	c0,0.3-0.5,0.6-0.7,0.9l0,0c1.5-0.4,2.2-2.8,3.2-3.9c-1.7-0.6,4.6-6.9,4-3.6c0.3-0.2,0.8-0.7,0.8,0c2.7-0.8,0.5-6.8,4.8-5.5
	c0.3,0.8-0.9,1-1,1.7c3.8-1.2,0.5,2.8-1.3,3.2c0,0-0.1,0.1-0.1,0c-0.3,0.1-1.1,0.2-0.8,0.7c5.1,0.4,11.3-10.8,11.2-6.8
	c-0.7,2.3-5.7,3.2-4.1,6.1c-0.4,1.4,0.4,0,1.2,0.1c-1.1-0.6,0.6-1.3,0.2-0.1l0,0c1.4-0.5,1.3-2.2,2.5-3c5.9-3.3,2.8,1.6-0.6,2.8
	c-1.3,0.5-1.3,2.3-2.7,2.4c-0.7-0.1-1.1,0.6-1.5,1c0.7,1.4-2.9,1.1-1.4,2.2c0.7,1-1.8,1.9-1.8,3.2c1.1-0.2,0.7,1.8,0.8,2.6
	c1.7,1.9-2.4,2.6-3,4c2.6,2.5,5-4.5,8.2-5.2c-0.8-0.9,0.6-4.2,1.2-2.7c-0.4,0.5,0.4,1,0.7,1.4c10.4-10.8,14.8-11.6,0.3,0.2
	c1.1,1,0.3,0.8-0.6,0.9c-0.5,1.4-1.8,1.2-1.6,2.9c-0.7,0.5-0.4-0.9-1.5,0.2c1.4,0.7,0.2,1.7-0.6,2.3c2.7,0.5,4.5-3.5,6.5-5
	c-1.1-0.7,0.3-1.4,0.5-0.2c1.4,1.7-5.4,4.1-4.3,6.8c1.4,0.4,2.8-2.4,4-3.4c8.2-4.6-2.2,3.8-3.7,4.8c0,0.1-0.3,0.3-0.3,0.1
	c-0.8,0.8-2.4,2-3,2.8c0.1,0,0.1,0.1,0.1,0.1c2.6-2.1,1.8,4.6-1.6,2.1c-0.1,0.1-0.2,0.3-0.2,0.5c0.5,0,0.7,0.6,0.6,1.1
	c2.6,0.6,1-1.1,3.6-0.7c0.1-2.8,4.6-3.8,6.1-6.1c0.1-1,1-2,2-2c0,0.2-0.1,0.5-0.3,0.6c0.1,0.1-0.5,0.7-0.1,0.6
	c0.5-0.3,0.6-0.2,0.7-0.1c4.3-4.7,0.5,1.4,3.4-1.1c-0.1,2.3-1.6,2.1-3.1,3.1c-0.7,0.8-1,2-2.2,2.2l0,0c0.2,0.7-0.2,2.9-1.4,2.4
	c-1.1-1.1,0.9-1.4,1.3-2.2c-0.6,0.2-0.3-0.8-0.5-1.2c-0.6,0.8-0.9,1.6-1.8,2.1c1.1,0.1-0.4,1.4-0.7,1.9c0.5,1.6-3.6,2.7-4.9,3.9
	c1.5-0.3,2.6,0.7,1.1,1.9c3.1-1-0.9,2.3-2,2.7c2.9,0,5.8-4.4,8.2-6.1c0.4,1.9-4.1,3-3.4,5c-0.3,1.6,2.8-1.8,3.1-2.4
	c6.7-3.5-5,4.9-5.5,6.3c0.5-0.4,1-0.8,1.6-1.1l0.1,0.3c-0.6,0.5,0.3,0.8,0.3,1.2c0.9-2,3.3-3.9,5-4.6c-0.2,0.8,1.1,0.9,0.3-0.4
	c1.3-0.3,2.3-2.1,3.4-2.5c-0.1,0.3-0.1,0.7,0,0.9c0.2-0.5,0.1-1.4,0.9-1.5c0,0.1,0.1,0.2,0,0.3c0.1-1.6,2.6-0.3,2.8-2.6l0.5,0.5H144
	c0.4,0.3,0.8,0.5,1.1,0.9c0.2-0.3,0.3-2-0.2-1.1c0.4-1.7,3.3-2.7,4.6-3.5c-0.1,0.4,1.5-1.6,2.3-1.1c0-0.3,0.2-0.6,0.2-0.9l-0.1,0.3
	c2-0.6,5.4-4.7,6.1-4c0.1-0.8,0.6-0.7,1-1.2c0.1,0.7,0.5-0.2,0.8,0.3c0.1-0.1,0.4-1.1,0.7-0.7c0.5-2,0.3-1,1.9-1.9
	c0.6-1.4,2-2.2,3.2-2.8c-0.1-2.9,1.4-0.6,2.9-1.6c0.2,0.2,0.4,0.3,0.5,0.5c-0.1,0-0.3,0-0.5-0.1c0.4,0.2-0.1,0.4-0.2,0.6
	c0.6-0.1,1.2,0.4,1.7,0.3c-0.7,0.6-1.5,0.5-1.4,1.6c0.1,0.9-1,0.2-1.3,0.9c-0.1,1.4,3.4,2.2,3.3,0.4c-0.5-1.8,2.3-2.2,3.1-3.1
	c3.9-2.9,0.5-3.6,4.5-2.7c2-0.6,0.9-4,3.3-4.2c0.8,0,1.9-1.6,2.2-0.2c1.8,1.7,1.1-1.2,2.5-0.8c0.2-0.6-0.6-0.4-0.9-0.6
	c-3.7-1.4,2-2.4,1.3-4.3c-0.1-0.1-0.1-0.3,0-0.4c0.7-0.5,1.4,0,2.1-0.1c-1.6,1.8,1,0.7,1.2,1.7c-0.2,0.6-3.1,2.1-1.3,2.5
	c0.6-0.3,1.3-0.4,0.8,0.5c-0.1,1.3-1.5,0.6-2.1,1.1c-0.9,0.7-4.7,2.3-2.4,3.7c-0.8,1.3-1.4-0.4-1.3-1.2c-2.2-0.2,0.5,4.4-1.7,4.2
	l0,0c0.3,0.6,0.9,1,0.7,1.9c0.8-0.2,0.8,0.5,0.1,0.4c-0.1,1.6-1.6,3.9,0.3,5.3c1,0.7-2,1.4,0,2c1.3-0.4,2.6-0.7,3.5-1.8
	c-1.4-0.6,0.1-2.6,1-2.9c0.2,1.5-1.8,0.9-0.8,2.8c2.9-1.5,6-6.5,8.3-6.6c-0.9,1.1-4,3.1-3,4.5c1.6,0.6-1,3-1.1,0.8
	c-0.9,0.9-2.7,1.6-2.3,3.2c-0.2,4.6,5.9-5.9,8.2-4.6c0.9-0.4,1.4-1.3,1.6-1.8c0.4-0.7,5.1-4.8,2.3-4.3c-1.8,0.8-2.1,2.4-3.4,3.8
	c-0.8,0.6-2.4,0.6-2.4,1.8c0,0.3-0.8,0.4-0.8-0.1c-0.7-1.7,1-1.9,1.6-3.3c-1.2-1.2,1.3-0.5,1.9-1.6c0.5-0.2,0.5-1.1,1.2-1.1
	c0,0.3-0.5,0.6-0.7,0.9l0,0c1.5-0.4,2.2-2.8,3.2-3.9c-1.7-0.6,4.6-6.9,4-3.6c0.3-0.2,0.8-0.7,0.8,0c2.7-0.8,0.5-6.8,4.8-5.5
	c0.3,0.8-0.9,1-1,1.7c3.8-1.2,0.5,2.8-1.3,3.2c0,0-0.1,0.1-0.1,0c-0.3,0.1-1.1,0.2-0.8,0.7c5.1,0.4,11.3-10.8,11.2-6.8
	c-0.7,2.3-5.7,3.2-4.1,6.1c-0.4,1.4,0.4,0,1.2,0.1c-1.1-0.6,0.6-1.3,0.2-0.1l0,0c1.4-0.5,1.3-2.2,2.5-3c5.8-3.3,2.8,1.6-0.6,2.8
	c-1.3,0.5-1.3,2.3-2.7,2.4c-0.7-0.1-1.1,0.6-1.5,1c0.6,1.4-2.6,1-1.5,2.2c0.7,1-1.8,1.9-1.8,3.2c1.1-0.2,0.7,1.8,0.8,2.6
	c1.7,1.9-2.4,2.6-3,4c2.3,2.6,5-4.6,8.1-5.2c-0.7-0.8,0.6-4.2,1.1-2.7c-0.4,0.5,0.4,1,0.7,1.4c0.3-1.7,14.4-12.5,8.3-6.6
	c-2.8,2.2-5.6,4-8,6.8c1.1,1,0.3,0.8-0.6,0.9c-0.5,1.4-1.8,1.2-1.6,2.9c-0.7,0.5-0.4-0.9-1.5,0.2c1.4,0.7,0.2,1.7-0.6,2.3
	c2.7,0.5,4.5-3.5,6.5-5c-1.1-0.7,0.3-1.4,0.5-0.2c1.4,1.7-5.4,4.1-4.3,6.8c1.4,0.4,2.8-2.4,4-3.4c8.2-4.6-2.2,3.8-3.7,4.8
	c0,0.1-0.3,0.3-0.3,0.1c-0.8,0.8-2.4,2-3,2.8c0.1,0,0.1,0.1,0.1,0.1c1.1-1.5,2.1,0.5,1.2,1.5c0.1,2.6-2.9-0.4-3.2,1.3
	c0.6-0.2,1.9-0.1,1,0.6c0,0,0,0,0,0.1c0.7-0.3,0.6,0.5,1.1,0.5c0.3-0.6,1.1-1.6,1.8-1.1c0.6,0.2,3.9-1.2,2.4-1.4
	c-1.5,0.9-1.3-1.5-0.3-0.9c2.4,1.6,4.3-5.9,6.4-5.8c-1.6,3.1,1.2,0.4,2-0.5c1.3-1-0.4,2.7,1.7,0.6c-0.1,2.3-1.6,2.1-3.1,3.1
	c-0.5,0.7-2.1,3.2-2.8,1.8c-0.1-0.5,0-2-0.5-1.2c-0.1,1-1.2,0.7-1.5,1.3c-0.4,1.3,0.1,1.3,1.2,1.3c-0.3,0.3-0.6,0.8-1.1,0.8
	c0,0,0,0-0.1-0.1c-0.1,0.2-0.4,0.4-0.5,0.6l0,0c1.3,1.2,1.7,1.6-0.6,1.2c-0.3,0.5-0.7,0.9-1.1,1.2c0.3,0,0.5,0.1,0.7,0.3
	c0.1,1-1.3,0.9-2,1.4c-0.5,0.1-0.4,1-0.9,0.7c-1.1-0.1-2.2,2.1-0.4,1.3c0.2,0,0.4,0,0.4-0.2c0.4-1.6,1.9,0-0.1,0.5
	c1.6,1.1-2.2,1.1-2.1,2.3c1.4,0.3-0.1-1.3,2-0.6c0.5,0.2,0.4-0.8,1.2-0.7c-0.8-0.5,0.7-1.3,0.2-1.7c-0.3,0,0.1-0.4-0.2-0.4
	s-0.3-0.1-0.1-0.3c0.7-1.6,0.8,0.4,1.7-1.3c0.5,0,0.3,0.5,0.5,0.8c0.1,0.3-0.6,0.2-0.5,0.6c0.1,0.6-0.1,1-0.5,1.5
	c1.1-0.1,0.9-1.7,1.4-2.3c0.9,0.1,0.2-1.4,0.2-1.8c-0.4-1,2-1.1,1.4-0.2c-0.5,0.4-0.2,0.5,0.2,0.3c0.1-1.8,1.4-0.3,1.6-1.7
	c3.4-1.1,7.8-4.1,9.8-7c1.6,0.2-0.5-1,2-0.7c0.1-0.2,0.3-0.3,0.5-0.2c0.6,0.1,0.4-0.9,0.9-0.9c0.6,0.2,0.6-0.3,0.9-0.5
	c1.2,0.6,0.5-1.7,2.6-2c0.8,0.1-0.1-0.8,0-1.1c0.3-0.4,1.3-1.1,1.3-0.2c-0.2,0.9,1.4-0.1,1.1-0.5c-0.9-1.3,0.9,0.2,2.4-2.1
	c1.2,0.3,0.2-1.8,1.1-1.7c0.8,0.1,0.4-0.2,0.8-0.6c0.8-0.6,1.5-1.5,2.1-1.8c1.1,0.2,4.2-4.1,3.4-1.4c0,1.1,1.2-1.1,0.9,1.9
	c0.7-0.1,1.4,0.7,1.9-0.1c0.6-0.3,0.5,0.2,0.7,0.5c1.2-0.8,3-1.8,4.2-3.2c0.4,0,0.4,0.8,0.2,1c-0.5,0.5,0.7-0.1,0.9,0.3
	c-0.1-0.7,1-1.5,0.2-2.2c-1.1-0.6,0.8-0.6,0.9-1.3c-0.1-0.8,0.4-0.7,0.7-1.3c-0.1-0.6,0.9-0.3,1.2-0.7c-1.1-3.2,0.6-0.3,0.8-3.1
	c0.7,0.1,0.4-1.1,1.1-0.8c0.3,0,0.5-0.3,0.8,0c0.4,0.2,0.5-0.7,0.9-0.4c0.6,0.1,2.7-2.7,2.7-1.6c-0.3,0.4-0.5,1.6,0,1.3
	c0.2-0.5,1.1-0.1,0.8,0.3c-0.8,0.4-2.2,1-2.5,2c2.9,0.4,2.1-3.4,3.9-4.4c0.6,0.2,0.8,1.1,0.1,1.3c-0.1,0.5,0,1.1-0.1,1.5l0,0
	c1.3-0.1,1.1-0.2,0.7-0.9c0.5-0.3-0.1-1,0.5-1c1.2-0.5-1.2-1.7,0.2-2.5c-0.7-0.9,0.4-1.7,1.2-2.5c0.6,0.4,0.7,1.1,0,1.4
	c-0.3,0.7,0.4,0.9,0.4,1.5c0.1-0.1,0.6,0.2,0.5-0.3c-0.6-2.9,1.1-0.7,0.4-3.7c-0.1-1,2.4-0.7,1.2,0.1c2,0.1,0.5,1.8-0.9,1.7l0,0
	c0.9,1.1,3-0.5,3.9-1.2c0.1-1.2,1.6-1.5,1.2-0.1c-1,0.7-2.1,1.3-1.3,2.6c1.3,0.6,1.5-2.9,3.3-1.3c0.3,0.1,0,0.2-0.1,0.3
	c-0.4-2.1,0-1.2-0.7-0.9c-0.4-0.3-4.2,2.2-3.6,2.3c0.3,0.6,1.2,0.1,1.4-0.1c0.4-1.6,1.9,0-0.1,0.5c1.4,1-2.1,1.4-2.4,2.4
	c-1.2,0.1,0.6,0.5-0.6,1.3c0.3,0,0.8-0.4,0.6,0.2c1.2-1.2,2.3-2.3,3.5-3.1c-0.8-0.7,0.8-1.4,0-2.1c-0.3,0-0.3-0.1-0.1-0.3
	c0.7-1.6,0.8,0.4,1.7-1.3c1,0.4,0.2,1,0,1.4c0.1,0.6-0.1,1-0.5,1.5c1.1-0.1,0.9-1.7,1.4-2.3c0.9,0.1,0.2-1.4,0.2-1.8
	c-0.4-1,2-1.1,1.4-0.2c-1.1,0.7,1.9,0.3,0.2,1.6c-0.3,0.4-0.8,0.3-1.2,0.3c0.1,0.7,1.4,0.1,1.9,0c-0.4-0.1-0.1-0.5,0.1-0.2
	c0,0,0.1,0.1,0.1,0c0.2-0.2,0.4-0.3,0.6-0.5c-2.8-0.4,1.7-2.5,0.8-1c0.1,0.7,0,0.8,0,0.8c-0.1,0.2,0.1,0.3,0.3,0.1
	c0.2-2.3,2.3-0.4,0.5,0.2c-0.9,0.4-1.5,1.9-0.5,2.3c-0.1-0.8,0.2,0,0.5-0.1c0.5-0.9,2.1-2.7,2.7-0.9c-2,1-4,2-4.5,3.9
	c0,0,0.1,0.1,0.1,0c1.3,1.4,1.5-2.4,2.5-1.3c0.4,0.8,0.2-1,1.5-0.6c-0.3,0.6-0.7,0.7-0.5,1.3c-0.1,0.3-0.8,1.2-0.1,0.8
	c0.6,1-2.1,0.3-2.2,1.3c-0.6,0.9,1.2-0.3-0.2,1.1c-0.3,0.5,0.5,0.1,0.6,0.6c0.2,0.4,0.5-0.4,0.5-0.6c-0.2,0-0.3-0.1-0.3-0.3
	c0.2,0,1.7-0.4,1.1-0.7c-0.2,0-0.3-0.4-0.1-0.5c0.4-0.5,0.4,0.6,0.8,0.2c3-2.7-0.6-0.5,1.3-2.5V8.1c0.4-0.7,1.3-0.6,2-0.8
	c-0.4,1.4-3.6,2.5-0.2,2.5c-0.4,0.4-0.7,0.4-0.6,1.1c0.5-0.2,1.1-0.7,1.6-1.2c-3,0.1,1.3-2.8,0.5-0.7c1.3-0.4,0.7,0.7,0,0.9
	c1.8-0.4,2.6-2.5,4.5-3c0.1-1.3,1.1-0.3,1.6,0.1c1.4,0.3-0.1,0.4-0.6,0.5c0.2,1.6-0.8,0.6-1.4,2.1c-0.2,0.3-0.5-0.2-0.7,0
	c-0.5-0.4-3.5,2.6-1.8,1.4c0.5-0.3,0.2-0.1,0.3-0.5c0.8-1.3,1.1,0.7,2,0.5c1,0.6-0.6,0.2-0.9,0.5c0.3,1.8-1,0.5-1.2,1.7
	c0.1,1.1-2.1-0.2-1.9,1.1c0,1.3,0.2,1.1,1,1c-0.1,0.4-0.7,0.3-0.7,0.8c0.2,0,0.5-0.1,0.5-0.3c0.6,1,1.8-0.3,2.3,0.2
	c-0.4,0.1-1,1.7-1,0.6c-0.2-0.1-0.6,0.7-0.4,0.9c1,1,1.1-1.3,2-1.3c0.6-2.4,1.7-1.4,2.9-3c1.2-1.1,2.2-2.3,3.8-3.2
	c0.3-0.8,0.9-1.1,1.6-1.2c0.5-0.5,1.1-1.7,1.7-0.5c0.2,0.6,1.5,0.2,1,0.9c-2.1-0.3-0.4,0.9-1.4,1.1c-0.9,0-0.8,0.4-1.1,1
	c-2.4,0-4.5,3.1-6.3,4.5c-0.2,0.9,2-2,3-1.8c-0.2-0.5,0.6-0.6,0.9-0.9c-0.1-0.7,0.8-0.3,1-0.6c0.5-0.3,0.6-1,1.2-1
	c0.3,0.6,2.7,1.5,0.9,1.2c-1-0.2-0.1,0.9-0.7,1.2c-1.1-0.2-0.8,1.3-1.7,0.9c0.1,0.4,0.7,0.3,0.9,0.5c0.2,0.4,0.5-0.4,0.8-0.2
	c-0.3-0.3,0.3-1,0.5-0.8c0.5,0.7,3.1,1.3,0.6,1.2c0,1.7-0.9,0.7-1.5,2.2c1.2,0.4,0.9,0.8-0.2,0.7c0,1.8-0.4,0.7-1.2,1.6
	c-0.2,0.7-0.7,1.2-1.1,1.8c-0.1,0.1-0.3,0-0.4-0.1s-0.1-0.3,0-0.4c0.5-0.2-0.8-0.4-0.5,0c0.4,0.7-0.9,0.3-0.8,1.4
	c0,0.7-0.2,0.1-0.7,0.2c-0.3,0.4-0.9,0.6-1,1c0.1,0.4,1.4-0.5,1,0.4c0.5,0.3,0.3-0.7,0.9-0.5c-0.3-0.2,0.3-0.7-0.1-0.6
	c-0.2,0-0.3-0.1-0.1-0.3c0.7-1.7,0.8,0,1.8,0.1c0.6,0.3,0.4-0.7,0.9-0.8c0.1,0,0.2-0.1,0.1-0.2c0-0.8,0.9-0.2,1.1-0.7
	c0-0.1,0.5-0.3,0.5-0.1c-0.1-0.1-0.1-0.3,0-0.4c0.2-0.8,1.9,0.6,2.2,0.8c-2.4,0.4-0.1,1.2-2,1.5c-0.6,0.6,0.1,1-1.3,0.9
	c-1.6,0.6-2.8,2.6-4.1,3.4c0.4,0.3-0.4,0.9-0.2,1.5c1-1,1.6-2.1,3.1-2.2c-0.2,0-0.3,0.1-0.3-0.1c0.1-0.3,0.6-0.5,0.5,0
	c0.1,0.3,0.2-0.3,0.3-0.4c0-0.5,0.6,0,0.8-0.3c-1.5-0.7,1-1.7,1.6-1.3c0.5-0.1,0-0.6,0.1-0.8c0.2-0.1,0.6,0.1,0.3,0.3
	c0.9,0.1,0.3-1.3,1.1-1.1c1.3-0.7,2.3-1.6,3.3-2.6c1.2,0.3,1-2.1,2.2-0.8c0.1,0.5,1.6,0.2,1.1,0.8c-2.2-0.2-0.4,0.8-1.4,1.2
	c-1.7,1-3.6,1.7-5.1,3.7c0.3-0.3,1,0,1-0.5c-0.1-0.4,0.6-0.4,0.5-0.7c0-0.8,0.9-0.2,1.2-0.7c1-1.4,0.9-0.7,2.3-0.1
	c0.2-0.2,0.4-0.7,0.8-0.5c0.7,1,2,1.3,2.1,0.2c0.2-0.1,0.4-0.5,0.6-0.3c0.7,1.1,3,1,0.3,1.4c0.1,1.2-0.1,0.9-1,1.2
	c-0.3,0.2-0.2,1.3-0.8,0.9c-0.2-0.3-0.2,0.5-0.5,0.3c-1.7,0,0,1.3-2,1.1c-0.4,1.2-1.8,1.4-2.6,2.2c2.2,0.1,0.8,1.2,3.1,1.8
	c0.8-0.8,2.4-1,2.9-2c-1-0.9,0.8-0.9,1.1-1.5c0.4-1.1-0.4-1,0.9-1.7c-0.5-1.3,1.7-0.4,2-1c0.1-0.2,0.3-0.4,0.6-0.3
	c0.5,0.1,3.2-3.3,3.2-2.3c0,0.5-0.8,1-0.4,1.4c0.2,0.2,0.1,0.6,0.4,0.2c0.1-0.3,0.4-0.4,0.7-0.2c1.4,0.7-1,1.1-1.2,1.8
	c-2.8,3,0.9,1.7,1.7-0.2c0-0.4,0.9-0.8,0.4-1c-0.4-0.1,0-0.7-0.1-1c0-0.8,1.3-0.5,1.3-1.3c0.4-1,1.4,1,0.3,1.2
	c-0.4,1.4,0.6,2.6,1.1,1.1c0-0.4-0.9-0.2-0.3-0.6c0.6-0.3-0.1-1,0.4-1.3c1.9-0.5-1.6-1.4,0-2.9c0.4-0.3-0.4-0.2-0.2-0.5
	c0-2,1-0.8,1.7-2.4c0.7,0,0.5,0.8,0.7,1.2c-1.3,0.1-0.5,2.5,0.6,1.9c-0.8-2,1.3-2.8,0.3-4.6c-0.1-1.5,2.9-1.2,1.5,0.2
	c2.5-0.5,0.7,2.2-0.9,2c2,1.5,4.4-2.1,5.7-3c1.9,1.5-3.2,2.3-1.1,4.4c1.2,0.4,2.6-4,4.2-1.4c-0.6,1.3-2.4,0.7-3,2.2
	c-0.6,0.6-1.8,0.8-2.3,1.8c0.2,0.3,0.8,0.8,0.9,0.1c0.2-0.3,0.9,0.1,0.9-0.4c0.2-1.5,2.7-0.3,0.1,0.8c2.2,0.8-2.4,2.1-2.7,3.2
	c-1.1,0.1,0.8,1.4-0.6,1.6c0.3,0.1,0.9-0.4,0.7,0.1c0.1,0.6,0.4-0.8,0.9-0.8c0.7-0.1,0.4-1,1.2-1c0.5-0.1,0.3-0.5,0.7-0.6
	c0.8-0.1,0.2-1.5,1.4-1.5c-1.1-0.6,0.6-1.6-0.1-2.1c0.2-0.4-0.7,0-0.3-0.6c0-0.1,0.1-0.1,0.1-0.2c0.3-1.6,1.3-0.1,1.9-1.8
	c0.3-0.2,1,1.4,0.6,1.3c-0.4,0-0.5,0.3-0.5,0.6c0.2,0.7-0.2,1.2-0.5,1.8c1.3,0,0.6-1.1,1.3-1.4c0.5-0.3-0.1-1.3,0.4-1.5
	c1.2,0.1,0.2-1.8,0.2-2.1c-0.2-1.4,3-1.3,1.5,0.1c0.6-0.1,1.5,0.2,1.3,0.9c-0.7,0.5-1.5,1.1-2.2,1.1l0,0c0.3,0.7,1.8,0.1,2.4,0
	c-0.6,0-0.2-0.7,0.1-0.3c0,0,0.1,0.1,0.1,0c0.2-0.2,0.5-0.4,0.7-0.6c-1,0.1-1.6-1.1-0.3-1.2c0.6-1.1,2.4-0.5,1.1,0.5
	c-0.2,0.4,0.3,0.2,0.3,0c0.3-2.7,3.1-0.9-0.4,1.1c-0.6,0.5,0,1.8,0.6,2c0-0.2,0-0.6,0.2-0.3c1,1.1,0.8-1.8,1.9-1.7
	c0.6-0.1,2.1,0,1.8,0.9c-0.6,0.8-1.5,0.9-2.5,1.4c-0.8,0.4,0.3,1-1,1c-2,0.7-0.7,1.9-1.7,2.7c0.4-0.2,0.5,0.3,1,0.4
	c-0.1-0.6,0.8-0.9,1-1.5c0.3-0.5,0.3-1.7,1-0.6c0.5,0.5,0-1.4,1.7-0.9c-0.4,0.7-0.9,0.7-0.6,1.5c-1.1,2.1,0.5,0.2,0.1,1.3
	c-0.7,0.7-3.4,0.2-2.8,1.8c1,0.1,0.6,0-0.1,1.1c-0.1,0.5,0.7,0.1,0.8,0.7c0.1,0.4,0.7-0.8,0.4-0.8c-0.2,0-0.4-0.2-0.3-0.4
	c0.6,0.3,0.7-0.7,1.5-0.5c0.6-0.1-0.8-0.4-0.2-0.9c0.2-0.2,0.3,0.4,0.6,0.4c0.2-0.4,2.8-2,1.6-2.1c-1.4,0.4,0.2-1,0.1-1.5
	c2.8-2.8,3.4-0.2,0.4,1c0.8,0.7,0.9,1.4,1.7,0.7c0.9,0.2-2.4,3.8,1.5,0.3c-3.7,0.1,1.7-3.1,0.8-1c1.8-0.6,0.8,0.8-0.1,1.1
	c1,0.4,1.4-1.7,2.4-1.5c0.9-0.3,0.8-1.7,1.7-1.9c0.7,0.3,0.6-0.6,1.3-0.6c-0.2-1.1,1-1,1.5-0.3c0.1,0.4,2,0.2,0.9,0.9
	c-1.6-0.3-0.7,0.8-1.3,1.5c-2,0.1-0.4,1.6-2.4,1.3c-1.1,0.1-4.2,3.3-1.5,1.9c-0.2-0.1-0.2-0.3-0.1-0.5c0.3-0.7,1.1-0.6,1.5,0
	c0.2,0.7,1.9,0.1,1.4,1c-2.3-0.3-0.6,0.9-1.6,1.5c-1.6-0.1-0.5,1.2-1.6,1.4c-0.5-0.3-1.9,0.1-1.6,0.8c0.1,1.2,0,1.9,1.3,1.2
	c0,0-0.4,0.7-0.4,0.6c-0.2,0-0.4,0.2-0.4,0.4c0.3-0.2,0.6,0.1,0.6-0.4c1,1.1,2.1-0.5,2.9,0c-0.6,0.3-0.6,1.2-1.1,1.3
	c-0.4,0,0.1-0.3-0.1-0.4c-0.2-0.1-0.7,1-0.3,1c1.2,1.5,1.6-1.4,2.1-1.3c0.1,0,0.3,0.1,0.3-0.1c0.4-2.3,2.4-2.3,3.5-4
	c1.5-1.6,2.6-3.3,4.6-4.2c0.4-1.4,1.6-1.4,2.4-2.1c0.7-2,1.2-0.1,2.4,0c0.4-0.2,0.9,0.6,0.4,0.6c-2.3-0.3-0.5,1-1.5,1.5
	c-1.5-0.2-0.6,2-1.9,1.3c-2.5,1.5-5,3.9-6.5,5.9c-0.7,0.4,0.5,0.1,0.7,0c0.4-1.1,1.8-2,3-2.4c-0.5-0.8,0.9-0.7,1-1.2
	c-0.1-0.8,0.9-0.4,1.2-0.7c0.6-1,1.2-1.9,2.2-0.7c0.3-0.9,0.8-1.9,1.9-2c0.6-0.1-0.2-0.8-0.1-1.1c0.2-0.5,1.3-1,1.3-0.2
	c-0.2,0.9,1.5-0.1,1-0.5c-0.7-0.9,0.3-0.7,0.8-0.7c0.7-0.4,0.9-0.9,1.3-1.5c1.6,0.3,0.1-2.2,1.7-1.8c1.5-2.4,4.6-3.5,5.9-5.8
	c-0.7-0.2,0.1-0.8,0.4-0.9c1.2,0.7,0.8,0.1,1-1c-0.1,0-0.2-0.3,0-0.2c0.7,1,2.4-1.7,2-2.1c0.4-0.6,1.9-1.4,2-2.3l0,0
	c0.1,0,0.2,0,0.2-0.1c0.9,0,2.2-3.4,2.3-1.8c1.6-0.2-0.5,1.8,1.9,0.7c0.2-0.2,0.6-0.6,0.8-0.2c0,0.5,0.6,0.1,0.6,0.6l0,0
	c0.6-0.3,0.7,0.3,0.5,0.6c0.6-0.4,1.1,0.1,1,0.7c1.6,0,0.7-1.3,1.7-0.9c-0.1,0.6,0.6,0,0.8-0.1c0.4-0.7,4.1-5.1,4.1-4.1
	c0,0.5,0.6-0.5,0.7,0.5c0.2,0.5,0.8-0.4,0.7,0.6l0,0c0.5,0.2,1.4-1.1,1.5-0.2c0.1,0.2,0.5-0.3,0.7,0.1c0,0.4,0.4,0.2,0.5,0.4
	c0.1,0,0.1,0.1,0.1,0.2c-0.7,0.5,0.3,0.7,0.1,1.2c0.6,0.4,1-0.9,1.5-0.3c0.4,0.8,1.4-0.7,2.7,0.6c-0.1,0.4,0.9,0.4,0.9,1.1
	c0.1,0.3,0.4,0.4,0.5,0.1c1.6-0.2,2.1,2.2,3.4,3c0.5,0.2,0.7-1.2,1,0.1c1,1.3,2.2,2.6,3.2,4c1.8,1.8,0.5-1.3,2.5,1.8
	c0.8,0.8,2.4,1.8,2,3.2l0,0c0.3,0.3,0.4,0.8,0.2,1.2c0.3-0.2,0.8-1.1,1.1-0.3c1,1.6,3.5,2.7,3.1,4.8c0.1,0.1,0.1,0.2,0,0.3
	c-1.3,1.8,1.4,1.1,0.3,2.3c-0.5,1.1,0,1.2,1,1.2c0,0,0-0.1,0.1-0.1c-0.3-1,0.9-0.6,1-1.3c2.7-1.3,4.7-4.2,7.3-6.1
	c0.5-1.4,2.8-1.9,3.1-3.3c-0.1-0.5,1.9-0.9,1-1.3c-0.2-0.1,0.7-1.1,1-0.8c-0.1,0.8,1,0,0.7-0.3c-0.4-0.4,0.2-0.5-0.1-0.9
	c1.3,1.1,2.1-2.5,2.8-2.5c0.2-0.7,1.3-1.1,1.3-1.8c1.1,0,1.9-2.2,2.7-2c-0.1,1,0.3-0.1,0.7,0.4c-0.4,1.3,0.9,0.9,1.5,0.4
	c0.5-0.4,0.4,0.4,0.8,0.4c0.1,0,0.3,0.1,0.3,0.2c0.6-0.2,0.6,0.3,0.4,0.6c0.6-0.4,1.1,0,1,0.6c1.4,0,1-1.2,1.8-0.8
	c1.3,0.6,3.4-3.9,5.1-4.1c-0.1,0.8,0.6-0.3,0.7,0.6c0,0.5,0.9-0.5,0.7,0.6l0,0c0.7,0.1,1.3-1.1,1.7-0.1c1.3-1.3,2.4-2.3,4-3.9
	c0.9-0.9,2.5-4,2.2-0.8c1.6-0.6,1.9,0.1,1.5,1.5c1.1,1.2,3-0.7,4.2-0.6c-0.1,1.1,1.3,0.9,1.2,1.8c-1,1.4,0.4,0.6,0.4,1.8
	c0,0.2,0,0.4,0.2,0.4c0.8,0,0.1,0.9,0.7,1.1c2.8-0.8,3.1,1.3,3.8,0.4c0.5-1.5,1.6-0.9,2.6,0c0.2,1,4.2,4.2,2.3,4.9
	c-0.1,0-0.4-0.1-0.5,0.1c-0.3,3.2,2.6-0.8,3.4-0.5c3.2,5.3,5.1,4,4.3,10.8c0.3-0.3,1.2-0.6,1.1,0.1c-0.2,0.9,1.5-0.1,1.2-0.5
	c-0.8-1.1,1.8,0,2.3-2c0.7,0.2,1-0.6,1-1.3c-0.2-0.7,1-0.1,1-0.6c0.5-0.9,1.8-1.7,2.2-2.2c-2.3-1.3,1.3-0.7,1.4-3
	c1.7,0-0.3-0.9,1.8-1.1c2.1,0.4,4.9-2.9,6.3-2.7c0.1,0.6-1,1.1-0.6,1.5c0.6,1.4-3,0.8-1.9,3c1.7,2.4,4.2-4.3,6.6-1.3
	c0.7,0.3-2,1.4-0.5,1.4c0.2-0.6,1.6-0.9,1.3-1.4c-0.4-0.4,1-0.7,0.3-1.2c-1.8,0,0.7-1.2,1.1-2.2c0.6-1.1-1.5-0.5-1.3-1.4
	c-0.1-0.4,1.5-1.7,0.8-1.6c-0.9-1.7,1.4-1.5,1.9-2.7c1,0.4,0.9,1.4-0.1,1.7c0.3,1.1-0.4,1.6-0.8,2.3c3.8-0.2,1-1.2,2.4-2.8
	c1.1,0.2,0.2-1.8,0.2-2.2c-0.4-1,2.6-1.4,2.2-0.3c-1.1,1,0,0.2,0.6,0.7c1.6,1.2-2.3,2.6-3,2.5c-0.1,0.1,0,0.2,0.1,0.3
	c2.2,1.7,9.5-5.9,7-1.6c-1.9-0.1-3.2,3.5-0.9,3.2c1.1,0.1,0.7-1.3,1.5-1.6c0.6-0.6,3.3-0.5,2.1,0.9c-0.8,1-2.9,0.2-3.4,1.5
	c-0.1,0.8-0.9,0.2-1.4,0.4c-0.4,0.5-2.2,1.1-1.4,1.7c0.7,0.8-1,0.9-0.9,1.6c0,0.6-0.6,0.1-0.8,0.4c-0.5,1.7-2.3,0.5-3.3,1.7l0,0
	c2.9-1.1,1,1.7-0.8,1.4c0,0.1,0,0.2,0,0.3c-0.2-0.2-0.9,0.2-0.5-0.2c-0.8-0.3-1.1,0.6-1.4,1.1c0.6-0.1,0.4,0.7,0.2,1
	c0.1-0.1,0.8-0.5,0.4-0.7c-0.5-1.6,3.2-0.3-0.3,1.3l0,0c1.2,1.1,2.9-3.4,2.6,0c1.9-0.5-0.3,1.9,1,1.7c0.2-0.9,1.6-0.6,1.9-1.6
	c0.5-0.5,0.5,0.7,0.5,0.8c-0.2,0.2-0.6,0-0.7,0.3c0.4-0.1,0.6,0,0.3,0.4c0.2,0.3,0,1,0.6,0.5c-0.2-0.6,0.6-1.5,1.2-1.6
	c-1.6,0.2-1-1.5,0.1-1c-0.1-0.4-0.3-0.8,0.1-1.2c-1.5,0.3-2.4,1.9-3.9,2.3c0.9-0.7,3.8-4.2,4.3-2.5c1.2-0.1,1.8-1.6,3-1.7
	c1.3-0.6,9.9-9,7.3-4c-1.4,1-0.9,3-2.6,3.8c0.1,0,0.2,0.1,0.3,0.2c2.9-1.1,2.6-4.1,4.9-5.7c0.5-2.4,0.2-5.1,3.8-4.5
	c0.3,0.8-0.9,1-1,1.7c3.1-1.1,1.5,1.6-0.1,2.5c0.3,0.1,0.3,0.3,0.3,0.6c2.3-1,4.2-2.7,6.2-4.1c3-5.3,4.2-0.5-0.4,1.2l0,0
	c2.1,0.8-1.1,2.2-1,3.6c4.9-1,2.2-8.6,7.5-7.9c0.3,0.8-0.9,1-1,1.7c3.7-1.2,0.7,2.8-1.3,2.9c-4.4,2.9,7.5-2.5,7.9-4.4
	c0.2-1,2.7-3.2,2.4-1c-1.2,2.4-5.8,2.8-4.7,6.3c1.5,0.9,3-2.1,4-3.2c0.9-1.1,5-1.7,2.6,0.7c-0.9,1.3-2.9,1.2-4,2.4
	c-1.4,0.8-1.2,2.1-3.2,2c-4.3,2.9-0.7,2.7-4.1,5.1l0,0c-0.5,1.3-0.2,0.9,0.1,2c0,0.4,0.6-0.2,0.8-0.1c1,0,0.5-1.3,1.2-1.7
	c3.2-1.5,2.6,1.1,0,1.7c-0.6,1.4-2.9,1.4-3.1,2.8c1.2,0.5-0.5,1-0.4,1.5c0.1,0.7-0.8,0-0.7,0.7c-0.4,1.5-2,0.6-2.7,1.7l0,0
	c0.4-0.4,0.9,0,1.3-0.4c0.7,0.1-0.6,1.7-1.1,1.7c-0.2-0.1-0.7,0.1-0.4,0.3c-0.2-0.2-0.6,0.2-0.5-0.2c-1-0.1-1,1.4-1.9,1.6
	c-1,0.5,0.3,1.2-1.3,1.4c-0.6,0.3-1.6,0.5-0.7,1.2c0,0.2-0.3,0.1-0.3-0.1c-0.2-0.5-0.8-0.3-0.3-0.8c-0.6,0.1-1.1,0.4-1.5,0.8
	c1.9,0.4,0.4,1,0.8,1.9c0.8-0.1,0.2,0.6-0.1,0.9c0.5-0.2,0.9-0.6,1.2-0.9c1,0,0.7-1.3,1.8-1.4c1.5-1.1,1.9,0.2,0.3,1
	c3.4-2.4,0.6,0.7,2.6-0.2c0.1,1.6-0.5,1-1.7,1.4c-0.9,1.7-1.6,1.1-2.2-0.2c0,0.5-0.6,1.1-1,1.2c0,0,0,0-0.1,0
	c1.3,0.6,0.3,0.8-0.1,1.8c0.4,0.8,1.2-1.3,1.9-0.6c1.2,0.1,1.7-0.9,1,1.2c2-3.1,2.9,0.9,3.5-1.8c0.4-0.4,0-0.6-0.3-0.3
	c-0.8,0.3,0.9-0.8,0.7-1.3c1.9-1.9-1.7,0,0.1-2.2c0.1,0,0.5-0.5,0.1-0.4c-0.2,0-0.2-0.1-0.1-0.2c-0.1-1.3,1.4-1.2,1.8-2.2
	c0.5-0.4,0.4,0.2,0.6,0.5c-0.7,0.5-0.7,1.7-1.6,2.4c-0.1,0.2,0.1,0.1,0.2,0.1c2.1-0.5,0.8-1.9,2.4-3c-1.6,0.1-0.7-1.4,0.2-1
	c0.8-3,6-4.9,8.3-7.6c3.1-0.3-5.3,3.6-5.2,6.2l0,0c0.4,1-0.8-0.7-1.2,0.7c2,0.8-1.6,1.6-1.7,2.1c1.9,0.6,8.9-7,4.6-1.8
	c-1.6,0.6-0.3,3.5,1.6,0.1c5.6-2-3.1,3.1-3.3,4.1c0.9,0.4-1.1,1.7-1.3,2.1c0.9-0.1,2,0.1,2.6,0.3c-0.1-0.7,1.1-0.3,1.4-0.3
	c0.5,0,2-0.5,0.9-0.7c-0.7,0.3-1.2-0.9-0.3-0.5c1.9,1.3,2-3.4,3.7-2.9c-0.5,1.3,0.7,1.1,1.1,0.2c1.1-1.4,0,1.5,1.6,0.3
	c0.2,1.7-0.4,0.9-1.4,1.6c-1.1,1.8-1.3,1.3-2.3,0c0.1,1-1,0.2-0.8,1.1c1,0.9,0.8,0.1,0.2,1.5c-0.2,1.8-4.5,0.7-2.4,3
	c-1.5,0.3-2.2,1.7-3.1,2.9c-0.5,0.8-2.2,0.3-2,1.5c1,0.4,3.4-3.4,2.9-0.8c-0.4,0.5,0.5,0.1,0.7,0.3c0.3-1.2,1.2,0.2,0.4,0.7l0,0
	c1,0.7,2.3-2.1,3-1.3c0.5-0.3-0.4-0.9,0.1-1.3c1.4,0.1-0.3-1.6,2.3-1.2c1.4-0.6,2.8-1.9,4.1-3c1.4-0.5-0.4,1.1,0.1,1.4
	c1,1.3-2.4,0.8-1.2,2.9l0,0c1.6,1.9,3.2-4.3,5.7-1.9c0.7,0.2-1.7,1.4-0.3,1.2c0.1-0.6,1.2-0.9,1-1.4c-0.5-0.5,1.2-1.3-0.6-1.1
	c-0.1-0.5,1-0.5,0.9-1.1c1.8-2.7-2-0.7-0.3-3.3c0.6-0.6-0.4-0.3-0.1-0.8c-0.6-1.5,1.4-1.1,1.6-2.3c0.5-0.5,0.9,0.7,1,1
	c-1.3,0.3-0.1,1.8-1.2,2.6c2.4-0.6,1.6-0.4,1.7-2.4c-0.5-0.9,1.5,0,0.4-2.4c-0.9-1,2.1-1.9,2-0.7c-1,1-0.1,0.2,0.5,0.6
	c2.4,1.1-4.3,2.6-0.6,2.2c1.6-0.4,4-1.5,4.4-3.2c0.8-1,2,0.5,0.8,1c-0.5,0.1-0.9,0.3-1.1,0.9c-1.3,0.4-0.1,1.4-0.1,2
	c0,0.4,0.6-0.2,0.8-0.1c1,0,0.5-1.3,1.2-1.7c3.2-1.5,2.6,1.1,0,1.7c-0.6,1.4-2.9,1.4-3.1,2.8c1.2,0.5-0.6,1-0.4,1.6
	c0.1,0.5-0.7,0-0.7,0.5c-0.2,1.6-2,0.7-2.7,1.8l0,0c0.3-0.4,0.9,0,1.3-0.4c0.7,0.1-0.6,1.7-1.1,1.7c-0.2-0.1-0.7,0.1-0.4,0.3
	c-0.2-0.2-0.6,0.2-0.5-0.2c-1-0.1-0.9,1.4-1.9,1.6c-1,0.5,0.3,1.2-1.3,1.4c-0.8,0.4-1.4,0.5-0.7,1.3c-0.2,0-1-0.7-0.7-0.8
	c0.7-1.4-1.8-0.8,0.2-2.2c-0.9-2.3-2.4,2-3.6,1.3c-0.3-0.9-1.5-0.4-1.2,0.4c0.8,0.2-0.9,0.9-1,1.1c-1.7,2.7,1.6,0.9,2.2,1.7
	c4.4-1.4-2.8-1,2-2.8c-0.2,1.9,1.9-0.1,0.9,2.5c0.2,0,0.4,0,0.4,0.2c0.4,0.1-0.2,0.5-0.2,0.8c0.4-0.2,0.8-0.5,1-0.8
	c5-3.8,2.6-0.6,0,1.6l0,0c0.5,0.4,1.2-0.9,1.5-0.1c-0.2,0.7,0.8,0.7,0.5,1.3c0,0-0.1,0.1-0.1,0.2c1.1-1,1.1,0.2,0.7,1
	c0.8-1.2,1.9-1.7,3.1-0.8c1.3-2.7-0.4-0.6-0.1-1.5c0.5-0.3,0.7-0.6,0.8-1.1c1.9-2-1.7,0.1,0.2-2.5c-0.9-1.1,1-1.6,1.6-2.6
	c0.5-0.4,0.4,0.2,0.6,0.5c-0.7,0.5-0.7,1.7-1.6,2.4c-0.1,0.2,0.1,0.1,0.2,0.1c2.1-0.5,0.8-1.9,2.4-3c-1.6,0.1-0.7-1.4,0.2-1
	c0.8-3,6-4.9,8.3-7.6c3.1-0.3-5.5,3.8-5.3,6.1l0,0c0.4,1-0.8-0.7-1.2,0.7c2,0.8-1.6,1.6-1.7,2.1c1.9,0.6,8.9-7,4.6-1.8
	c-1.6,0.6-0.3,3.5,1.6,0.1c5.6-2-3.1,3.1-3.3,4.1c0.9,0.4-1.1,1.7-1.3,2.1c0.9-0.1,2,0.1,2.6,0.3c-0.1-0.7,1.1-0.3,1.4-0.3
	c0.5,0,2-0.5,0.9-0.7c-0.7,0.3-1.1-0.9-0.3-0.5c1.9,1.3,2-3.4,3.7-2.9c-0.5,1.3,0.7,1.1,1.1,0.2c1.1-1.4,0,1.5,1.6,0.3
	c0.2,1.7-0.4,0.9-1.4,1.6c-1.1,1.8-1.3,1.3-2.3,0c0.1,1-1,0.2-0.8,1.1c1.1,1,0.6,0.2,0.2,1.6c-0.2,1.8-4.5,0.7-2.4,3
	c-1.6,0.3-2.2,1.6-3.1,2.9c-1,1-2.9,0.3-1.7,2.3c1.1,1,0.6-0.6,1.2-0.5c0.7,0.1,0.7-0.5,1.1-0.8c0,0.4,0.2,0.7,0.3,1.2
	c0.2-0.2,0.5-0.3,0.2-0.6c2,0.1,1-0.9,1.6-1.4c1.8-0.2-1-0.6,1.9-1c0.9-0.7,1.5-1.3,2.2-1.9c1.2,0.2,1-2.4,2.6-2.2
	c0.6-0.1-0.2-0.8-0.1-1.1c0.2-0.4,0.9-1,1.3-0.6c0,0.4,0,0.8,0.5,0.5c-1-0.1-0.3-1.2,0.4-0.9c-0.2-0.3,0.2-0.8,0.5-0.5
	c0.2-1.1-0.3-0.9,0.7-1.3c-0.6-1.2,1.6-0.4,1.7-0.9c-0.1-1.7,0.3-0.4,0.9-1.3c1.3-2,3.5-2.4,4.9-4.6c0.3-0.7,0.9,0.2,0.4,0.7
	c-0.1,0.1-0.1,0.4,0.1,0.2c0.3-0.1,0.6-0.2,0.8,0c0.5-0.4-0.2-0.7,0-1.6c0-0.7,1.3-0.3,1.2-1.1c0.2-1.1,1.4,0.5,0.4,1.1
	c0.2,0.9-0.2,1.4-0.5,2.1c0.6-0.5,2.2-0.2,1.4-1.2c-0.3-1.9,1.2-1.5,0.3-3.8c0.3-1.1,2.8-0.7,1.4,0.5c0.5-0.2,1.4,0.2,1.2,0.8
	c-0.6,0.5-1.1,1.2-2,1l0,0c1.2,1,4.2-1.2,4.5-2.5c0.2-0.4,0.8-1.2,0-1.7c-1.3-0.8,1.6-0.8,1.1-1.7c-0.4-0.7,0.9-0.5,0.7-0.9
	c-0.4-1,1.7-0.3,1.7-0.8c1.2-0.3,4.2-4.4,3-1.1c0.7,1.1-1.8,0.5-1.3,2.6c1.7,1.7,2.5-3.8,4.8-1.4c0.6,0.5-1.2,0.8-0.4,1.3
	c0.3-0.6,1.4-1,0.9-1.6c1-1.3-1.2-0.6,0.1-1.5c0.2-0.5,1.2-1.7,0.4-2c-1.6-0.2-0.1-1.4-0.4-1.9c-0.3,0,0-0.7-0.1-1
	c0-0.7,1.3-0.3,1.2-1.1c0.2-1.1,1.4,0.5,0.4,1.1c0.2,0.9-0.2,1.4-0.5,2.1c0.6-0.5,2.2-0.2,1.4-1.2c-0.2-0.4,0.1-0.8,0-1.1
	c-0.1-0.7,0.4-0.1,0.7-0.6c-1.2-4,2.6-2.9,1.1-1.6c0.5-0.2,1.4,0.2,1.2,0.8c-0.7,0.3-1.2,1.3-2.1,1l0,0c1.1,1.1,3.3-1,4.3-1.8
	c0.1-1.9,2.1-1.2,0.9,0.1c-0.7,0.2-1.7,1.1-1.4,1.9c0.2,0.7,0.3,1.2,1.1,0.9c0.7-0.2,0.4-1.2,1-1.6c0.4-0.7,2.5-0.3,1.7,0.6
	c0.6-0.5,2.1-2.1,2.1-0.9c-0.7,0.8-1.9,0.3-1.9,1.7l0,0c3.9-1.6,0.4,1-0.7,2c-1.6,0.4,0.6-1.1,0.3-1.6c-8.5,7.5,1.4,1.6,3.9-1.6
	c3.3-0.6,2.9-4.3,6.4-3.7c-0.6,0.3-1.4,0.3-1.5,1.3c-0.5,1.3-3.5,1.5-1.8,3c1.6,1.3-2.6,3.1-2,4.3c1.4,0.9-1.9,1.2-1.5,2.4
	c0.4-1.2,1.8-1.2,2.4-2.2c0-3.1,1.3,0,2.4-0.8c2-0.6,0.9-4,3.3-4.2c0.8,0,1.9-1.6,2.2-0.2c-0.1,0.5,1.8,0.6,1.5,0.1
	c-0.4-1.2,2.4-1,0.1-1.5c-3.7-1.4,2-2.4,1.3-4.3c-0.1-0.1-0.1-0.3,0-0.4c0.7-0.5,1.4,0,2.1-0.1c-1.6,1.8,1,0.7,1.2,1.7
	c-0.6,0.6-3.5,2.9-0.7,2.3c0.6-0.5,2.3-2.9,2.8-2l0,0c0.9,1.4,2.8-1.8,3.9-2.3c-2.2,4.6-3.9,1.6-6.3,4.7c0.3,1.8-7.7,2.5-4.6,5.2
	c-0.8,1.3-1.4-0.4-1.3-1.2c-2.2-0.2,0.5,4.4-1.7,4.2c0,0.3,0.2,0.4,0.4,0.5c1.1-2.1,2.6-1.1,0.3,0.3c-0.2,2.5,3.8-1,4-2.3
	c-0.2,0.2-0.4,0.4-0.7,0.5c0.6-0.8,0.6-0.8,0-0.7c1.1,0.1,6-5.8,4.6-2.4c-0.9,0.9-2,1.4-2.7,2.5c0.6-0.4,1.8-1.9,2.6-1.5
	c2.5-0.4,4.1-5.3,6.8-6.1c0.1,1.7-1.5,2.7-2.9,3c-0.4,2.7-2.8,4.2-5.1,6.5c0.7-0.1,1.1-0.3,1.4,0.5c1.4-0.7-0.6-0.3-0.2-1
	c1.9-2.2,4.9-3.6,7-5.9c-0.2,0-0.3-0.1-0.3-0.3c0.2,0.1,0.4,0.1,0.5,0c0.2-0.6,1.9-0.7,1.2,0.1c1.9,1.5-6.4,4.4-5.6,7
	c0.2-0.1,0.3-0.2,0.5-0.3c-0.3,0.7-3.3,2.4-1.3,0.8c-0.7,0.6-1.7-0.4-2.1,0.5c-0.2,1-1.1,0.6-0.5-0.2c-0.5,0.4-0.7,0-1.1,0.3
	c0.3-0.4,0.7-0.7,1.3-0.9c-0.3-0.2-1,0-1-0.5c-0.2,0.2-0.4,0.3-0.6,0.5l0,0c-1,2.6-5.6,3.6-6.4,6.1c0.9-1,1.6,0.1,1,1.1
	c0.2,0.7-1.5,0.7-0.8,1.4c2.3-1.6,2,0.8,3.9-1.5c-3.8-1.5,1.8-2.4,1.2-4.4c-0.1-0.1-0.1-0.3,0-0.4c0.7-0.6,1.5,0.2,2.2-0.4
	c-0.1,0.1-0.1,0.2-0.2,0.3c0.1,0,0.1,0,0.2,0c-0.1,0.2-0.3,0.3-0.4,0.5c0.4-0.5,2.4-1.9,1.9-0.9c0.9,0.4,1.5-1.1,2.1-0.7
	c0.5,0.3,2-1.3,1.9-0.5c-0.9,1.2-4,3.1-3,4.5c1.6,0.6-1,3-1.1,0.8c-0.9,0.5-0.5,2.1-1.9,1.8c-2.2,7.9,5.2-4.4,7.8-3.2
	c0.5-0.5,6.8-6.7,3.9-6.1c-1.8,0.8-2.1,2.4-3.4,3.8c-0.8,0.6-2.4,0.6-2.4,1.8c-1.2,0.8-1.4-1.9,0.1-2.3c0-0.4,0.8-0.6,0.7-1
	c-1.2-1.1,1.3-0.4,1.9-1.5c0.5-0.2,0.5-1.1,1.2-1.1c0,0.3-0.5,0.6-0.7,0.9l0,0c1.5-0.4,2.2-2.8,3.2-3.9c-1.7-0.6,4.6-6.9,4-3.6
	c0.3-0.2,0.8-0.7,0.8,0c2.7-0.8,0.5-6.8,4.8-5.5c0.3,0.8-0.9,1-1,1.7c3.8-1.2,0.5,2.8-1.3,3.2c0,0-0.1,0.1-0.1,0
	c-0.3,0.1-1.1,0.2-0.8,0.7C686,16.2,692.2,5,692.1,9c-0.7,2.3-5.7,3.2-4.1,6.1c-0.4,1.4,0.4,0,1.2,0.1c-1.1-0.6,0.6-1.3,0.2-0.1l0,0
	c1.4-0.5,1.3-2.2,2.5-3c5.9-3.3,2.8,1.6-0.6,2.8c-1.3,0.5-1.3,2.3-2.7,2.4c-0.7-0.1-1.1,0.6-1.5,1c0.7,1.4-2.9,1.1-1.4,2.2
	c0.7,1-1.8,1.9-1.8,3.2c1.1-0.2,0.7,1.8,0.8,2.6c1.7,1.9-2.4,2.6-3,4c2.6,2.5,5-4.5,8.2-5.2c-0.8-0.9,0.6-4.2,1.2-2.7
	c-0.4,0.6,0.2,1,0.6,1.4C702.1,13,706.5,12.2,692,24c1.1,1,0.3,0.8-0.6,0.9c-0.5,1.4-1.8,1.2-1.6,2.9c-0.7,0.5-0.4-0.9-1.5,0.2
	c1.4,0.7,0.2,1.7-0.6,2.3c2.7,0.5,4.5-3.5,6.5-5c-1.1-0.7,0.3-1.4,0.5-0.2c1.4,1.7-5.4,4.1-4.3,6.8c1.4,0.4,2.8-2.4,4-3.4
	c8.2-4.8-2.3,3.9-3.7,4.8c0,0.1-0.3,0.3-0.3,0.1c-0.8,0.8-2.4,2-3,2.8c0.1,0,0.1,0.1,0.1,0.1c2.6-2.1,1.8,4.6-1.6,2.1
	c-0.1,0.1-0.2,0.3-0.2,0.5c0.4,0,0.7,0.6,0.6,1.1c2.6,0.6,1-1.1,3.6-0.7c0.1-2.8,4.6-3.8,6.1-6.1c0.1-1,1-2,2-2
	c0,0.2-0.1,0.5-0.3,0.6c0.1,0.1-0.5,0.7-0.1,0.6c0.5-0.3,0.6-0.2,0.7-0.1c4.3-4.7,0.5,1.4,3.4-1.1c-0.1,2.3-1.6,2.1-3.1,3.1
	c-0.7,0.8-1,2-2.2,2.2l0,0c0.2,0.7-0.2,2.9-1.4,2.4c-1.1-1.1,0.9-1.4,1.3-2.2c-0.6,0.2-0.3-0.8-0.5-1.2c-0.6,0.8-0.9,1.6-1.8,2.1
	c1.1,0.1-0.4,1.4-0.7,1.9c0.5,1.6-3.6,2.7-4.9,3.9c1.5-0.3,2.6,0.8,1.1,2c3.1-1-0.9,2.3-2,2.7c2.9,0,5.8-4.4,8.2-6.1
	c0.4,1.9-4.1,3-3.4,5c-0.3,1.6,2.8-1.8,3.1-2.4c6.7-3.5-5,4.9-5.5,6.3c0.5-0.4,1-0.8,1.6-1.1l0.1,0.3c-0.6,0.5,0.3,0.8,0.3,1.2
	c0.9-2,3.3-3.9,5-4.6c-0.2,0.8,1.1,0.9,0.3-0.4c1.3-0.3,2.3-2.1,3.3-2.5c-0.1,0.3-0.1,0.7,0,0.9c0.2-0.5,0.1-1.4,0.9-1.5
	c0,0.1,0.1,0.2,0,0.3c0.1-1.6,2.6-0.3,2.8-2.6l0.5,0.5h-0.5c0.4,0.3,0.8,0.5,1.1,0.9c0.2-0.3,0.3-2-0.2-1.1c0.4-1.7,3.3-2.7,4.6-3.5
	c0,0.1,0,0.3,0,0.3c0-1,1.6-1.5,2.2-1.4c0-0.3,0.2-0.6,0.2-0.9L712,36c2-0.6,5.4-4.7,6.1-4c0.1-0.8,0.6-0.7,1-1.2
	c0.1,0.7,0.5-0.2,0.8,0.3c0.1-0.1,0.4-1.1,0.7-0.7c0.5-2,0.3-1,1.9-1.9c0.6-1.4,2-2.2,3.2-2.8c-0.1-2.9,1.4-0.6,2.9-1.6
	c0.2,0.2,0.4,0.3,0.5,0.5c-0.2,0-0.3,0-0.5-0.1c0.4,0.2-0.1,0.4-0.2,0.6c0.6-0.1,1.2,0.4,1.7,0.3c-0.7,0.6-1.5,0.5-1.4,1.6
	c0.1,0.9-1,0.2-1.3,0.9c-0.1,1.4,3.4,2.2,3.3,0.4c-0.5-1.8,2.3-2.2,3.1-3.1c3.9-2.9,0.5-3.6,4.5-2.7c2-0.6,0.9-4,3.3-4.2
	c0.8,0,1.9-1.6,2.2-0.2c1.8,1.7,1.1-1.2,2.5-0.8c0.2-0.6-0.6-0.4-0.9-0.6c-3.7-1.4,2-2.4,1.3-4.3c-0.1-0.1-0.1-0.3,0-0.4
	c0.7-0.5,1.4,0,2.1-0.1c-1.6,1.8,1,0.7,1.2,1.7c-0.2,0.6-3.1,2.1-1.3,2.5c0.6-0.3,1.3-0.4,0.8,0.5c-0.1,1.3-1.5,0.6-2.1,1.1
	c-0.9,0.7-4.7,2.3-2.4,3.7c-0.8,1.3-1.4-0.4-1.3-1.2c-2.2-0.2,0.5,4.4-1.7,4.2l0,0c0.3,0.6,0.9,1,0.7,1.9c0.8-0.2,0.8,0.5,0.1,0.4
	c-0.1,1.6-1.6,3.9,0.3,5.3c1,0.7-2,1.4,0,2c1.3-0.4,2.6-0.7,3.5-1.8c-1.4-0.7,0.1-2.7,1.1-2.9c0.2,1.5-1.8,0.9-0.8,2.8
	c1.2-0.5,2.1-1.8,3.1-2.6c0.6,1.4-3.6,6.2-0.1,4.8V8000H0.1V30.8z M4,27.4c0.4-0.1,0.6-0.6,0.6-1C4.1,26.4,3.9,27.2,4,27.4z
	 M9.8,28.7c0.2,0.1,0.4,0.4,0.5,0.5C11.1,29,9.7,28,9.8,28.7z M5.4,33.1c1.2,0.2,0.8-1.6-0.1-0.5C5.3,32.8,5.2,33,5.4,33.1z
	 M3.1,28.5c0.1,0,0.2-0.1,0.3-0.1C4.7,27.2,3,27.6,3.1,28.5z M2.9,28.9c0.4-0.5-1.6-0.2-1.2,0.6C2.2,29.2,2.5,29.1,2.9,28.9z
	 M1.7,32.7c0.1,0.1,0.4-0.1,0.2-0.2l0,0C1.9,32.5,1.8,32.6,1.7,32.7C1.7,32.6,1.7,32.6,1.7,32.7z M27.6,28.7c0.5,0,0.8-0.4,0.6-1
	C27.7,27.7,27.3,28.3,27.6,28.7z M26.8,29.8c0.4,0,1-0.7,0.6-1C27.1,28.9,26.5,29.4,26.8,29.8z M25.4,30.3c0,0.1,0.1,0.2,0,0.3
	C28,30.4,25.7,28.8,25.4,30.3z M21.5,33.8c0.5-0.6,1.3-1.6,2.1-1.7c1,0,2-2.2,0.3-1.3c-0.3,0.9-2.1,1.9-0.9,0.2
	c-0.4-1.3-1.5,0-1.2,0.9C21.7,32.4,20.4,34.1,21.5,33.8z M19.5,39.1c2,0,2.3-3.1,0.2-0.8C19.4,38.3,18.8,39.1,19.5,39.1z M17.9,36.1
	c0.1,0.1,0.2,0.1,0.3,0C18.6,35.8,17.6,35.8,17.9,36.1L17.9,36.1z M32.3,39.1c0.4-0.1,0.6-0.6,0.6-1C32.4,38,32.2,38.9,32.3,39.1z
	 M38.1,40.4c0.2,0.1,0.4,0.4,0.5,0.5C39.4,40.6,37.9,39.7,38.1,40.4z M33.7,44.8c1.5,0.1,0.5-1.7,0-0.4
	C33.5,44.6,33.5,44.7,33.7,44.8z M31.4,40.2c0.1,0,0.4-0.1,0.4-0.2C33,38.9,31.1,39.5,31.4,40.2z M31.1,40.6
	c0.4-0.4-1.6-0.2-1.2,0.6C30.4,40.9,30.8,40.7,31.1,40.6z M30,44.3c0.1,0.1,0.4-0.1,0.2-0.2l0,0C30.3,44.1,29.8,44.4,30,44.3z
	 M81.4,19.9c0.2-0.1,0.4-0.3,0.4-0.6c-0.5,0.1-1,0.4-1.3,0.8C80.8,20.1,81.1,20,81.4,19.9z M100,16.2c0.8,1.3,1.8,0.3,0.6-0.5
	C100.3,15.6,99.5,15.9,100,16.2C99.9,16.2,100,16.2,100,16.2L100,16.2z M109.6,19.5c0.9,0,0.7-0.9,1.2-1.3c-0.9,0.2-1.3,1-1.8,1.7
	C109.2,19.7,109.4,19.6,109.6,19.5z M107.6,21.6c0.4-0.2,0.4-0.7,0.7-1c-0.5,0.4-0.9,0.9-1.1,1.5C107.2,21.9,107.4,21.8,107.6,21.6z
	 M99.1,24.4c0.1-0.1,0.2-0.3,0.2-0.6c-0.7,0.7-1.2,1.5-2,2C98,25.4,98.6,24.9,99.1,24.4z M95.7,27.2c0.1-0.1,0.1-0.2,0.2-0.3
	C95.7,26.9,95.7,27,95.7,27.2z M105.8,26.7c0.3-0.3,0.8-0.2,0.8-0.7c-0.5,0.2-0.9,0.5-1.2,1l0,0C105.5,26.9,105.7,26.8,105.8,26.7z
	 M103.7,28c0.4,0.3,0.6,0,0.9-0.2c-0.8,0.3-1-0.6-1.6,0.1C103.2,27.9,103.4,28,103.7,28z M126.1,16.4c0.8-0.1,1.3-0.9,1.3-1.7
	C126.7,14.9,125.8,15.7,126.1,16.4z M124.3,18.4c0.9-0.2,1.1-1,1.2-1.8C125,16.9,124.1,17.9,124.3,18.4z M129.2,31.3
	C129.2,31.1,129.2,31.2,129.2,31.3C129.3,31.2,129.4,31,129.2,31.3z M126.1,34.6c0.5-0.3,0.7-0.4,0.3-0.9
	C126.2,33.9,126.1,34.2,126.1,34.6C126.1,34.5,126.1,34.6,126.1,34.6L126.1,34.6z M167.7,24.4c0.3,0.1,0.3-0.4,0.4-0.5
	C167.7,23.6,167.4,24.3,167.7,24.4z M186.8,15.7c0.8,1.3,1.8,0.3,0.6-0.5C187.1,15.1,186.3,15.4,186.8,15.7
	C186.7,15.7,186.8,15.7,186.8,15.7z M212.9,15.9c0.8-0.1,1.3-0.9,1.3-1.7C213.5,14.3,212.6,15.2,212.9,15.9z M211.1,18
	c0.9-0.2,1.1-1,1.2-1.8C211.8,16.5,211,17.4,211.1,18z M214.7,32.1c0.6-0.3,1.4-0.9,1.4-1.7C215.5,30.7,214.7,31.6,214.7,32.1z
	 M212.9,34.1c0.3-0.1,0.4-0.4,0.7-0.5C215.8,31.5,212.9,32.6,212.9,34.1z M222.6,32.8c0.5,0.8,0.8,0.8,1-0.2
	C223.7,31.9,222.3,32.2,222.6,32.8z M278.7,4.7c0.4,0.1,0.4-0.4,0.4-0.7C278.8,4,278.5,4.4,278.7,4.7z M278.4,5.2
	c0.2,0.2,0.3-0.3,0.1-0.4C278.1,4.8,277.7,5.3,278.4,5.2z M286.9,6.4c0.1,0,0.3,0,0.4-0.1C287.7,5.6,286.6,5.8,286.9,6.4z M306,16.3
	C306,16.3,306.1,16.3,306,16.3c0.1-0.2,0.1-0.3,0.2-0.5C305.9,15.6,305.6,16.5,306,16.3z M312.6,26.9c1.5-0.6,0.1-0.6-0.4,0.2
	C312.3,27.1,312.5,27.1,312.6,26.9z M336.1,19.4c0.1,0.1,0.3-0.1,0.4-0.2C337.1,18,335.5,18.6,336.1,19.4z M335.7,20.1
	c0.8-0.3-0.4-0.8-0.5,0.1C335.4,20,335.6,20,335.7,20.1z M532,7.7c0.6,0,0.9-0.4,0.8-0.9C532.4,6.7,531.8,7.4,532,7.7z M530.9,8.8
	c1.5,0,1.1-2.1,0.1-0.4C530.8,8.6,530.8,8.7,530.9,8.8z M529.3,9.5c0.4,0,2.1-0.5,1.3-0.7C529.6,8.6,529.4,8.3,529.3,9.5L529.3,9.5z
	 M562.5,8.3c0.8-0.1,1.4-0.9,1.4-1.7C563.2,6.7,562.3,7.7,562.5,8.3z M560.6,10.3c0.6,0,2.1-1.5,1.4-1.7
	C561.4,8.9,560.4,9.6,560.6,10.3z M551.7,31C551.7,31.1,551.8,31.1,551.7,31L551.7,31c0.4,0.2,0.3-0.2,0.3-0.4
	c-0.1,0.1-0.3,0.2-0.5,0.2C551.6,30.9,551.7,31,551.7,31z M563.4,27.4c0.4-0.1,0.6-0.6,0.6-1C563.5,26.3,563.3,27.2,563.4,27.4z
	 M569.2,28.7c0.2,0.1,0.4,0.4,0.5,0.5C570.5,29,569.1,28,569.2,28.7z M564.8,33.1c1.2,0.2,0.8-1.6-0.1-0.5
	C564.7,32.8,564.6,33,564.8,33.1z M562.5,28.5c0.1,0,0.2-0.1,0.3-0.1C564.1,27.2,562.4,27.6,562.5,28.5z M562.3,28.9
	c0.4-0.5-1.6-0.2-1.2,0.6C561.6,29.2,561.9,29.1,562.3,28.9z M561.1,32.6c0.1,0.1,0.4-0.1,0.2-0.2l0,0
	C561.3,32.4,561.2,32.5,561.1,32.6L561.1,32.6L561.1,32.6z M587,28.7c0.5,0,0.8-0.4,0.6-1C587.1,27.7,586.7,28.3,587,28.7z
	 M586.2,29.8c0.4,0,1-0.7,0.6-1C586.5,28.9,585.9,29.4,586.2,29.8z M584.8,30.3c0,0.1,0.1,0.2,0,0.3
	C587.4,30.4,585.1,28.8,584.8,30.3z M580.9,33.8c0.5-0.6,1.3-1.6,2.1-1.7c1,0,2-2.2,0.3-1.3c-0.3,0.9-2.1,1.9-0.9,0.2
	c-0.4-1.3-1.5,0-1.2,0.9C581.1,32.4,579.8,34.1,580.9,33.8z M578.9,39.1c2,0,2.3-3.1,0.2-0.8C578.8,38.3,578.2,39.1,578.9,39.1z
	 M577.3,36.1c0.1,0.1,0.2,0.1,0.3,0C578,35.8,577,35.8,577.3,36.1L577.3,36.1z M591.7,39.1c0.4-0.1,0.6-0.6,0.6-1
	C591.8,38,591.6,38.9,591.7,39.1z M597.5,40.4c0.2,0.1,0.4,0.4,0.5,0.5C598.8,40.6,597.3,39.7,597.5,40.4z M593.1,44.8
	c1.5,0.1,0.5-1.7,0-0.4C592.9,44.6,592.9,44.7,593.1,44.8z M590.8,40.2c1.3-0.4,0.7-1.6,0-0.2C590.7,40,590.7,40.2,590.8,40.2z
	 M590.5,40.6c0.4-0.4-1.6-0.2-1.2,0.6C589.8,40.9,590.2,40.7,590.5,40.6z M589.4,44.3c0.1,0.1,0.4-0.1,0.2-0.2
	C589.7,44.1,589.2,44.4,589.4,44.3z M640.8,19.9c0.2-0.1,0.4-0.3,0.4-0.6c-0.5,0.1-1,0.4-1.3,0.8C640.2,20.1,640.5,20,640.8,19.9z
	 M659.4,16.2c0.8,1.3,1.8,0.3,0.6-0.5C659.7,15.6,658.9,15.9,659.4,16.2C659.3,16.2,659.4,16.2,659.4,16.2L659.4,16.2z M669,19.5
	c0.9,0,0.7-0.9,1.2-1.3c-0.9,0.2-1.3,1-1.8,1.7C668.6,19.7,668.8,19.6,669,19.5z M667,21.6c0.4-0.2,0.4-0.7,0.7-1
	c-0.5,0.3-0.9,1-1.1,1.5C666.6,21.9,666.8,21.8,667,21.6z M658.5,24.4c0.1-0.1,0.2-0.3,0.2-0.6c-0.7,0.7-1.2,1.5-2,2
	C657.4,25.4,658,24.9,658.5,24.4z M655.1,27.2c0.1-0.1,0.1-0.2,0.2-0.3C655.1,26.9,655.1,27,655.1,27.2z M665.2,26.7
	c0.3-0.3,0.8-0.2,0.8-0.7c-0.5,0.2-0.9,0.5-1.2,1l0,0C664.9,26.9,665.1,26.8,665.2,26.7z M663.1,28c0.4,0.3,0.6,0,1-0.2
	c-0.8,0.3-1-0.6-1.6,0.1C662.6,27.9,662.8,28,663.1,28z M685.5,16.4c0.8-0.1,1.3-0.9,1.3-1.7C686.1,14.9,685.2,15.7,685.5,16.4z
	 M683.7,18.4c0.9-0.2,1.1-1,1.2-1.8C684.4,16.9,683.5,17.9,683.7,18.4z M688.6,31.3C688.6,31.1,688.6,31.2,688.6,31.3
	C688.7,31.2,688.8,31,688.6,31.3z M685.5,34.6c0.5-0.3,0.7-0.4,0.3-0.9C685.6,33.9,685.5,34.2,685.5,34.6
	C685.5,34.5,685.5,34.6,685.5,34.6L685.5,34.6z M727.1,24.4c0.3,0.1,0.3-0.4,0.4-0.5C727.1,23.6,726.8,24.3,727.1,24.4z M746.2,15.7
	c0.8,1.3,1.8,0.3,0.6-0.5C746.5,15.1,745.7,15.4,746.2,15.7C746.1,15.7,746.2,15.7,746.2,15.7z M740.8,21.9c-2.5-1-1,3.1,0,0.3
	C740.9,22,740.9,22,740.8,21.9z M740.9,28.1c-0.1-0.1-0.2-0.2-0.4,0C740,28.6,741.3,28.6,740.9,28.1L740.9,28.1z M736.8,36.2
	c0.6,0.6,1.3,1.1,0.8,1.9c2.3-0.6,1.7-3.2,3.7-4c-0.9,0-0.3-2.3-1.6-1.8c-1.9,0.6-1.7,1.4,0,2.2C739.9,35,735.1,34.4,736.8,36.2z
	 M726.4,31.4c2,2,1.2-3.3-0.2-0.1C726.3,31.3,726.3,31.4,726.4,31.4z M718.5,30.7c0-0.1-0.1-0.2-0.2-0.2c-0.1-0.1-0.5,0.9-0.5,0.9
	C718.1,31.2,718.3,31,718.5,30.7z M689.6,47.4c0.6-0.3,1-0.7,1.2-1.4C690.4,46.2,689.5,46.9,689.6,47.4z M688.1,49
	c0.5-0.3,1.1-0.9,1.3-1.4C689.1,47.6,688.1,48.6,688.1,49z M686.9,49.9C686.9,50,687,50,686.9,49.9c0.4,0,1.4-0.8,0.8-0.7
	C687.3,49.4,686.3,49.3,686.9,49.9z M684.1,50.7c0.2-2.1,2.4-3,2.5-5c-1.4,0.8-1.8,2.7-3.2,3.7c-0.2,0.6-0.1,1.2-0.4,1.7
	C683.3,50.9,683.8,50.5,684.1,50.7L684.1,50.7z M683.6,52.7c0.2,0,0.2-0.3,0.2-0.5c-0.2,0.1-0.3,0.3-0.5,0.5
	C683.4,52.7,683.5,52.8,683.6,52.7z M683.1,52.4c0.2-0.2,0.3-0.4,0.3-0.6C683,51.6,682.9,51.9,683.1,52.4z M660.3,31L660.3,31
	L660.3,31L660.3,31z M660.5,36.8c-0.2,0.1-0.4,0.2-0.4,0.5c0.3-0.2,0.7-0.4,1-0.7C660.8,36.7,660.6,36.7,660.5,36.8L660.5,36.8z
	 M668.5,46.8C668.5,46.9,668.5,46.9,668.5,46.8L668.5,46.8L668.5,46.8C668.7,46.8,668.6,46.8,668.5,46.8z M669.2,35.6
	C669.2,35.6,669.2,35.7,669.2,35.6C669.2,35.7,669.2,35.7,669.2,35.6L669.2,35.6L669.2,35.6z M670.2,28.9c-0.1,0.2-0.1,0.4-0.2,0.6
	c0.8,0.4,1-0.5,1.4-1C671,28.7,670.6,28.9,670.2,28.9z M670.9,36.2c0.1-0.2,0.1-0.3,0-0.5C670.9,35.9,670.7,36.1,670.9,36.2z
	 M671.4,32.6c-0.1,0.1-0.1,0.3-0.2,0.4l0,0C671.3,32.8,671.7,32.7,671.4,32.6z M671.7,28.3L671.7,28.3c0.3,0.3,0.4-0.3,0.6-0.4
	C672.1,28.1,671.9,28.2,671.7,28.3L671.7,28.3z M672.8,33.1c-0.2,0.1-0.3,0.3-0.5,0.4c0.3,0,0.6-0.3,0.6-0.6
	C672.9,33,672.8,33.1,672.8,33.1z M673.8,26.1c0-0.1,0-0.1,0-0.2C672.6,26.6,673.9,27.4,673.8,26.1z M674.9,24.3
	c-0.2,0.2-0.4,0.6-0.6,0.9C674.7,25.2,674.9,24.7,674.9,24.3z M675.3,23.6c0.7,0.2,0.8-0.8,1.3-0.9c0,0.1-0.1,0.3-0.1,0.4
	C679.4,20,675.9,20.1,675.3,23.6L675.3,23.6L675.3,23.6z M677.1,17.4c0.2-0.1,0.3-0.2,0.3-0.4C677.3,17.1,677.2,17.3,677.1,17.4
	L677.1,17.4z M677.4,18.4c-0.4,1-1.6,1.8-2.1,2.7c2.2-1.2,3.5-1.2,3.4-3.7C678.1,17.5,677.6,17.9,677.4,18.4L677.4,18.4z
	 M680.5,20.7c-1.4-0.8-1.9,1.6-3,2.2c0.1,0.1,0.2,0.2,0.2,0.3C678.6,23,680.3,21.8,680.5,20.7L680.5,20.7z M683.2,19.2
	C683.2,19.2,683.3,19.2,683.2,19.2C683.3,19.2,683.3,19.1,683.2,19.2C683.3,19.1,683.3,19.1,683.2,19.2c0.7-1-0.5-0.4-1-0.6
	c-0.9-0.2-0.8,0.9-1,1.4C682,19.9,682.6,19.6,683.2,19.2z M682,36.9L682,36.9C681.9,36.9,682,36.9,682,36.9z M681.5,32.4
	c0.3-0.1,0.4-0.6,0.7-0.8C681.6,31.1,680.6,31.6,681.5,32.4z M681.8,28.5c0.2,0,0.4-0.2,0.3-0.4c-0.1-0.5-1.4,0.3-1.4,0.8
	C681.1,28.7,681.4,28.6,681.8,28.5z M679.7,54c0.2,0,0.3-0.1,0.5-0.1C680.1,53.9,680,53.9,679.7,54C679.7,53.9,679.6,53.9,679.7,54
	L679.7,54L679.7,54z M680.2,32.4c-0.3-0.1-0.5,0-0.7,0.1C679.6,32.7,679.9,32.6,680.2,32.4z M679.3,39.5c0.1-0.2,0.6-0.4,0.3-0.6
	c-0.7,0.6-1,0.9-1.4,1.6C678.7,40.2,678.9,39.9,679.3,39.5z M678.5,39.3c0,0.1,0,0.1,0,0.2C678.5,39.4,678.6,39.4,678.5,39.3
	c0.3,0,0.4-0.2,0.6-0.3C678.9,39,678.5,38.8,678.5,39.3z M678.5,33.7c-0.3-0.1-0.3,0.1-0.4,0.3C678,34.7,679,34,678.5,33.7
	L678.5,33.7L678.5,33.7z M678.7,33.6c0.5,0.6,0.8-0.6,0.4-0.8C678.9,33,678.7,33.3,678.7,33.6L678.7,33.6z M677.7,55
	c0.5,1.6,1.6-0.5,0-0.7C677.5,54.5,677.8,54.6,677.7,55z M677.6,34.9c0.3-0.1,0.2-0.3,0.2-0.5C677.7,34.6,677.7,34.8,677.6,34.9
	L677.6,34.9L677.6,34.9z M677.5,40.2C677.5,40.1,677.5,40.1,677.5,40.2c0-0.2-0.1,0.3-0.2,0.3C677.4,40.4,677.4,40.3,677.5,40.2z
	 M676.6,30.6c1,0.1,2.5-0.1,2.1-1.4c0.1-1.6,3-1.7,2.8-3.8c-0.9,1.4-2.7,0.7-3.7,2c0.2,0.8,2-1.1,1.5-0.1
	C679,29,674.2,30.9,676.6,30.6z M676.1,42.6c-0.2,0-0.3-0.1-0.3-0.3C674.7,43.3,675.2,43.6,676.1,42.6z M674.3,56.3
	c2.1-0.7,1.9-2.4-0.3-0.6C674,56,674.1,56.2,674.3,56.3z M672.2,46.7C672.2,46.7,672.3,46.7,672.2,46.7c0.3-0.3,1.4-1,1.1-1.3
	c-0.3-0.2,2.1-2.3,0.3-1.4c-1.2,0.5,1.3-1.3,1.3-1.8c-0.9,0.5-2.2,0.7-2.9,1.8c0,0.4,0.1,0.7,0.2,1.2c-0.6-0.9-2.7-0.3-1.8,0.8
	C671.2,45.8,673.1,46,672.2,46.7z M668.6,60.2c1.1-0.3,1.7-1.3,2.8-1.9c-0.3,0.4-0.7-0.6-1-0.2C670.1,58.9,667.6,59.4,668.6,60.2z
	 M667.6,31c-0.3,0.6,0.4-0.1,0.6-0.2C667.9,30.9,667.7,30.9,667.6,31L667.6,31z M667.5,37.7c0-0.1,0-0.1,0-0.2V37.7
	c-0.2-0.1-0.2,0-0.2,0H667.5C667.4,37.7,667.4,37.7,667.5,37.7L667.5,37.7z M666.2,39.9c0.1,0.1,0.2,0.3,0.1,0.4
	c0.4-0.2,0.9-0.7,0.9-1.1c-0.4,0.2-0.7-0.1-1-0.2c-0.2,0.1-0.1,0.6-0.4,0.8C665.9,39.8,666.1,39.8,666.2,39.9z M665.3,40.6
	c0.1-0.2,0.3-0.5,0.5-0.6c-0.2,0.1-0.5,0.1-0.7,0c0,0.2,0.1,0.4-0.1,0.5C665.1,40.5,665.2,40.5,665.3,40.6z M665.6,37.8
	c-0.1,0.1-0.1,0.2-0.2,0.3l0,0c1,1.2,2.1-2.9,0.8-1.3c-0.2,1-1.1,0.6-0.5-0.2c-0.5,0.4-0.7,0-1.1,0.3c0.6-0.7,1.5-0.7,1.8-1.5
	c-0.5-0.1,0-0.9,0.4-0.8c0.8,0,0.5-1,1-1.4c-0.2,0-0.6,0.1-0.8,0.1c-0.9,1.7-4.8,4.4-5.7,6.4c0.7-1,2-0.9,2.8-1.7
	c0.1,0.3-0.6,0.8-0.1,1C664.5,38.7,665,38.1,665.6,37.8z M663.7,47.4c0,0.2,0.1,0.4,0.1,0.6c0.8-0.2,0.4-0.7-0.2-0.9
	C663.6,47.2,663.6,47.3,663.7,47.4z M659.3,52.1c1,0.1,0.1-0.6-0.2,0C659.1,52,659.2,52,659.3,52.1z M659.5,50.3
	c-0.1,0-0.2-0.1-0.3-0.1C659,50.5,659.4,50.4,659.5,50.3L659.5,50.3z M658.5,43.9c1.5-1.2,6.3-2.4,2.5-3.6c-0.6,0-0.9,0-1.4,0.5
	C662.2,39.8,659,43.4,658.5,43.9z M656.2,39.8c0.1,0,0.1,0,0.2,0.1C659.4,37.5,656.5,37.1,656.2,39.8L656.2,39.8z M654.1,22.4
	c-0.5-0.6-1.7,0.3-1.4,1C653.3,24.1,654.4,23.2,654.1,22.4z M654.1,28.6c-0.2,0-0.5,0.1-0.5,0.3C653.9,29.1,654.3,28.9,654.1,28.6
	L654.1,28.6z M653.2,35.2c-0.2-0.9,0.9-1.4,0.7-2C653.1,33.3,651.5,34.8,653.2,35.2C653.1,35.1,653.1,35.1,653.2,35.2L653.2,35.2z
	 M651.6,36.3c0.3-0.1,0.8-0.8,1.1-0.5c0.3,0.2,0.4,0.1,0.5-0.3C652.7,34.8,651.2,35.6,651.6,36.3z M649.9,36.4
	c0.3-0.1,0.7-0.3,0.8-0.7C650.3,35.6,649.7,36,649.9,36.4z M639.4,24.3C639.4,24.2,639.4,24.2,639.4,24.3c-0.2-0.2-0.4-0.1-0.5-0.1
	C639.1,24.3,639.2,24.3,639.4,24.3z M637.6,19.6c0.4,0,0.7-0.4,0.5-0.8C637.8,18.8,637.3,19.3,637.6,19.6z M636.9,20.7
	c1.1-0.1,0.7-1.9,0-0.3C636.8,20.5,636.8,20.6,636.9,20.7z M635.7,21c0,0.1,0,0.2,0,0.3c1.2-0.1,1.4-0.8,0.2-0.8
	C635.7,20.7,635.6,20.9,635.7,21z M624,29.8c-0.1,0-0.1,0-0.2,0l0,0C623.9,29.9,624,29.9,624,29.8z M624.4,28.8
	c-0.1-0.1-0.2-0.1-0.3,0l0,0l0,0c0.1,0.1,0.3,0.3,0.4,0.4C624.6,29,624.5,28.9,624.4,28.8L624.4,28.8L624.4,28.8z M629.2,26
	c0,0.2,0,0.4,0.2,0.2C629.6,26,629.5,26,629.2,26L629.2,26z M631,28.3c-0.5,0.1-1.6,0.9-0.3,0.8C630.6,28.8,631.4,28.5,631,28.3
	L631,28.3z M633.3,23.1c0.6-0.2,3.4-2,1.3-1.8c-0.1,0.4-0.6,1.2-1.1,1.1c0.6-3.2-1.4,0.5-1.5,1.7l0,0c0.1,0.1,0.3,0.1,0.3-0.1
	c0.3-0.3,0.5-0.7,0.8-1C633.2,23.2,633.3,23.2,633.3,23.1z M629.4,35.6c0.2,0.2,0.2,0.5,0.4,0.7c-0.1-0.4,0.2-0.7,0.2-1.1
	C629.8,35.5,629.1,35.2,629.4,35.6z M623.5,32.5c0.7,0.2,0.2,0.9,0.4,1.5c1.2-0.2,1.8-1.2,2.9-1.8c-0.9-0.9-0.4-0.7,0.4-1.2
	c-1.2-0.5,0.3-1.1,0.9-1.2c0.4-0.4,0,0.8,0.4,0.9c1.5,0.5,0.1,1.2,0.5,1.9c0.7,0.1-0.2,0.5-0.2,0.8c1.1-0.9,3.2-1.7,3.5-3.1
	c-0.1,0.4-0.9,0.5-0.5,0.2c0.2-0.1,0.3-0.2,0.4-0.4c0.4-0.9,0.2-0.9-0.7-0.5c-0.7,0.5-2.3,0.3-1.5,1.4c-0.6-0.2-0.8-0.8-0.6-1.5
	c-0.7-0.4-0.7-0.9,0.1-1.3c-0.7-1.9-1.6,0.7-2.5,0.8c-0.7,1.2-0.9-0.9-1.7,0l0,0c0.1,0.2-0.4,0.6,0,0.6c-0.6,1-2,2-2.5,3.2l0,0
	C623.3,32.5,623.4,32.5,623.5,32.5z M620.8,35.8c0.9-0.7,0.9-0.8-0.1-0.5l0,0C620.8,35.5,620.5,35.9,620.8,35.8z M619.8,33.4
	c0.2,0.7,0.3,1.1,1.2,0.9C620.5,33.8,619.7,31.3,619.8,33.4L619.8,33.4z M619.2,39.8c0.1,0.1,0.3,0.1,0.4,0.1
	C620,39.4,618.7,39.1,619.2,39.8z M619,34.3L619,34.3c0.2-0.3,0.3-0.6,0.6-0.9C619.3,33.4,618.8,34,619,34.3z M618.5,34.7
	c0.9-0.6-0.2-0.4-0.3,0.2C618.3,34.8,618.4,34.8,618.5,34.7z M617.1,35.7c0,0.1,0,0.1,0,0.2c0.2-0.2,0.4-0.4,0.7-0.6
	C617.4,35.1,616.9,35.2,617.1,35.7z M615.3,36.9C615.3,37,615.4,37,615.3,36.9c0.9,0.4,0.6-1,1.2-0.8
	C615.8,35.6,615.8,36.5,615.3,36.9L615.3,36.9L615.3,36.9z M614.4,36.7c1.6-0.8-0.7-1.4-0.5,0.1C614.2,36.9,614.4,36.8,614.4,36.7z
	 M613.5,36.8c-0.3-0.3-0.5-0.2-0.8-0.4C612.3,36.8,613.3,36.7,613.5,36.8z M611.1,39.7c0.2,0.1,0.5,0.5,0.7,0.2
	c0.1-0.6,0.7-0.3,1.1-0.5c0.5-0.9-1.3-0.1-0.3-0.8c-0.6-0.1-0.7,0.9-1.4,0.9C611.2,39.5,611.2,39.6,611.1,39.7L611.1,39.7
	L611.1,39.7z M601.8,45c0.2,0.2,0.6-0.1,0.5-0.5C602.1,44.6,601.6,44.8,601.8,45L601.8,45z M599.9,49c0.6,0.4,0.2-0.3,0.4-0.6
	C600.1,48.6,599.7,48.7,599.9,49z M599.8,46.9c0.6-0.3,1.6-0.7,1.5-1.4c-0.2,0.4-1.7,1.4-1.1,0.5c-0.5-0.2-0.6,0.7-0.6,1
	C599.7,46.9,599.8,46.9,599.8,46.9z M587.8,52.1c0.1,0,0.1,0.1,0.2,0.2C588.4,52.1,587.6,51.6,587.8,52.1z M586.1,43.3
	c0.7,0.6,4.6-3.4,1.9-1.6c-0.3,0.2-1.2,1.3-1.1,0.7c1.3-1.8-1-0.5-1.1,0.8C586,43.2,586.1,43.3,586.1,43.3z M585.2,44.4
	c0.2,0,0.4-0.1,0.5-0.3C585.4,43.8,585,44.1,585.2,44.4z M582.1,46.7L582.1,46.7C582.2,46.7,582.2,46.7,582.1,46.7
	c0.1-0.2,0.1-0.2,0.2-0.3C582,46.3,582,46.6,582.1,46.7L582.1,46.7z M571.1,40.1c0,0.1,0,0.1,0,0.2
	C572.5,39.4,571.1,38.1,571.1,40.1z M557.8,31.6c0.7,0.6,4.6-3.4,1.9-1.6c-0.3,0.2-1.2,1.3-1.1,0.7c1.3-1.8-1-0.5-1.1,0.8
	C557.7,31.5,557.8,31.6,557.8,31.6z M556.9,32.7c0.2,0,0.4-0.1,0.5-0.3C557.1,32.1,556.8,32.4,556.9,32.7z M553.9,35L553.9,35
	C554,35,554,35,553.9,35c0.1-0.2,0.1-0.2,0.2-0.3C553.9,34.6,553.6,34.9,553.9,35z M546.2,25.9c-0.5,0.1-0.6-0.7-1.2-0.1
	c2.4,1.3,3.8-4.8,0.9-0.1C546,25.9,546.4,25.7,546.2,25.9L546.2,25.9z M544.8,27.7c0.1,0.5,0.6-0.1,0.8-0.2
	C545.3,27.5,545,27.5,544.8,27.7L544.8,27.7z M548,19.9c0.3-0.4,0.8-0.6,0.8-1.2c-0.9,0.9-2.8,1.2-1.8,2.4l0,0
	c0.1,0.2-0.1,0.4-0.1,0.5c0.3-0.2,1.5-0.9,1.1-1.3C547.7,20.3,547.8,20.1,548,19.9z M549.4,16.8c0.4-0.9,2.8-2.5,0.7-2.7
	c-0.7,0.6,1.2,0.9-0.8,2.2c0.6,0.8-1.1,0.4-1,1.4l0,0C548.8,17.6,549.3,17.4,549.4,16.8z M549.1,24.4c0.1,0.1,0.2,0.1,0.3,0
	C549.8,24,548.7,24.2,549.1,24.4z M547.8,18.1c-0.7,0-0.9,0.9-1.3,1.3c0.4-0.1,0.8-0.6,1.2-0.8C547.7,18.4,547.8,18.1,547.8,18.1z
	 M546.6,9.3c-0.6,0-0.6,0.8,0,0.7c-0.1-0.5,0.5-0.5,0.7-0.9C547.1,9.3,546.8,9.3,546.6,9.3L546.6,9.3z M548.6,12.7
	c-1.3,0-1.8-0.1-2,1.4C547.1,13.9,549.7,13.2,548.6,12.7L548.6,12.7z M550.6,10.8c-0.7,0.3-1.6,1-1.5,1.8
	C549.8,12.5,551,11.3,550.6,10.8L550.6,10.8z M551,10.1c-0.3,0.9,0.1,0.1,0.2-0.3C551.1,9.9,551.1,10,551,10.1L551,10.1z
	 M552.1,12.6c0.4-0.1,0.8-0.5,1.2-0.6C552.8,11.9,552.4,12.2,552.1,12.6L552.1,12.6z M554.1,7.1c0-0.1,0.1-0.2,0.2-0.3
	c-0.4,0.5-1.1,0.7-1.3,1.4C553.5,8,553.9,7.6,554.1,7.1z M554.8,11c-0.1,0.2-0.2,0.3-0.3,0.4c0.7,0.2,0.9-0.6,0.9-1
	C555.2,10.5,555,10.7,554.8,11L554.8,11z M560,11.1c1.2-1-2.3-0.9-2,0.8C558.7,11.6,559.4,11.4,560,11.1z M558.8,17
	c0.5,0,0.8-0.4,0.6-1C558.9,16,558.5,16.6,558.8,17z M558,18.1c0.4,0,1-0.7,0.6-1C558.3,17.2,557.7,17.7,558,18.1z M556.6,18.6
	c0,0.1,0.1,0.2,0,0.3C559.8,18.3,556.1,17.4,556.6,18.6z M556.5,13c0.1,0.1,0.1,0.2,0.1,0.3c1.6-1.2-0.2-1.8-0.9-0.5
	C556,12.8,556.3,12.8,556.5,13z M554.8,20.4c0.5,0,1.8-1.2,1-1.5c-0.4,0.5-0.6,1-1.2,1.4C554.7,20.4,554.7,20.4,554.8,20.4z
	 M553.6,19.6c1-0.5,0.1-0.5-0.3,0.1L553.6,19.6z M553.4,15.4c0.3-1,1.9-0.3,1.1-1.3c-0.2,0.5-1.8,1.4-1.1,0.3c1.8-1,0.5-2.7-0.7-0.9
	c-0.7,1.3-1.2,2.9-2.5,4c0.7-0.3,0,0.8-0.4,0.7c0.6,0.5,1.1-0.7,1.6-1c-0.1-1.1,1.5-0.7,1.7-1.9C553.1,15.2,553.2,15.3,553.4,15.4z
	 M552.7,22.1c0.1-0.1,0.2-0.2,0.3-0.3c-0.3,0-0.4,0-0.7,0C552,22,552.6,22.5,552.7,22.1z M550.9,26.8c0.6,0,0.2,0.4,0.1,0.7
	c2.3-1.4,1-2.4-0.6-0.5C550.6,26.8,550.8,26.8,550.9,26.8z M551.6,23.8c0.2,0,0-0.2-0.1-0.3c0,0,0,0-0.1,0
	C551.5,23.6,551.6,23.7,551.6,23.8L551.6,23.8z M550.2,23.5C550.2,23.5,550.2,23.4,550.2,23.5c0.4-0.3,0.9-0.3,1.2,0
	c0.8-1.8-0.3-0.4-0.6-1.2c-0.5,0.2-0.8,0.6-1.2,1C549.9,23.3,550,23.4,550.2,23.5z M547.9,28.2c0.1,1,2.2-2.2,1.9-2.5
	c-0.9,1-2.8,0.7-3,2.4c0.2-0.1,0.3,0.1,0.1,0.3C547.1,28.9,547.6,28.3,547.9,28.2z M547.1,30.6c0.6-0.3,0.3-0.7,0-1
	c-0.1,0.4-0.2,0.8-0.4,1.1C546.7,30.7,546.9,30.7,547.1,30.6z M545.8,28.7L545.8,28.7c0.4-0.1,0.8-0.4,0.8-0.8
	C546.3,27.9,545.8,28.4,545.8,28.7z M544.8,29.7c0.4-0.1,0.9-0.3,0.9-0.8C545.6,28.6,544.5,29.4,544.8,29.7z M544.3,29.8
	c0.1,0.1,0.1,0.1,0.2,0.2C544.7,29.8,544.6,29.6,544.3,29.8C544.4,29.7,544.3,29.7,544.3,29.8L544.3,29.8L544.3,29.8z M543.2,13.6
	c0.4,0.1,0.7-0.2,0.7-0.5C543.6,13.3,543.4,13.5,543.2,13.6L543.2,13.6z M542.8,21.5L542.8,21.5c0.4-0.5,0.8-0.8,1.3-1.1
	c-0.5,0.1-0.9,0.6-1.3,0.9C542.7,21.4,542.7,21.5,542.8,21.5z M542.3,24.2L542.3,24.2L542.3,24.2C542.3,24.2,542.2,24.2,542.3,24.2
	C542.2,24.2,542.3,24.2,542.3,24.2L542.3,24.2z M542,21.9c0.2-0.1,0.3-0.2,0.5-0.3c-0.1,0-0.1,0-0.2-0.1
	C542.2,21.7,542.1,21.8,542,21.9L542,21.9L542,21.9z M534.8,16.7c0,0.1-0.1,0.2-0.2,0.3c0.1,0,0.1,0,0.2,0.1
	C534.7,16.7,535.4,16.1,534.8,16.7L534.8,16.7z M539.6,16.8c0-0.3-0.2-0.2-0.2,0C539.4,16.7,539.5,16.8,539.6,16.8z M538.1,15.5
	c0.8-0.9-0.2-2.2,1.6-2.1c-0.8-0.2-0.4-0.3-0.2-1.1c-1.2,1.4-2.8,2.4-3.6,3.9c0.7-1,1.4-0.8,1.3,0.4c-0.7,0.1-0.8,0.4-0.7,1.1
	C537.9,17.3,537.5,16.7,538.1,15.5z M537.9,18.5c0.3-1.1-1.1-0.6-1,0.2C537.2,18.5,537.7,18.7,537.9,18.5z M537.5,19.4
	c-0.6-0.7-0.5,0.6,0.2,0.2C537.5,19.5,537.5,19.5,537.5,19.4z M535.3,22L535.3,22c0.3,0,0.4-0.6,0.8-0.3
	C538.3,20.1,536.1,20.9,535.3,22C535.3,21.9,535.3,21.9,535.3,22L535.3,22L535.3,22z M534.6,20.8c1.3-0.2,1.1-1.7,0-0.3
	C534.6,20.6,534.5,20.7,534.6,20.8z M534.3,21.2c0.6-0.6-0.6-0.5-0.6,0.1C533.9,21.3,534.1,21.2,534.3,21.2z M532.6,19.1
	c0.1-0.1,0.6-0.2,0.6,0.1c0.9-0.1,1.4-0.6,1.9-1.2C535.4,17.9,532.7,18.9,532.6,19.1L532.6,19.1z M524.1,12.6
	c1.2-0.2,2.1-1.9,3.5-1.8c1.1-0.4,1.5-2.1,0-1.2c-0.1,0.3-1.2,1.3-1.6,1.1c-0.4-0.4,1-0.6,0.4-1.3c-1.4-1.3-1.3,2.3-2.4,2.8
	C524.1,12.3,524,12.5,524.1,12.6z M521.4,17.9c0.7-0.6,1.5-1,2.1-1.5C523.1,16,521.2,17.4,521.4,17.9z M520.3,14.4
	c-0.2,0.2,0.2,0.4,0.3,0.2C520.8,14.4,520.7,14.4,520.3,14.4L520.3,14.4z M520.3,16.8c0.7,0.2,1.2-0.7,0.2-0.8
	C520.5,16.3,520.6,16.6,520.3,16.8C520.3,16.7,520.3,16.8,520.3,16.8C520.1,16.9,520.2,16.9,520.3,16.8
	C520.3,16.9,520.3,16.9,520.3,16.8L520.3,16.8z M519.6,21.8c0.1,0-0.1-0.4-0.3-0.4C519.3,21.6,519.4,21.8,519.6,21.8z M519.2,16.5
	c0.4-0.1,0.4-0.5,0.6-0.8c-0.3-0.1-0.8,0.5-0.8,0.9C519,16.6,519.1,16.6,519.2,16.5z M515.6,17.9c0.2,0.1,0.2,0.2,0,0.3
	c0,0.8,0.8,0.6,0.9,0.1c0.2-0.6,1.2-0.3,1.7-0.9c-0.5-0.3-1.1,1.1-1.4,0.4C516.8,16.7,514.8,17.3,515.6,17.9
	C515.5,17.9,515.5,17.9,515.6,17.9L515.6,17.9z M513.8,17.2c-0.5-0.3-1.1,0.7-0.7,1C513.4,18.2,514.1,17.4,513.8,17.2L513.8,17.2z
	 M513.3,20.9c0.5-0.3-0.1-0.5-0.4-0.6c-0.3,0.2-0.3,0.5-0.5,0.7C512.7,21,513,21,513.3,20.9z M505.4,22.7c0.6,0.3,0.8-0.7,1.3-0.6
	C506.7,21,505.5,22.4,505.4,22.7z M501.3,25.3c0.4,0.1,1-0.1,1-0.7C501.9,24.7,501,24.8,501.3,25.3z M500,26.6
	c0-0.3,0.7-0.4,0.7-0.4c0-0.2,0-0.3,0.1-0.5c-0.2,0.2-1.8,1.3-1.1,0.4C498.7,25.6,499.4,27.8,500,26.6z M499,29.1
	c0.5,0.5,0.1-0.2,0.4-0.5C499.2,28.8,498.9,28.7,499,29.1z M489.2,15.4c0-0.1-0.1-0.1-0.2,0C488.8,15.8,489.5,15.6,489.2,15.4
	L489.2,15.4z M494.7,25.3c0.8,0.4,1.4-2.2,0.4-1.4C495,24.4,494,25,494.7,25.3z M490.5,22.3c1.3,4.3,6.4-0.9,5.4-3.1
	c-0.5-2.4,0.7-1.5-1.8-1.9c-0.2-0.1-0.6,0.2-0.5,0.5c0.1,0.7-0.8,0.7-0.6,1.4c-0.4,1.8-3.4,2-3.4,3.4
	C489.7,23.1,490.3,22,490.5,22.3z M488.6,26.8c0.1,0.2,0.1,0.2,0.2,0.4c-0.2-1.5,1.3-0.8,1.4-1.6c0-0.3,0.2-1.3-0.3-0.9
	c-0.2,0.6-1.6,0.5-1.3,1.3c0.1,0.2,0.1,0.4,0,0.6c0,0,0,0-0.1,0C488.6,26.8,488.6,26.8,488.6,26.8L488.6,26.8z M488.3,14.1
	c0.3,0.4,1-0.2,0.3-0.3c-0.1-0.1-0.3-0.1-0.4,0S488.1,14,488.3,14.1C488.2,14.1,488.3,14.1,488.3,14.1L488.3,14.1z M485.7,16.6
	c-0.2-0.4-0.5,0.1-0.7,0.3C485.2,17.7,486,17,485.7,16.6L485.7,16.6z M486.2,17.4L486.2,17.4C486.1,17.4,486.2,17.4,486.2,17.4z
	 M487.7,29.5c-0.1-0.1-0.2-0.1-0.3,0c-0.3,0.4,0.2,0.4,0.5,0.2C487.8,29.7,487.8,29.6,487.7,29.5L487.7,29.5z M485.5,33.9
	c0,0.5,0.5,0.7,0.6,0.1c-0.7-0.9,1.6-1.6,2-2.8c-0.2,0.1-0.5,0.2-0.8,0.1C486.7,31.7,484.9,33.3,485.5,33.9
	C485.4,33.6,485.5,33.7,485.5,33.9L485.5,33.9z M485.4,35.3c-0.1,0-0.2,0-0.3,0.1c0,0,0,0,0,0.1C485.2,35.5,485.3,35.4,485.4,35.3z
	 M484.8,31.5c1.4-0.6,0.6-1.1-0.2,0.1C484.7,31.5,484.8,31.5,484.8,31.5z M477.4,10.1L477.4,10.1c0.5,0.3,0.5-0.3,0.3-0.6
	C477.4,9.2,477.2,9.8,477.4,10.1z M475.8,8.5c0.2,0.4,1.1,0.8,1,0.1C476.6,7.3,478.7,8,479,7c-0.6-0.1-2-0.9-2.1,0.2
	C477,8,475.4,7.6,475.8,8.5L475.8,8.5z M454.6,11.6c0.1-0.5,1.4-0.6,1.3-1.1c-0.3,0.1-0.8-0.2-0.8,0.2
	C455.2,11.1,453.9,11.4,454.6,11.6z M452.7,12.4c0.1,0.1,0.1,0.1,0.2,0c0.1-0.2,0.4,0,0.4-0.2l0,0C453.1,11.7,452.8,12.2,452.7,12.4
	C452.7,12.3,452.6,12.4,452.7,12.4L452.7,12.4L452.7,12.4z M451.6,17.9c0.1,0.2,0.5-0.3,0.6-0.4C451.8,17.5,451.5,17.4,451.6,17.9z
	 M450.8,13.8c0.2-0.3,0.8-0.3,1-0.5c0.4-0.2,0-1.4-0.4-0.9c-0.1,0.5-0.3,0.4-0.7,0.6c-0.3,0.3-0.5,1-1,0.9c-0.6-0.1-0.3,0.6-0.5,0.7
	c-0.5,0.1-0.1,0.7-0.3,0.8l0,0c0,0,0,0,0,0.1c0.8,0.1,1.2-0.7,1.7-1.2C450.5,14.2,450.7,14,450.8,13.8L450.8,13.8z M449.3,18.2
	c-0.8,0.4,0.4,0.4,0.5-0.2C449.5,17.7,449.6,18.2,449.3,18.2L449.3,18.2z M449.4,17.4c-0.1-0.5-0.9,0.4-0.3,0.4
	C449.2,17.7,449.4,17.5,449.4,17.4z M450.2,20c0.1-0.1,0.5-0.3,0.5-0.4C450.4,19.5,450.2,19.8,450.2,20z M450.5,18.9L450.5,18.9
	C450.5,18.8,450.5,18.8,450.5,18.9c-0.2-0.1,0-0.3-0.2-0.3C448.9,18.7,449.3,19.8,450.5,18.9z M448.9,20.4c0.5,0.2,0.5-0.3,0.6-0.6
	c-0.4,0.6-0.4,0-0.8,0.3C448.5,20.3,448.7,20.3,448.9,20.4z M448.2,19.4C448.3,19.4,448.3,19.3,448.2,19.4c0.1-0.3-0.1-0.2-0.3-0.5
	c0,0.2-0.1,0.4-0.1,0.7C448,19.5,448.1,19.4,448.2,19.4z M448.6,18.2c-0.1,0.1-0.4,0.1-0.6,0.1C447.6,18.6,448.3,18.5,448.6,18.2z
	 M446.6,17.6c0.4-0.2,0.4,0.2,0.4,0.4c0-1.1,2.1-0.6,1.9-1.8c-1-1.5-1.6,0.8-2.5,1C445.4,17.6,446.3,17.8,446.6,17.6
	C446.6,17.5,446.6,17.6,446.6,17.6L446.6,17.6z M446.5,23.9C446.5,23.7,446.5,23.9,446.5,23.9C446.4,23.9,446.4,23.9,446.5,23.9
	L446.5,23.9L446.5,23.9z M446.1,23.4c0-0.1,0.1-0.2,0.1-0.3C446,23.1,446.1,23.3,446.1,23.4z M443.7,20.1c1-0.2,2.1-1.3,2.7-2.1
	c-0.7,0.6-1.1,0.4-1.7,1.2C445.7,19.2,443.7,19.8,443.7,20.1C443.7,20.1,443.7,20,443.7,20.1L443.7,20.1z M442.4,21.2
	c0.2-0.1,1.3-0.8,0.9-0.8C443,20.5,441.6,21.8,442.4,21.2z M440.6,25.5c0.7,0.2,0.7-0.5,1.2-0.8C442.1,23.4,440.5,25,440.6,25.5z
	 M439.1,25.3c0.7-1.7,1.2-0.3,1.5-1.9C440.2,23.8,438.5,25.3,439.1,25.3z M438.4,25.9C438.4,25.8,438.4,25.8,438.4,25.9
	C438.4,25.8,438.4,25.8,438.4,25.9C438.3,25.8,438.3,25.8,438.4,25.9c-0.1,0-0.2,0.1-0.2,0.1C438.2,26,438.3,25.9,438.4,25.9z
	 M437,27.3c0.1-0.1,0.8-0.5,0.6-0.7C437.2,26.8,435.9,27.5,437,27.3z M435.5,28.3L435.5,28.3L435.5,28.3L435.5,28.3L435.5,28.3
	L435.5,28.3z M431.2,31.4c0.6,1.3,0.2-0.4,0.9-0.4c0.6,0.3,0.4-0.6,0.8-0.6c1,0.4-0.3-0.6-0.6-0.4C432.1,30.6,430.7,30.7,431.2,31.4
	z M427.9,24.4c1,2.3,2.4-0.8,1.4-2c-0.1,0.7-1.5,0.6-1.3,1.4C428.1,24,428.1,24.2,427.9,24.4C428,24.4,428,24.4,427.9,24.4
	C427.8,24.3,427.8,24.3,427.9,24.4z M427.5,27.5c0.2-1.8-1.9-1.2-1.9,0.2C427.4,26.7,426,27.8,427.5,27.5z M425,30.9
	c0.2,0.2,0.3,0.6,0.3,0.9l0,0c0.3,0,0.3-0.5,0.3-0.7c-0.4-0.2,0.4-0.6,0.7-0.8c2.8-3.3-0.5-1.3-1.3,0.4
	C424.9,30.8,424.9,30.8,425,30.9z M424.4,29L424.4,29c0.6,0,0.8-0.5,0.7-0.9c-0.3,0.3-0.6,0.6-0.9,0.8
	C424.4,28.9,424.4,28.9,424.4,29z M394.2,8.6c0.5,0.7,0.6-0.6,1.2-0.6c1.1-0.1-0.3-0.9-0.5-0.3C395.1,8.1,394,8.4,394.2,8.6z
	 M392.6,9.8c0.1,0.1,0.1,0.1,0.2,0c0.8-0.2,0.2-0.8-0.2-0.2C392.6,9.6,392.6,9.7,392.6,9.8L392.6,9.8z M392,15.6
	c0.1,0.2,0.4-0.3,0.6-0.4C392.3,15.2,391.8,15.1,392,15.6z M391.5,10.8c1-0.1-0.1-2.1-0.4-0.5c-0.5,0-0.4,0.5-0.8,0.8
	c0,0.8-1,0.2-1,0.8l0,0c0.1,0.5-0.2,0.5-0.4,0.7c-0.1,0.2,0.3,0.5,0.1,0.7c0,0,0,0,0,0.1C390.4,13.3,390.4,11.4,391.5,10.8z
	 M389.9,16.9C389.9,16.9,390,17,389.9,16.9v0.2c0.3-0.1,0.9-0.3,0.9-0.7c0,0,0.1-0.3-0.1-0.2C390.4,16.6,389.7,16.2,389.9,16.9
	C389.9,16.8,389.9,16.8,389.9,16.9C389.9,16.8,389.9,16.9,389.9,16.9L389.9,16.9z M389.5,16.1c0,0.2,0.8-0.3,0.7-0.5
	c-0.1-0.1-0.1-0.1-0.2-0.1C390.1,15.8,389.4,15.9,389.5,16.1z M389.3,15.3c0.3,0,0.5-0.8,0-0.5C389.1,14.9,389,15.5,389.3,15.3z
	 M388.5,17.2L388.5,17.2c0.6-0.4-0.5-0.8-0.7-0.3C387.8,17.1,388.2,17,388.5,17.2C388.4,17.1,388.5,17.2,388.5,17.2L388.5,17.2z
	 M388.9,15.9c-0.1,0.1-0.4,0.1-0.6,0.1C387.9,16.4,388.8,16.1,388.9,15.9z M387.8,19.7c0.2,0,0.1-0.3,0.1-0.4
	c-0.2,0.1-0.2,0.3-0.4,0.4C387.7,19.7,387.8,19.7,387.8,19.7z M387.4,17c0.3,0,0.3-0.4,0-0.5C387.4,16.7,387,16.8,387.4,17z
	 M386.7,19.2C386.8,19.2,386.8,19.2,386.7,19.2c0.2-0.2,0.3-0.1,0.6-0.1C387.1,18.9,386.9,19,386.7,19.2
	C386.6,19.1,386.6,19.2,386.7,19.2z M386.5,19.5C386.4,19.5,386.4,19.5,386.5,19.5C386.4,19.5,386.4,19.5,386.5,19.5
	C386.4,19.5,386.4,19.5,386.5,19.5L386.5,19.5z M386.8,15.2L386.8,15.2c0.1,0.3,0.8,0.2,0.7,0.4c0-1,1.9-0.6,1.6-1.8
	c-1.1-1.5-2.1,1.1-2.6,1.6C386.5,15.3,386.7,15.2,386.8,15.2z M385.6,20.1c0,0.1,0.1,0.1,0.1,0.2c0.3-0.1,0.3-0.6,0.5-0.7
	C385.9,19.6,385.5,19.7,385.6,20.1z M380.7,22c0.2-0.3,0.5-0.6,0.7-0.9C381.2,21.4,380.6,21.5,380.7,22
	C380.6,21.9,380.6,21.9,380.7,22L380.7,22z M374.3,29.1c0.6,0.4,0.2-0.3,0.4-0.6C374.5,28.7,374,28.8,374.3,29.1z M374.2,27
	c-0.1-0.4,1.1-0.1,0.9-0.8c-0.6,0.5-0.8,0.2-0.4-0.2C374.2,25.8,374,26.7,374.2,27C374.1,27,374.2,27,374.2,27L374.2,27z M358,36.2
	c0.7-0.2,0.7-0.7,0.6-1C359.6,33.3,357.8,35.1,358,36.2C357.8,36.1,357.8,36.2,358,36.2z M356.2,32.8c0.3,0.2,0.5-0.3,0.5-0.5
	C356.4,32.3,356.2,32.5,356.2,32.8z M352.9,29c0.9,0.3,5.6-3.9,2.3-2.9c0.7,0.5-1.3,0.3-0.5,0.9c0.5,0.4-0.4,0.8-0.4,1.2
	C354.3,29,352.6,28.2,352.9,29z M349.5,32.5c0.4,0.7,1.6,0,1.4-0.6C350.8,30.8,349.1,32,349.5,32.5z M346.2,21.3
	C346.2,21.2,346.1,21.2,346.2,21.3c-0.7,0-0.9,1-0.1,0.6C346.2,21.7,346.3,21.5,346.2,21.3z M346.8,20.9
	C346.8,20.8,346.8,20.8,346.8,20.9c0.1-0.3,0.1-0.5,0-0.7C346.1,20.1,346.1,21.6,346.8,20.9z M344.9,35.3c0.3,0.1,0.4-0.3,0.5-0.2
	c0.1,0.2-0.4,0.3-0.3,0.5c0.8-0.2,2-1.1,2.2-1.7C346.8,34.9,344.9,34.1,344.9,35.3z M345,22.7c0.7-0.1,0.4-0.6-0.2-0.4
	C344.9,22.4,345,22.6,345,22.7z M341.3,24c0.5,0.2,0.8-1.1,0.3-1.2C341.1,22.7,340.7,23.9,341.3,24z M338.2,26.8
	c1-0.8,0.2-0.4,0.3-1.2c-0.2,0.6,0,0.9-0.6,1.1C337.9,26.7,338,26.8,338.2,26.8z M334.1,21.2c0.5,0.4,1.3-0.6,0.4-0.6
	C334.2,20.3,333.9,20.9,334.1,21.2z M331.3,23.1c2.6-0.4,2.9-3.5-0.1-0.3C331.3,23,331.2,23,331.3,23.1z M330.5,23.6
	c0.2,0.1,0.9-0.1,0.7-0.4C330.8,22.8,330.5,23.1,330.5,23.6C330.5,23.5,330.5,23.6,330.5,23.6L330.5,23.6z M328.2,27.3
	c0.2,0,1.1-1.2,0.5-0.9C328.4,26.7,327.9,26.8,328.2,27.3L328.2,27.3z M323.6,26.8c0.5-0.9,0.8-1.3,1.7-1.5
	c-0.3,0.3-0.8,0.3-1.1,0.7C324,26.1,323.3,27,323.6,26.8z M324.8,32.9c-0.9-0.3-1.3,0.2-1.5,1C323.6,33.4,324.2,33.1,324.8,32.9z
	 M324,30.5c0.7-0.6,1.4,0.3,2.1-0.1c-0.2,0.4,0.2,0.5,0.1,0.8c0,0.1,0,0.1,0.1,0.2c0.3,0,0.6-0.3,0.4-0.5c-0.4-0.3,0.6-0.7,0.2-1
	c-1.7-0.2,0.2-0.4,0.1-1.2c0.9-1.2-0.7-1-0.7,0.1c-0.2,0.8-1.4,0.5-1.6,1.3c-0.2-0.6-0.8-1.3-1.2-0.4c0,0,0,0.1-0.1,0.1
	c0.5,1.2-1.8,1.9-2.3,3.3C322.4,34,323.3,31.2,324,30.5z M320.9,35.8c1.1,0.8,2.7-2,1.3-1.4c-0.6,1.4-0.5-0.9-1.4-0.2l0,0
	C321.1,34.6,320.4,35.9,320.9,35.8z M311.2,28c0.3-0.1,0.5-0.4,0.6-0.7C311.6,27.4,311,28,311.2,28z M308.7,25.9
	c-0.3,0.1-0.5,0.5-0.9,0.7C308.1,26.6,309.1,26.1,308.7,25.9L308.7,25.9z M309.5,27.3c-0.2,0.1-0.5,0.3-0.4,0.6
	C309.4,27.9,309.6,27.6,309.5,27.3C309.6,27.3,309.5,27.3,309.5,27.3L309.5,27.3z M308.1,30.7C308.1,30.8,308.2,30.8,308.1,30.7
	c0.7-0.3,1.2-0.8,1.6-1.2C309.1,29.7,308.3,30,308.1,30.7z M307.8,29.2c0.2-0.1,0.4-0.3,0.5-0.5c-0.6,0.2-1,0.8-1.6,1.1l0,0
	c0,0,0.1,0.1,0.1,0C307.1,29.6,307.6,29.5,307.8,29.2z M306.5,32.5C306.6,32.5,306.6,32.5,306.5,32.5c0.2-0.3,0.4-0.5,0.4-0.8
	c-0.9,0.3-1.3,0.8-1.6,1.7L306.5,32.5z M305.5,31.8c0.1-0.4,0.2-1.1-0.4-0.7C304.7,31.4,305.2,32.4,305.5,31.8z M305.2,33.5
	c-0.7,0-1.2,0.6-1.7,1.2L305.2,33.5z M302.9,35.1c-0.1,0-0.3,0.1-0.3,0.2L302.9,35.1z M299.4,21.4c-0.6,0.6-1.2,0.9-1.6,1.5
	c0.2,0.5-0.3,0.3-0.5,0.3c0.7,0.9,1.8-1.4,2.3-2C299.5,21.3,299.4,21.3,299.4,21.4z M299,30.1C299,30.1,299.1,30.2,299,30.1
	c0.3,0,0.5-0.1,0.6-0.2C299.7,29.6,298.9,29.8,299,30.1C299.1,30,299,30.1,299,30.1L299,30.1z M299.7,25.1c-0.3,0.2-0.7,0.9-0.1,0.8
	C300.9,25.5,301.1,23.6,299.7,25.1L299.7,25.1z M300.8,20.4c-0.3,0.1-0.4,0.7-0.6,0.8c0.3,0,0.6-0.4,0.9-0.6
	C301,20.6,300.9,20.4,300.8,20.4L300.8,20.4z M301.7,20.1c0.7-0.3,0.3-0.9-0.3-0.5C300.9,20.3,300.9,20.4,301.7,20.1z M301.6,24.3
	c-0.2,0.1-0.2-0.3-0.4-0.1C300.3,25.1,302,24.8,301.6,24.3z M302.3,28c0.3-0.8-1.1-0.1-0.7,0.4C301.8,28.7,302.2,28,302.3,28z
	 M302.3,35.6c-0.2-0.2-0.5,0.3-0.5,0.4L302.3,35.6z M300.9,30.2C300.9,30.2,300.9,30.1,300.9,30.2c0.3-0.6,1.1-0.3,1.3-1.1
	C301.6,29.3,300.3,29.5,300.9,30.2C300.7,30.2,300.9,30.2,300.9,30.2C300.8,30.3,300.9,30.2,300.9,30.2z M300.2,36.5
	c0.4,0.3,0.5-0.2,0.5-0.5C300.5,36.2,300.2,36.2,300.2,36.5z M299,31.6c0.7-0.1,0.9-1.8,1.2-0.4c0.2,0,0.2-0.1,0.3-0.1
	c0.5-0.4-0.3-0.3-0.3-0.5c-0.2-0.8-1.6,0.4-1.4,1.1C298.9,31.6,298.9,31.6,299,31.6z M298.5,26.1C298.5,26.1,298.6,26.2,298.5,26.1
	L298.5,26.1c0.3,0,0.7-0.3,0.4-0.4C298.8,25.8,298.6,25.9,298.5,26.1C298.4,26,298.4,26,298.5,26.1L298.5,26.1z M297.9,27
	c0.1,0,0.2-0.1,0.2-0.2C299,25.7,297.1,26.5,297.9,27z M296.9,27.5C296.9,27.6,297,27.6,296.9,27.5c0.3-0.2,0.7,0,0.7-0.4
	C297.1,27.2,296.8,26.7,296.9,27.5L296.9,27.5z M295.7,19.1c1.1-0.4,1-3.2-0.2,0C295.6,19.1,295.6,19.1,295.7,19.1z M294.5,16.3
	c0.3,0.2,0.8-0.8,0.2-0.4C294.7,16.1,294.3,16.1,294.5,16.3z M293.5,12c0.8-0.5,2.3-1.6,0.3-1.2c0.2,0.6-0.9,0.2-0.6,0.9
	c0.1,0.1,0.1,0.3,0,0.4c-0.5,0.3-0.7,1-1.5,0.8C291.3,14,293.5,12.3,293.5,12z M291.2,29.4c0.2,0.1,0.4,0.3,0.5,0
	c0.3-0.1,0.6-0.4,0.7-0.7c-0.5,0.1-1.1,0.4-1.5,0.6C291,29.3,291.1,29.3,291.2,29.4z M289,15.8c0.4,0.5,1.2,0.2,1.1-0.4l0,0
	C290.2,14.5,288.5,15.2,289,15.8z M286,7.4c-0.1,0-0.2,0-0.3,0C285.7,8.1,286.5,7.7,286,7.4L286,7.4z M286.8,6.6
	C286.8,6.5,286.7,6.5,286.8,6.6C286.7,6.5,286.7,6.5,286.8,6.6c-0.4,0.1-0.5,0.3-0.5,0.6C286.6,7.3,287,6.9,286.8,6.6L286.8,6.6z
	 M285.2,17.9L285.2,17.9c0.2,0,0.4-0.4,0.4-0.1c-0.7,0.8,1.7-0.5,1.7-0.8C286.6,17.5,285.6,17.4,285.2,17.9z M282.7,8.6
	c0.5,0.2,0.5-0.7,0.3-1C282.5,7.5,282.4,8.4,282.7,8.6z M280.1,10.7c0.8-0.5,0.2-0.4,0.2-1c-0.2,0.2,0.1,1-0.5,0.9
	C279.5,10.7,280,10.8,280.1,10.7z M277,6.1C277,6.1,277.1,6.2,277,6.1c0.4,0,0.4-0.1,0.6-0.3C277.4,5.2,276.7,5.4,277,6.1z
	 M274.6,7.5c0.2,0.4,0.6-0.5,0.9-0.2c0.4,0.1,1.1-0.5,1-0.9C275.6,5.7,275.4,7.4,274.6,7.5C274.6,7.4,274.6,7.4,274.6,7.5z M274,7.8
	c0.2,0.1,0.6,0,0.6-0.2C274.3,7.2,273.9,7.7,274,7.8z M271.9,10.7C272,10.7,272,10.7,271.9,10.7c0.1-0.4,0.8-0.8,0.4-0.7
	C272.2,10.3,271.7,10.2,271.9,10.7C271.8,10.6,271.9,10.7,271.9,10.7L271.9,10.7L271.9,10.7z M268.2,10.2c0.5-0.3,0.4-1.2,1.2-1
	c0.1,0,0.1-0.1,0.1-0.2c-0.2,0.2-0.7,0.3-0.9,0.5C268.4,9.7,268,9.8,268.2,10.2C268,10.2,268.1,10.3,268.2,10.2z M268.9,15.2
	c-0.8-0.3-1-0.1-1.3,0.7C268,15.6,268.4,15.3,268.9,15.2z M268.4,13.2c0.5-0.6,0.9,0.4,1.3,0.1c0.1-0.1,0.4-0.2,0.3,0
	c-0.1,0.1-0.1,0.2,0,0.3c0,0,0.1,0.1,0,0.1c0,0.1,0,0.1,0,0.1l0,0c0.2,0,0.3-0.1,0.4-0.2c0.8-2.3-1.4,0.3,0.5-2.3
	c-0.2-1-0.9,1.1-1.6,0.9c-0.2,0.1-0.3,0.3-0.5,0.5c-0.1-0.4-0.7-1.3-1-0.5l0,0c0.3,1.2-1.6,1.6-2.1,2.6
	C266.1,15.7,267.9,13.5,268.4,13.2z M265.7,17.4c1.1,0.7,2.2-1.8,1-0.9c-0.4,0.7-0.5-1-1-0.3C265.9,16.5,265.3,17.5,265.7,17.4z
	 M264.4,20c-0.1-0.5,0.3-0.4,0.3-0.8C264.7,19.6,264.4,19.7,264.4,20z M263.8,18.5c0.1-0.1,0.3-0.1,0.5,0c-0.1-0.6-0.4-0.2-0.7,0.1
	C263.7,18.5,263.8,18.5,263.8,18.5z M260.6,19.7c0-0.1,0-0.1,0-0.2C260.7,19.5,260.5,19.8,260.6,19.7z M258.8,23.6
	c0.7,0.5,0.6-0.6-0.1-0.5C258.7,23.3,258.7,23.5,258.8,23.6z M250.6,23.1c0.5,1.2,0.6-0.1,1.2-0.2c2,0.6,0.9-1.7-0.1-0.6
	C251.6,22.8,250.6,22.5,250.6,23.1z M245,24.9c0.6,0.4,2-1.6,0.8-1.3C245.7,24.1,244.9,24.4,245,24.9z M241,27.6
	c0.4,0.1,0.9-0.2,1-0.7C241.7,27,240.8,27.2,241,27.6C240.9,27.6,241,27.6,241,27.6L241,27.6z M238.9,31.4c0.1,0.1,0.2,0.1,0.2,0.2
	c0.2-0.1,0-0.5,0.2-0.7C239.1,31,238.6,31.1,238.9,31.4z M238.9,29.4c0.6-0.1,1.6-0.8,1.5-1.4c-0.2,0.3-1.8,1.3-1.1,0.4
	C238.9,27.9,238.3,29.4,238.9,29.4z M224.1,42.1c0.2,0,0.5-0.1,0.5-0.4C224.4,41.7,224.3,41.8,224.1,42.1
	C224.1,42,224.1,42.1,224.1,42.1C224,42.1,224.1,42.1,224.1,42.1z M223.7,42.5c0.1-0.1-0.2,0.1-0.2,0.3
	C223.6,42.7,223.6,42.6,223.7,42.5z M222.7,42c0,0.1,0.1,0.1,0.2,0C222.8,42,222.7,42,222.7,42L222.7,42z M222.4,42.5l0.2-0.2
	C222.4,42.5,222.3,42.5,222.4,42.5z M220.2,42.9c0.5,0.3,2,0,1.4-0.7c-0.3,0.4-0.8,0.5-1.3,0.4C220.2,42.7,220.2,42.8,220.2,42.9z
	 M215.5,42.1c0.4,0.4,1.4-0.3,1.3-1C216.2,41.3,215.9,41.8,215.5,42.1L215.5,42.1L215.5,42.1z M214,40.9c0.4-0.4,0.9-0.7,1.5-0.9
	C215.1,39.3,214,40.6,214,40.9z M213.3,48.5c0.3-0.2,0.7-0.4,0.5-0.8c0-0.2,0-0.3,0.1-0.5c-1.4,0,0.3,0.5-0.8,1.3
	C213.2,48.5,213.2,48.5,213.3,48.5z M210.6,39.7c0.9,0.2,0.9-0.4,1.1-0.9c-0.5,0.3-0.8,0.5-1.3,1C210.4,39.7,210.5,39.6,210.6,39.7z
	 M204.5,17c0.2-0.1,0.3-0.2,0.3-0.4C204.7,16.7,204.6,16.8,204.5,17L204.5,17z M204.8,17.9c-0.4,1-1.6,1.8-2.1,2.7
	c2.1-1,3.5-1.4,3.4-3.8C205.5,17,205,17.4,204.8,17.9L204.8,17.9z M207.9,20.2c-1.4-0.8-1.9,1.6-3,2.2c0.1,0.1,0.2,0.2,0.2,0.3
	C206,22.5,207.7,21.3,207.9,20.2z M210.6,18.7L210.6,18.7C210.7,18.7,210.7,18.7,210.6,18.7C210.7,18.6,210.7,18.6,210.6,18.7
	c0.7-1-0.5-0.4-1-0.6c-0.9-0.2-0.8,0.9-1,1.4C209.3,19.4,210,19.1,210.6,18.7z M209.5,36.9c0.2-0.3,0.4-0.6-0.2-0.6
	C209.3,36.6,209.4,36.7,209.5,36.9z M208.9,31.9c0.3-0.1,0.4-0.6,0.7-0.8C209,30.6,208,31.1,208.9,31.9z M209.2,28
	c0.2,0,0.4-0.2,0.3-0.4c-0.1-0.5-1.4,0.3-1.4,0.8C208.5,28.2,208.8,28.1,209.2,28z M206.3,39.5c0.2-0.4,0.8-0.5,1.2-0.7
	C207.3,38.2,206,39.2,206.3,39.5c-0.4,0.1-0.4,0.3-0.6,0.6C205.8,39.9,206.1,39.7,206.3,39.5z M207.6,32c-0.3-0.1-0.5,0-0.7,0.1
	C207,32.3,207.3,32.1,207.6,32z M206.1,33.1c0.5,0.6,0.8-0.6,0.4-0.8C206.3,32.5,206.1,32.8,206.1,33.1L206.1,33.1z M205.9,38.8
	c0,0.1,0,0.1,0,0.2C205.9,38.9,206,38.9,205.9,38.8c0.3,0,0.4-0.2,0.6-0.3C206.3,38.5,205.9,38.3,205.9,38.8z M205.7,33.8
	c0.6-0.1,0.2-0.9-0.3-0.5C205.4,33.5,205.3,34,205.7,33.8z M205,34.5c0.3-0.1,0.2-0.3,0.2-0.5C205.1,34.1,205.1,34.3,205,34.5
	L205,34.5L205,34.5z M203.1,30.3c1-0.4,3.4,0.2,3-1.6c0.1-1.6,3-1.7,2.8-3.8c-0.9,1.4-2.7,0.7-3.7,2c0.2,0.8,2-1.1,1.5-0.1
	c-0.9,1.5-2,2.7-3.7,3.2C203.1,30.2,203.1,30.3,203.1,30.3z M202.9,23c0.5,0,0.6-0.9,1-0.9c0,0.1-0.1,0.3-0.1,0.4
	c2.9-3.1-0.8-2.9-1.1,0.3l0,0C202.8,23.1,202.8,23,202.9,23z M201.7,24.7c0.5-0.1,0.6-0.6,0.5-1C202.1,24.1,201.9,24.4,201.7,24.7
	L201.7,24.7L201.7,24.7z M200.7,26.4c0.6,0.2,0.6-0.5,0.5-0.9C201,25.7,200.4,26.2,200.7,26.4z M199.1,27.9
	C199.2,27.9,199.2,28,199.1,27.9c0.2-0.1,0.4-0.3,0.5-0.4C199.5,27.6,199.3,27.7,199.1,27.9L199.1,27.9z M197.9,29.2L197.9,29.2
	c0.6-0.1,0.5-0.7,0.9-1.1c-0.6,0.3-1.3,0.2-1.4,1C197.6,29.1,197.7,29.1,197.9,29.2z M194.9,30.9c0.2-0.2,0.4-0.3,0.6-0.5
	C195.3,30.4,194.6,30.5,194.9,30.9z M181.4,21.9c-2.5-1-0.9,3.2,0,0.3C181.5,22,181.5,22,181.4,21.9L181.4,21.9z M181.5,28.1
	c-0.1-0.1-0.2-0.2-0.4,0C180.6,28.6,181.9,28.6,181.5,28.1L181.5,28.1z M177.4,36.2c0.6,0.6,1.3,1.1,0.8,1.9c2.3-0.6,1.7-3.2,3.7-4
	c-0.9,0-0.3-2.3-1.6-1.8c-1.9,0.6-1.7,1.4,0,2.2C180.5,35,175.7,34.4,177.4,36.2z M167,31.4c1,1.8,1.9-1.9,0.5-1
	C167.2,30.7,166.6,30.7,167,31.4C166.9,31.3,166.9,31.4,167,31.4L167,31.4z M159.1,30.7c0-0.1-0.1-0.2-0.2-0.2
	c-0.1-0.1-0.5,0.9-0.5,0.9C158.7,31.2,158.9,31,159.1,30.7z M130.2,47.4c0.6-0.3,1-0.7,1.2-1.4C130.9,46.1,130.2,47,130.2,47.4z
	 M128.7,49c0.5-0.3,1.1-0.9,1.3-1.4C129.7,47.6,128.7,48.6,128.7,49z M127.5,49.9C127.5,50,127.6,50,127.5,49.9
	c0.4,0,1.5-0.9,0.8-0.7C127.9,49.4,126.9,49.3,127.5,49.9z M124.7,50.7c0.2-2.1,2.4-3,2.5-5c-1.4,0.8-1.8,2.7-3.2,3.7
	c-0.2,0.6-0.1,1.2-0.4,1.7C123.9,50.9,124.4,50.5,124.7,50.7L124.7,50.7z M124.2,52.7c0.2,0,0.2-0.3,0.2-0.5
	C124.2,52.2,123.8,52.9,124.2,52.7z M123.7,52.4c0.2-0.2,0.3-0.4,0.3-0.6C123.6,51.6,123.5,51.9,123.7,52.4z M100.9,31L100.9,31
	L100.9,31L100.9,31z M101.1,36.8c-0.2,0.1-0.4,0.2-0.4,0.5c0.3-0.2,0.7-0.4,1-0.7C101.4,36.7,101.2,36.7,101.1,36.8z M109.1,46.8
	C109.1,46.9,109.1,46.9,109.1,46.8L109.1,46.8L109.1,46.8C109.3,46.8,109.2,46.8,109.1,46.8z M109.8,35.6
	C109.8,35.6,109.8,35.7,109.8,35.6C109.8,35.7,109.8,35.7,109.8,35.6L109.8,35.6L109.8,35.6z M110.8,28.9c-0.1,0.2-0.1,0.4-0.2,0.6
	c0.8,0.4,1-0.5,1.4-1C111.6,28.7,111.2,28.9,110.8,28.9z M111.5,36.2c0.1-0.2,0.1-0.3,0-0.5C111.5,35.9,111.3,36.1,111.5,36.2z
	 M112,32.6c-0.1,0.1-0.1,0.3-0.2,0.4l0,0C111.9,32.8,112.3,32.7,112,32.6L112,32.6z M112.3,28.3L112.3,28.3c0.3,0.3,0.4-0.3,0.6-0.4
	C112.7,28.1,112.5,28.2,112.3,28.3L112.3,28.3z M113.4,33.1c-0.2,0.1-0.3,0.3-0.5,0.4c0.3,0,0.6-0.3,0.6-0.6
	C113.5,33,113.4,33.1,113.4,33.1L113.4,33.1z M114.4,26.1c0-0.1,0-0.1,0-0.2C113.2,26.6,114.5,27.4,114.4,26.1z M115.5,24.3
	c-0.2,0.2-0.4,0.6-0.6,0.9C115.3,25.2,115.5,24.7,115.5,24.3z M115.9,23.6c0.7,0.2,0.8-0.8,1.3-0.9c0,0.1-0.1,0.3-0.1,0.4
	C120,20,116.5,20.1,115.9,23.6L115.9,23.6L115.9,23.6z M117.7,17.4c0.2-0.1,0.3-0.2,0.3-0.4C117.9,17.1,117.8,17.3,117.7,17.4
	L117.7,17.4z M118,18.4c-0.4,1-1.6,1.8-2.1,2.7c2.2-1.2,3.5-1.2,3.4-3.7C118.7,17.5,118.2,17.9,118,18.4L118,18.4z M121.1,20.7
	c-1.4-0.8-1.9,1.6-3,2.2c0.1,0.1,0.2,0.2,0.2,0.3C119.2,23,120.9,21.8,121.1,20.7L121.1,20.7z M123.8,19.2
	C123.8,19.2,123.9,19.2,123.8,19.2C123.9,19.2,123.9,19.1,123.8,19.2C123.9,19.1,123.9,19.1,123.8,19.2c0.7-1-0.5-0.4-1-0.6
	c-0.9-0.2-0.8,0.9-1,1.4C122.6,19.9,123.2,19.6,123.8,19.2z M122.6,36.9L122.6,36.9C122.5,36.9,122.6,36.9,122.6,36.9z M122.1,32.4
	c0.3-0.1,0.4-0.6,0.7-0.8C122.2,31.1,121.2,31.6,122.1,32.4z M122.4,28.5c0.2,0,0.4-0.2,0.3-0.4c-0.1-0.5-1.4,0.3-1.4,0.8
	C121.7,28.7,122,28.6,122.4,28.5z M120.3,54c0.2,0,0.3-0.1,0.5-0.1C120.7,53.9,120.6,53.9,120.3,54C120.3,53.9,120.2,53.9,120.3,54
	L120.3,54L120.3,54z M120.8,32.4c-0.3-0.1-0.5,0-0.7,0.1C120.2,32.7,120.5,32.6,120.8,32.4z M119.9,39.5c0.1-0.2,0.6-0.4,0.3-0.6
	c-0.6,0.6-1.1,0.9-1.4,1.6C119.3,40.2,119.5,39.9,119.9,39.5z M119.1,39.3c0,0.1,0,0.1,0,0.2C119.1,39.4,119.2,39.4,119.1,39.3
	c0.3,0,0.4-0.2,0.6-0.3C119.5,39,119.1,38.8,119.1,39.3z M119.1,33.7c-0.3-0.1-0.3,0.1-0.4,0.3C118.6,34.7,119.6,34,119.1,33.7
	L119.1,33.7L119.1,33.7z M119.3,33.6c0.5,0.6,0.8-0.6,0.4-0.8C119.5,33,119.3,33.3,119.3,33.6L119.3,33.6z M118.3,55
	c0.5,1.6,1.6-0.5,0-0.7C118.1,54.5,118.3,54.6,118.3,55z M118.2,34.9c0.3-0.1,0.2-0.3,0.2-0.5C118.3,34.6,118.3,34.8,118.2,34.9
	L118.2,34.9L118.2,34.9z M118.1,40.2C118.1,40.1,118.1,40.1,118.1,40.2c0-0.2-0.1,0.3-0.2,0.3C118,40.4,118,40.3,118.1,40.2z
	 M117.2,30.6c0.9,0.1,2.5-0.1,2.1-1.4c0.1-1.6,3-1.7,2.8-3.8c-0.9,1.4-2.7,0.7-3.7,2c0.2,0.8,2-1.1,1.5-0.1
	C119.6,29,114.8,30.9,117.2,30.6z M116.7,42.6c-0.2,0-0.3-0.1-0.3-0.3C115.3,43.3,115.8,43.6,116.7,42.6z M114.9,56.3
	c2.1-0.7,1.9-2.4-0.3-0.6C114.6,56,114.7,56.2,114.9,56.3z M112.8,46.7C112.8,46.7,112.9,46.7,112.8,46.7c0.3-0.3,1.4-1,1.1-1.3
	c-0.3-0.2,2.1-2.3,0.3-1.4c-1.2,0.5,1.3-1.3,1.3-1.8c-0.9,0.5-2.2,0.7-2.9,1.8c0,0.4,0.1,0.7,0.2,1.2c-0.6-0.9-2.7-0.3-1.8,0.8
	C111.8,45.8,113.6,46,112.8,46.7z M109.2,60.2c1.1-0.3,1.7-1.3,2.8-1.9c-0.3,0.4-0.7-0.6-1-0.2C110.7,58.9,108.2,59.4,109.2,60.2z
	 M108.2,31c-0.3,0.6,0.4-0.1,0.6-0.2C108.5,30.9,108.3,30.9,108.2,31L108.2,31z M108.1,37.7c0-0.1,0-0.1,0-0.2V37.7
	c-0.2-0.1-0.2,0-0.2,0H108.1C108,37.7,108,37.7,108.1,37.7L108.1,37.7z M106.8,39.9c0.1,0.1,0.2,0.3,0.1,0.4
	c0.4-0.2,0.9-0.7,0.9-1.1c-0.4,0.2-0.7-0.1-1-0.2c-0.2,0.1-0.1,0.6-0.4,0.8C106.5,39.8,106.7,39.8,106.8,39.9z M105.9,40.6
	c0.1-0.2,0.3-0.5,0.5-0.6c-0.2,0.1-0.5,0.1-0.7,0c0,0.2,0.1,0.4-0.1,0.5C105.7,40.5,105.8,40.5,105.9,40.6z M106.2,37.8
	c-0.1,0.1-0.1,0.2-0.2,0.3l0,0c1,1.2,2.1-2.9,0.8-1.3c-0.2,1-1.1,0.6-0.5-0.2c-0.5,0.4-0.7,0-1.1,0.3c0.6-0.7,1.5-0.7,1.8-1.5
	c-0.5-0.1,0-0.9,0.4-0.8c0.8,0,0.5-1,1-1.4c-0.2,0-0.6,0.1-0.8,0.1c-0.9,1.7-4.8,4.4-5.7,6.4c0.7-1,2-0.9,2.8-1.7
	c0,0.3-0.6,0.8-0.1,1C105.1,38.7,105.6,38.1,106.2,37.8z M104.3,47.4c0,0.2,0.1,0.4,0.1,0.6c0.8-0.2,0.4-0.7-0.2-0.9
	C104.2,47.2,104.2,47.3,104.3,47.4z M99.9,52.1c1,0.1,0.1-0.6-0.2,0C99.7,52,99.8,52,99.9,52.1z M100.1,50.3c-0.1,0-0.2-0.1-0.3-0.1
	C99.6,50.5,100,50.4,100.1,50.3L100.1,50.3z M99.1,43.9c1.5-1.2,6.3-2.4,2.5-3.6c-0.6,0-0.9,0-1.4,0.5
	C102.8,39.8,99.6,43.4,99.1,43.9z M96.8,39.8c0.1,0,0.1,0,0.2,0.1C100,37.5,97.1,37.1,96.8,39.8L96.8,39.8z M94.7,22.4
	c-0.5-0.6-1.7,0.3-1.4,1C93.9,24.1,95,23.1,94.7,22.4z M94.7,28.6c-0.2,0-0.5,0.1-0.5,0.3C94.5,29.1,94.9,28.9,94.7,28.6z
	 M93.8,35.2c-0.2-0.9,0.9-1.4,0.7-2C93.7,33.3,92.1,34.8,93.8,35.2C93.7,35.1,93.7,35.1,93.8,35.2L93.8,35.2z M92.2,36.3
	c0.3-0.1,0.8-0.8,1.1-0.5c0.3,0.2,0.4,0.1,0.5-0.3C93.3,34.8,91.8,35.6,92.2,36.3z M90.5,36.4c0.3-0.1,0.7-0.3,0.8-0.7
	C90.9,35.6,90.3,36,90.5,36.4z M80,24.3C80,24.2,80,24.2,80,24.3c-0.2-0.2-0.4-0.1-0.5-0.1C79.7,24.3,79.8,24.3,80,24.3z M78.2,19.6
	c0.4,0,0.7-0.4,0.5-0.8C78.4,18.8,77.9,19.3,78.2,19.6z M77.5,20.7c1.1-0.1,0.7-1.9,0-0.3C77.4,20.5,77.4,20.6,77.5,20.7z M76.3,21
	c0,0.1,0,0.2,0,0.3c1.2-0.1,1.4-0.8,0.2-0.8C76.3,20.7,76.2,20.9,76.3,21z M64.6,29.8c-0.1,0-0.1,0-0.2,0l0,0
	C64.5,29.9,64.6,29.9,64.6,29.8z M65,28.8c-0.1-0.1-0.2-0.1-0.3,0l0,0l0,0c0.1,0.1,0.3,0.3,0.4,0.4C65.2,29,65.1,28.9,65,28.8
	L65,28.8L65,28.8z M69.8,26c0,0.2,0,0.4,0.2,0.2C70.2,26,70.1,26,69.8,26L69.8,26z M71.6,28.3c-0.5,0.1-1.6,0.9-0.3,0.8
	C71.4,28.9,71.9,28.5,71.6,28.3L71.6,28.3z M73.9,23.1c0.6-0.2,3.4-2,1.3-1.8c-0.1,0.4-0.6,1.2-1.1,1.1c0.6-3.2-1.4,0.5-1.5,1.7l0,0
	c0.1,0.1,0.3,0.1,0.3-0.1c0.3-0.3,0.5-0.7,0.8-1C73.8,23.2,73.9,23.2,73.9,23.1z M70,35.6c0.2,0.2,0.2,0.5,0.4,0.7
	c-0.1-0.4,0.2-0.7,0.2-1.1C70.4,35.5,69.7,35.2,70,35.6z M64.1,32.5c0.6,0.1,0.4,0.5,0.2,0.8c0.3,0,0.2,0.5,0.2,0.7
	c1.2-0.2,1.8-1.2,2.9-1.8c-0.9-0.9-0.4-0.7,0.4-1.2c-1.2-0.5,0.3-1.1,0.9-1.2c0.4-0.4,0,0.8,0.4,0.9c1.5,0.5,0.1,1.2,0.5,1.9
	c0.7,0.1-0.2,0.5-0.2,0.8c0.4-0.1,0.9-0.5,1.1-0.8c0.7-0.7,2.4-1.2,2.4-2.3c-0.1,0.4-0.9,0.5-0.5,0.2c0.2-0.1,0.3-0.2,0.4-0.4
	c0.4-0.9,0.2-0.9-0.7-0.5c-0.7,0.5-2.3,0.3-1.5,1.4c-0.6-0.2-0.8-0.8-0.6-1.5c-0.7-0.4-0.7-0.9,0.1-1.3c-0.7-1.9-1.6,0.7-2.5,0.8
	c-0.7,1.2-0.9-0.9-1.7,0l0,0c0.1,0.2-0.4,0.6,0,0.6c-0.6,1-2,2-2.5,3.2l0,0C63.9,32.5,64,32.5,64.1,32.5z M61.4,35.8
	c0.9-0.7,0.9-0.8-0.1-0.5l0,0C61.4,35.5,61.1,35.9,61.4,35.8z M60.4,33.4c0.3,0.8,0.2,1.1,1.2,0.9C61.2,33.6,60.4,31.4,60.4,33.4
	L60.4,33.4z M59.8,39.8c0.1,0.1,0.3,0.1,0.4,0.1C60.6,39.4,59.3,39.1,59.8,39.8z M59.6,34.3L59.6,34.3c0.2-0.3,0.3-0.6,0.6-0.9
	C59.9,33.4,59.4,34,59.6,34.3z M59.1,34.7c0.9-0.6-0.2-0.4-0.3,0.2C58.9,34.8,59,34.8,59.1,34.7z M57.7,35.7c0,0.1,0,0.1,0,0.2
	c0.2-0.2,0.4-0.4,0.7-0.6C58,35.1,57.5,35.2,57.7,35.7z M55.9,36.9C55.9,37,56,37,55.9,36.9c0.9,0.4,0.6-1,1.2-0.8
	C56.4,35.6,56.4,36.5,55.9,36.9L55.9,36.9L55.9,36.9z M55,36.7c1.6-0.8-0.7-1.4-0.5,0.1C54.8,36.9,55,36.8,55,36.7z M54.1,36.8
	c-0.3-0.3-0.5-0.2-0.8-0.4C52.9,36.8,53.9,36.7,54.1,36.8z M51.7,39.7c0.2,0.1,0.5,0.5,0.7,0.2c0.1-0.6,0.7-0.3,1.1-0.5
	c0.5-0.9-1.3-0.1-0.3-0.8C52.7,38.7,52.2,39.4,51.7,39.7L51.7,39.7L51.7,39.7z M42.4,45c0.3,0.2,0.6-0.1,0.5-0.5
	C42.7,44.6,42.2,44.8,42.4,45L42.4,45z M40.5,49c0.6,0.4,0.2-0.3,0.4-0.6C40.7,48.6,40.3,48.7,40.5,49z M40.4,46.9
	c0.6-0.3,1.6-0.7,1.5-1.4c-0.2,0.4-1.7,1.4-1.1,0.5c-0.5-0.2-0.6,0.7-0.6,1C40.3,46.9,40.4,46.9,40.4,46.9z M28.4,52.1
	c0.1,0,0.1,0.1,0.2,0.2C29,52.1,28.2,51.6,28.4,52.1z M26.7,43.3c0.7,0.6,4.6-3.4,1.9-1.6c-0.3,0.2-1.2,1.3-1.1,0.7
	c1.3-1.8-1-0.5-1.1,0.8C26.6,43.2,26.7,43.3,26.7,43.3z M25.8,44.4c0.2,0,0.4-0.1,0.5-0.3C26,43.8,25.6,44.1,25.8,44.4z M22.7,46.7
	L22.7,46.7C22.8,46.7,22.8,46.7,22.7,46.7c0.1-0.2,0.1-0.2,0.2-0.3C22.6,46.3,22.6,46.6,22.7,46.7L22.7,46.7z M11.7,40.1
	c0,0.1,0,0.1,0,0.2C13.1,39.4,11.7,38.1,11.7,40.1z"/>
</svg>
