<svg xmlns="http://www.w3.org/2000/svg" viewBox="0 0 3200 7000" style="enable-background:new 0 0 3200 7000" xml:space="preserve"><path d="M1917.6 15.8c4.1-.2 8.4-3 10.4-6.2 2.1-1.4 2.8 2.3.8 2.9-3.3.6-5.2 3.4-3.5 6.2 3.1 1.4 3.2-1.6 5-3.3 6.4-2.1 6.7 2.7-.2 3.7-3.2 1.5-.2 2.5-4.5 2.3-1.1.3-1.3 1.8-2.4 1.9s-1.2.6-.4 1.3c1.5 1.7-2.4 2-1.6 3.3 0 1.2-1.4.1-1.8.8-2.5 4.5-3.7.1-6.7 3.4 7.1-1.6.3 2.6-1.2 3.4-.3-.4-1.5.4-1-.4-1.4-.5-2.2 1-2.7 2 1.3 0 .8 1.3.6 2.1.3-.4 1.2-.6.8-1.2-2.1-4 6.6-.6-1.2 2 1.8 2.3 5.7-5.7 5.3-1.3.1.5-1.1 1-.2 1 3.9-.9-.6 3.6 2.2 3.3.5-1.7 2.8-1.1 3.6-2.6.2-.9 1.6-.9 1.5 0 0 1.9-.1 1.1-1.5 2 .7-.5 1.6-.2.6.6 1.2 3.7 1.1-2.2 3.6-2.3-3.4.1-1.5-2.8.5-1.9 0-.8-.6-1.5.1-2.2-3.2.6-4.7 3.8-7.8 4.5 1.7-2.4 4.8-3.8 6-5.6 1.8-2 2.4 1.3 4.4.2 6.3-5.4 12.6-8.1 18.3-14.7 2.2-.3.6 1.5 1.3 2.4.5.7-.5 1.4-1.2 1.4-2.7 1.9-1.8 5.9-5.1 7.6 3.8 0 6.5-4.2 7.2-7.7-.1-2.3 3-1.3 3.3-3.2.9-4.7 1.3-10.4 7.6-8.8.6 1.6-1.9 2-2.2 3.2 6.4-1.9 3.1 3.2-.4 5.2.4.1.8.7.7 1.2 6.1-2.7 11.4-7 15.4-12.1 7-2.4-1.6 6.3-3.8 6.7.6-.5 1.7.4 1.4.9-.8.7.6 1.7-.1 2.3-1.9.8-3.1 1.7-3.2 4 5.5-.7 2.7-4.7 5.8-5.6 4.3-2.4.9-12.8 9.3-10.2.4 1.2-.9 1.9-1.7 2.5-1.7 2.3 1.9-1.9 3.4 1.6-.5 2.4-5.5 5.2-8 5.5-4.5 5.5 17.7-6.7 17.4-9.1 4.4-7.4 9.2-2.7-1.3 3.6-8.5 8.2-.3 10.3 5 .9 12-5.9 5.7 3.4-1.6 5.3-2.5.9-3 4.6-5.7 4.5-1.6-.2-3 1.4-3.9 2.6-7.2 4.9 2.6 2-5.8 8.2-1.8 4.9 3 5 4.4.3 6-2.8 5.8 2.1.1 3.3-2.7 1.5 0 2.3-3.8 2.5-1 .3-1 1.9-2 2-.4.1-1.2.5-.6.9 2.4 1.5-1.6 2.2-.8 3.3-4.8 5.6-3.9 1.2-7.2 4.7.9-.7 2.1-.5 3-1-.5 1.8-2.2 3.4-4 3.6.1.1.1.3.1.5-.4-.4-1.5.7-.9-.2-1.5-.4-1.9 1.4-2.5 2.3-.8.8-2.4 1.2-2.3 2.5 0 .8-.3 1-1.2.9-1.3.7-3.9.6-2.2 2.5-.6-.4-2.1-1.2-1.3-2-1.2.2-2.3 1.1-3.2 1.8 4.1.7.3 2.5 1.7 3.8 1.5.3.1 1.1-.3 1.8 1.7-.9 3.1-2 4.6-3.4-.2-.8 4.1-2.8 4.2-2.3-.7 1.9.3 1.9-2 2.9 6.5-4.2 1.3 1.7 5.2-.2 0 3.8-.8 1.6-3.3 2.8-2 3.2-3.5 2.6-4.4-.7-.1.5-.5 1.3-1.1 1.3-2.4 3.4 2.3-.2-1.4 5 .7 1.8 2.2-2.2 3.5-1 .8 1.2 3.7-3.3 2 2.4 1.3-2.4 5.4-3.6 5.7-1.2.2-.4 1.7-1.1 1.1-1.5-.1-1 1.9-2.6-.7-1.5.3-.7 4.7-4.6 2.7-4.8-.6-.1-1.9 0-1.3-.9.7-1.6 1.8-1.5 1-2.7.1-2.9 2.5-1.8 3.6-4.3 2.7-.7-1 5-1.6 6.3 6.6-2.1.8-3.4 5.2-5.9-2.8.6-1.8-2.4.3-1.8-3.2-1 22.5-20.9 17.2-14.2-4.3 2.6-9.6 5.8-11 10.6 1.3 1.9-2-1-2.4 1.6 3.9 1.5-2.8 3.4-3.3 4.3 4.5 1.6 11.6-10.3 12-6.5-6.9 5.2-3.9 10.3.4 3.1 10.7-4.2-4.8 6-6.2 7.3-.7.2-1 .7-.3 1 1.1 1.1-1.9 1.7-1.5 2.8-.1.9-1.4.4-1.6 1.3 1.6-.4 5 .7 5.3.6-.4-2.2 5.5.4 5.4-1.8-.6-.4-3 .1-2.1-1.4 1.8 1.5 4.1-.7 4.9-2.4 3.7-8.5 1.1 2.5 5.4-3.6 1.7-1.1.4 3.4 2.7 1.2.6 3.6-.7 1.7-2.9 3.2-2.4 4.8-2.9 1.1-4.4.2-.2 1.9-2 .2-1.6 2.2 1.5 2.1 2-.1.3 3.2-.5 3.4-8.4 1.6-4.9 6.3-2.6.8-2.7 1.2-4.4 3.1-3.2 6-5.4 2.3-5.6 5.5 1.8.9 7.5-6.9 5.8-1.6-.8.7 1.1.2 1.5.4.3-1.5 2.2-1.1 1.5.4-.3 1-1.2 1 .5.9 1.5-.4 4.2-4.8 4.8-2.9 1.1-.4-.3-1.6.4-2.4 2-.7 1.3.1 1.3-1.6 5.4-.2 15.4-11.1 11.8-4.9-1 .8 1.3 1.4.3 2.2-1.1.6-3.9 1.6-3.2 3.4.3.2.6.8.2 1.1-.5 1.2 2.2.9 2.7.1 2.5-.9 3.3-5.8 6.3-5 1.2.6 4.1 1.2 1.6 2.3-2.3 3 3-.7 2.2-1.7-.8-.7 1.1-1.3.4-2.1-.5-.6-1.2.2-1.7 0-.2-1 1.9-1.1 1.6-2.3 4-5.6-4-1-.6-6.1 1.3-1.2-.7-.5-.2-1.4-.5-3.5 1.9-1.7 2.8-4 .2-1 1.4-.8 1.6.1 1.1 2.9 0 .7-.9 2.4 0 1.1.8 2.5-.5 3.3-1.9 2.1 2.1-.6 2.9-.2.8.1.4-1.5-.1-1.7-1.3-5.1 3-1.5.9-6.7-2-2.2 3.9-3.9 3.7-1.7-.2.4-1.6 1.4-.4 1.1 3.8-.7 2 3.5-.9 3.8-3.2.3.1 1.7 1.4.4 2.4 0 8.1-3.7 8.2-6.1.8-1.1 2.6-.9 2.4.7-.2 2.4-2.6.9-3.2 3.2-3.3 1.2.9 8.3 3.9.6 6-2.8 5.8 2.1.1 3.3-2.7 1.5-.1 2.4-3.9 2.5-1 .3-.9 1.9-1.9 2-.4.1-1.2.5-.6.9 2.4 1.5-1.6 2.2-.8 3.3-4.8 5.6-3.9 1.2-7.2 4.7 1-.6 2.1-.5 3.1-1-.5 1.8-2.2 3.4-4 3.6.1.1.1.3.1.5-2-.7-2.2-.1-3.3 2-.8.8-2.4 1.2-2.3 2.5.1 1.9-5.8.7-3.4 3.4-.7.1-.5-.9-1.2-1-.9-.2.2-1.5-.1-2.2-1.4-.6-1.9-1.8-.1-2.4 1.7-1.5-1.9-1.8-2.5-1.3-.7.9-.9 2.8-2.4 2.8-.8-.2-1.6 2-2.2.9-.4-1.9-3.4-.3-2.2.9.8.6-1.3 1.7-2 2-4.8 6.3 4.3 1.7 4.2 4.1.8-.6 4.1-.5 2.4-2.1-.5-.9-2.2 0-2.1-1.4 0-.8 4-2.3 3.5-1.4-.5 3.1 3.9-.2 1.9 4.8 1.4.2.8 1.2.4 2.1 9.8-7.9 10.9-6.9 2 1.8 1.1.7 2.2-1.5 3-.3-.4 1.7 1.8 1.9 1 3.2 2.8-1.9 1.9.6 1.4 2.2 1.9-2.6 3.4-3.3 6.2-1.7 1.5-1-.1-.7.5-1.4 1.3-1.5.4-1.6-.8-1 .3-.7 4.7-4.6 2.7-4.8-.6-.1-2 .1-1.3-.9.7-1.6 1.8-1.5 1-2.7.1-2.8 2.5-1.9 3.5-4.3 2.8-.7-1 5-1.6 6.3 6.1-1.7 1.1-3.7 5.1-5.9-2.8.6-1.8-2.4.3-1.8-2.6-1 18.2-18 18.1-15.4-4 3.9-10.6 6.1-11.9 11.7 1.3 1.9-2-1-2.4 1.6 3.9 1.5-2.8 3.4-3.3 4.3 4.4-.1 8.1-3.9 10.6-7.1 4.2-1.3-.8 2.9-1.5 3.7-3 1.7-.2 6.9 3.4 0 10.7-4.2-4.8 6-6.2 7.3-2 .9 1.1.9-.7 2.4-1.8 1.3-.5 1.4-2.7 2.7 1.2.2 2.1-.2 3.4 0 .8-.5 1.5 1.6 1.9.6-.3-2 5.6.4 5.4-1.7-.6-.4-3 .1-2.1-1.4 1.3.7 2.4.8 3.7-.7-.1-.8 1.5-.9 1.2-1.7 0-.3.1-.5.4-.6 0-2.5 3.1-3.9 2.1-1.5.4 1.7 2.4-.9 2.9-1.5 1.8-1 .1 3.4 2.6 1.2.6 3.5-.9 1.8-3 3.2-2.4 4.8-2.9 1.1-4.4.2-.2 1.9-2 .2-1.6 2.2 1.6 2 2 .1.3 3.3-.5 3.4-8.4 1.6-4.9 6.3-4.5.8-5.1 6.7-9.6 7.4-1.3 1.2 1.7 5 2.1 2.3.4-1.4 1.6.4 2.7-2.3.1.7.4 1.7.6 2.4.4-.3.7-.7.5-1.2 4.2.5 1.4-3.8 4-3.1-.1-2.8 2.2-1.1 3.9-2.7 1.2 0 .7-1.9 1.7-2 1.6.5 1.3-1.3 1.8-1 2.5.9.7-3.6 5-4.5 2.1-.5-2.4-1.9 1.4-3.4 1.5-.6.5 2.4 2 1.3-1.9-.6-.8-2.5.8-2.1-.3-.7.4-1.4 1-.7.6-2.5-.9-1.5 1.5-2.8-.8-1.3.7-1.3 1.5-1.4 4.2.3.4-3 3.9-2.6 2-4.2 7.3-5.4 9.9-9.3.2-1.4 1.9-.8 1.5.5.3.4-1 1-.1 1 .5-.3 1.1-.1 1.6 0 1.5-1.5-.5-.7 0-1.6-.2-3.8 1.9-1.1 3-4.3 1.1 0 1 1.5 1.2 2.2-2.1.5-.4 3.2-2.1 4.7 5.8-1.1 1.3-2 3.2-5.4 2.4.7-1-5.4 1.3-5.5 1.4-.5 3.9-.1 2 1.6 4.9 1.4.5 3.1-1.7 4.3 3.6 1.4 11.4-4.6 8.8-8-3.1-2 3-1.7 2-3.8-.5-2 1.3-.8 1.4-1.8-.8-1.3.7-1.3 1.5-1.4 4.8-.5 5.2-4 9-5.7-1.8 3.5.5 4.1-1.1 4.4-.9.1-3.1 1.7-2.2 2.9 2.2 6.7 5.4-7.2 9.8-2 .7.3-.3 1.3-.8 1.3-1.8 2.6 2-.2 2.1-1.3-1.5-.7 2.4-2.6-1.2-2.1 6.4-7.8-1.9-2.7 1.3-8.1 1.3-1.2-.6-.5-.1-1.4-.2-3.8 1.9-1.1 3-4.3 1.1 0 .7 1.1 1.1 1.7.8 1-1.2.4-1.1 1.3.4 1.9-.1 2.4-.9 3.9 4.7-1.7 2.8.5 2.8-3.6-.4-3.2 2.6-.3.8-5.9-.6-2.3 5.5-2.1 2.9.2-.7 1 2.3-.6 2.4 1.9-1.2 1.3-2.4 1.9-4.1 2-.2 1.1 1.7 1 2.3.4 2.4.1 4.4-2.3 6.2-3.4.5-5.3 4.9-.9 1.2.4-2.1 1-2.8 3.3-1.5 5.2 2.7 1 2.4-1.4 3.6-3 .6-1.1 5.2-.9 3.5.9 1-.9 3.9-4.1 4.1-1.8-1.3 1.8-3.7.6-3.8 3.4 1.1-.4 2.6-.9 3.7-1-1.1 2-9.6 9.2-4.4 1.8-4.1 2.2-10.4 10.4-1.8 5.7 3.8-4.7 9.1-8.5 14.2-10.6 3-6.6 10.8-6.5 7.6-5-1.2.1-1.5 1.2-2 2.2-.8 2.3-7.2 3.1-3.7 5.7 3.3 3.9-6 6.4-3.3 9.8-.4 1.5-4 1.6-3.3 3.6 1.1-3.1 5-2.4 4.7-6.2 1.1-3.9 4.2 3.9 6.9-2.2 1.8-2.1.6-5.8 4.4-6.1 6.5-3.2 2.3-.2 5.6.5 3.5.6.4-2.9 4.1-2.4.2-.3-.4-1.1-.8-.9-9.4-2.5 2.5-4.7 1.6-9.1-.3-2.2 3.2-.7 4.5-1.1-3.1 3.7 1.8 1.5 2.4 3.4-6.4 4.5-2.8 7.3.6 2.3-.1-.6 4.5-3.4 3.6-1.8.3.4.7.8 1.1 1.1 2.1-2.1 4.5-4.1 6.6-5.9.4 1.8-9.7 10.3-6.8 6.3-.4-.3-.6-.9-1.2-1.1-1.4 2-4.2 3.2-4.9 5.5-.8 2.6-3.5.9-5.3 2.5-1.6.5-7.4 4.8-4.1 6.4 1.3 1.3-2.6 2.6-2.3-2.1-2.4-1.1-1 2.6-2 3.8-.5 1.2 1.5 2.1.4 3.3-.2 1.5-3.4.1-1.1 2 2.1-3.9 5.6-2.7.6.9.2.5 0 1.4.2 1.9 3.3-.8 7.3-3.4 8.2-6.8-.5.2-.9.9-1.4 1 1.3-1.5 1.3-1.6 0-1.5 3.2-.5 7.2-6.7 9.7-6.8-.2 3.6-4.4 3.8-6.1 6.8 5.8-6 4.6-1.2 6.4-3.5 2.9-3 5.8-5.2 8.4-8.6 6.2-8.7 4.8 2.4-1.9 2.8-.8 5.8-5.4 7.7-10.3 12.7 1.2 0 2.5-.6 2.8 1.1.7 0 1.7-1.6.4-1.3-1.1-3.7 10.3-8.2 13.4-12.4-.3 0-.6-.3-.6-.6.9.6 5-2.7 3.4.3 4.6 1.8-12.8 8.8-11.2 13.7.3-.2.6-.4 1-.6-.5 1.6-6.7 4.4-2.4 1.5-1.3 1-3.5-1.1-4.1.8-.4 2.1-1.9 1.1-.9-.5-1 .9-1.4 0-2.3.6.6-.7 1.5-1.4 2.5-1.6-.6-.2-1.7-.2-1.9-.9-2.8 5.6-11.4 8.3-13.9 13.1 2.1-2.1 2.9.4 1.9 2.3.4 1.7-3 1.2-1.5 2.9 5.1-3.2 3.8 1.9 7.8-2.9-7.9-2.9 4.3-5.1 2.5-9.7 1.5-1 3.2.4 4.5-.9-.1.2-.3.5-.4.7h.3c-.3.4-.5.7-.7 1 1.3-.9 2.5-2.7 4.1-2.5-.1.2-.2.4-.4.6 2.6.6 2.8-2.5 5.1-1.5.8.1 3.6-2.8 3-1-1.9 2.9-7.8 5.4-6.1 9.2 3.3.9-1.7 6.6-2.2 1.9-1.9.6-1.4 4.4-4.2 3.4-4.6 13.3 9.1-2.4 12.4-5.7 2.9-1.7 2.7 2.4 6.7-3.7.7-2 9.7-8.6 4.9-9.3-4.8 1.7-4.6 7.3-9.7 9-3.1.4-2.3 6-3.9.2-.4-2 2.9-2.6 3.6-4.3-1.8-1.7-.6-2.2 1.1-1 1.4-.6 7.1-7.3 3.7-2.2 3.3-.4 4.6-5.5 6.5-7.8-2.9-2.9 4.1-5.7 5.5-8.1.4-1.3 2.3-2.2 2.3-.4-1.2 3 1.8-1.3 1.5 1.1 6.1-2 .1-12.8 9.8-11.4.7 1.6-2 2.1-2 3.4 9.1-2.2-.6 6.9-4.7 7.2 3.9 2.8 16.1-7.7 18.4-12.1 3.3-5.3 6.2-.8 1.8 2.2-3 1.4-8.9 5.8-6.3 9.3-.4 2.8.8.4 2.4.4-2.4-1.2 1.2-2.6.4-.1 2.8-.9 2.8-4.7 5.1-6.3 17.2-8.2-4 9.5-8.4 10.8-2.1.7-1.1 3.9-3.4 3.5-1 .5-2.9 1.4-1.2 2.3 1.2 2.2-3.6 3.7-3.4 6.1 2.3-.4 1.4 3.5 1.6 5 2.1 2.1-.2 5-2.8 4.8-1.1.1-.5 1.6-1.5 1.9-.6.3-1.3.6-1.7 1.3 1.3 1.3 3 1.5 4.7 1.3-.5-3.1 8.2-10.2 11.1-11.6-.8-2.1-.9-6.1 2.1-6.4-1.4 8.6 14.7-10.5 18.5-12.8 7.5-2.2-6.8 8.9-8.8 8.3-3.2 2.5-4.6 6.6-8.2 8.6 3.5 1.9-5.2 2.3-4.4 7.5-1.4 1-1.1-1.5-3 .4 2.7 1.2.5 3.7-1.2 4.6 5.5.5 8.7-6.8 12.8-9.9-2.5-1.6.6-2.8.8-.3 2.9 2.7-12.2 9.3-8.2 13.6 19.2-17 13.8-6.9-.2 2.7-.5 0-8.2 5.8-6.2 5.9 4.6-4.7 4.3 9.2-3 4-.3.2-.4.6-.5.9 1-.2 1.2 1.2 1.3 2.1 2.2-.9 2 1.3 2.7.7.9-2.4 2.4-2.5 4.4-2.1-.1-5.6 9.2-7.8 12.4-12.3-.2-2.8 5.7-6.1 3.1-1.4.6-.5 1.5-.6 1.5-.2 9.3-9.5.7 3 7-2.2-.9 5.5-2.2 3.6-6.2 6.4-1.3 1.6-2.2 4-4.4 4.3 1.6 6.8-7.9 4.7-.2.1-1.4.2-.6-1.6-1.2-2.4-1.1 1.5-1.9 3.2-3.5 4.2 2.3.1-.8 2.6-1.3 3.7.5 3.1-7 5-9.8 7.5 1.1-.5 2.8-.1 3.1 1.2 2.2-.2-1 1.9-1.1 2.6 6.3-2.2-1.9 4.9-4.2 5.3 1.6 3.9 18.9-16.4 16.8-10.9-7.1 4.9-11.5 16.2-1 4 17.9-9.6-21.1 18.5-7.8 10.2l.3.7c-1.2 1 .7 1.5.5 2.4 1.8-2 .6-1.8 1.5-3.6 3.5-.6 5.9-5.7 8.6-5.5-.5.9.4 1.2 1.1.9.3-1.1-.8-.6-.6-1.9 2.6-.6 4.6-4.2 6.7-5-.1.7-.4 1.4.1 1.9.2-.7 1-4.1 1.8-2.4.1-3.1 5.1-.6 5.6-5.1l.9 1-1.1.1c1.5.7.8.8 2.2 1.7.3-.7.4-4.2-.2-2.1.4-3.2 6.9-5.5 9.2-7.1 1-2.5 5-1.2 5.2-4.3l-.1.7c3.9-1.2 11.4-9.5 12.2-7.9.2-1.6 1.3-1.3 2-2.4.1 1.4 1-.4 1.5.6l1-1.6c1.8.9-.1-3.5 2.2-2.7 2.2.1 4.4-5.6 7.7-6 1.8-5.9 2-1.8 6.7-3.6.4.3.7.7 1.1 1-.3 0-.6-.1-.9-.1.9.3-.3.8-.5 1.1 1.2 0 2.3.7 3.3.6-4.6 1.9-1.4 3.7-3.7 4.2-4.7.8 2 5 4.1 3.3 2.2-7.3 3.7-4.3 8-9 5.6-1.2 1.7-7.7 6-4.6 5.6 3.4 3.8-7.8 8.7-7.9 6.4-3.1 1.9-.8 5.6.5 3.5.6.4-2.9 4.1-2.4.2-.3-.4-1.1-.8-.9-5.5-1.1-4-4.2.3-5.6 2.7-4.2-1-5.1 5.5-4.6-3.7 4.1 3.8 1.3 2.1 4-1.2 1-2.8 1.4-3.1 3.1-1 2.8 4.6-1.1 2.5 2.6-1 2.6-5 1-8.2 4.3-1 1-3.7 3.5-1.2 4.6 1.2 1.5-2.6 2.5-2.4-2.1-4.1-.8.9 8.5-3.4 8 .8 1.1 1.8 2 1.6 3.6 1.2-.1 1.8.5.1.7.2 3.6-3.1 7.8.3 10.7 2.5 2.3-3.6 1.6-.2 4.2 2.8-1.2 5.4-1.4 7.4-3.8-2.6-1.4.5-5.7 2.4-5.7.5 3.4-3.7 1.2-1.5 5.6 2 0 17.7-16.7 16.8-13.1-1.9 2.9-7.8 5.4-6.1 9.2 3.4.8-1.6 6.6-2.1 1.9-1.5 1.3-5.7 3.7-4.6 5.9.9.8-1.9 2.6-.1 2.7 6-.5 8.7-7.7 13.3-11 3-1.5 2.7 2.4 6.7-3.6.7-2 9.7-8.6 4.9-9.3-.8 1.3-3.1.7-3.3 2.3 0 .7-.5 1.2-1.1 1.4-1.6 5.5-6 3.9-7.3 7.4-1.7 2.3-2.9-4.4.3-4.3 0-.8 1-1.3 1.4-1.9-2.6-3 1.5.7 6-5.2-2.6 5.7 4.3-3.5 5.2-5.8-1.8.1.6-5.6 2.5-5.5 2.4-.4 5.2-7.6 5.2-1.8.6-.4 1.8-1.6 1.6-.1 6.1-2 .2-12.9 9.8-11.4.7 1.6-2 2.1-2 3.4 2.3-.5 1.9-1.9 3.9.7-.1 4-8.2 5.2-8.4 7.2 7.6 2.4 23.2-21.1 22.3-13.3-2.5 4.5-11.3 6.6-8.5 12.9-.3 1.4 1.8-.7 2.5-.5-2.4-1.2 1.2-2.6.4-.1 4.7-3 3.1-8.4 10.9-8.4 2.4-.2.1 2-.4 3.1-1.7 2.9-5.4 2.6-7.7 5.2-3.4 2.5-1 3.6-6 4.6-2.1.7-1.1 3.9-3.4 3.5-1 .5-2.9 1.4-1.2 2.3 1.3 2.2-3.6 3.7-3.4 6.1 2.3-.4 1.4 3.5 1.6 5 3.3 4.4-4.4 4.9-6 8 1.2 1.5 3.1 1.5 4.7 1.3 1.1-4.7 7.1-8.9 11.2-11.6-.7-2.1-1-6.1 2.1-6.4-1.9 9 15.1-10.7 18.5-12.8 7.5-2.3-6.9 8.9-8.9 8.3-3.1 2.4-4.6 6.7-8.1 8.6 2 1.8.8 1.7-1.1 1.7-1.3 2.9-3.5 2-3.3 5.8-1.5 1-.9-1.5-3.1.4 2.7 1.2.5 3.7-1.2 4.6 5.5.5 8.7-6.8 12.8-9.9-2.5-1.6.6-2.8.8-.3 2.9 2.7-12.2 9.3-8.2 13.6 20.2-18.1 12.7-5.1-.8 2.8-.8.8-7.4 5.7-5.6 5.8 4.7-4.6 4.2 9.3-3 4-.5.4-.4 1.1-.7 1.5 1.3-.7 4.2-.1 2 1.4 1.8-.9 1.9 2.4 2.7.3 1.2-2.9 4.9-1.2 7.5-2.7 4.5-3-4.7.3-.8-3.5 3.8 5.7 15-19.4 12.9-8.5 1.2 0 3-1.8 3.9-2.9 4.7-5.2-.7 4.9 4.5.1-.7 5.2-2.1 3.7-5.9 6.2-8 10.8-4.5-.3-6.9 1.5-.3 2.3-2.7 1.4-3 2.7-1 2.9.3 2.3 2.6 2.6-1.2 1.7-5.6 3.4-.9 4.1-1.4 2.3-3.7-.1-5.7 3.1 3.7.7-.2 3.1-1.9 3.2-1.3.4-1.2 2.6-2.7 1.9-1-.1-1.1 1.4-1.9 1.5-.2.1-.8.1-.6.5 1.1 1.9 1.3.3 2.7.4 1.5-3.2 4-.6.2.6 2.9 2.9-3.4 2-4.1 4.9 3 .2-1-1.8 2.8-1.6 3.2.7 1-.9 3.6-1.4-1.7-.9 1.2-2.7.3-3.2-1.3-1.5-.4-1.1 0-3.1 1.7 2.1 2.3-2.4 3.4-.3.5 2.2-.2.7-.8 2.4.3 1.4-.7 2.1-1.1 3.1 2.2-.2 2.1-3.3 2.8-4.5 1.9.1.2-2.8.5-3.8.1-1.6 4.7-1.2 2.6.5-.8.9.6.1.9.4-.5-3.8 2.9-1.1 2.9-3.6.1-.7 1.1-1.1 1.5-.5 3.8-.2 10.3-6.7 13.1-9.4 3.2-2.5 3.9-.7 4.7-4.3 2.8 0-1.1-1.9 4.1-1.8.4-1 2-.4 2.1-1.8.5-1.4 1.3 0 2.4-1.6 2.5.9.7-3.2 5.2-4.2 1.5-.1-.5-1.5-.2-2.1.3-1 2.7-2 2.5-.4-.3 1.9 3-.2 2.2-1-1.8-2.4 3.3.1 4.5-4.2 3.1.9.3-4.6 3.6-3.3 1.2-2 3.7-3.6 4.8-4.6 2.2.5 7.3-7.6 6.9-3.4.3.4-1.2 1-.2 1 3.2-.9.7 2 1.4 3.2 1.9 1.1 3.6-.4 5.2 0 .5 3.2 1.9-1 2.6-.6 2.2.4 8.5-8.3 6.7-2.8-.9.9 1.5-.1 1.8.6.5-.4-.2-1.1.2-1.5 2.8-2.2-2.2-3.8.7-4.7 2.7-.2.3-2.9 2.6-2.9.5-1.5-.4-1.1 1.7-1.7 2.9-.9-3-3.1 1.2-3.5 2.1-.9-.4-2.7 2.1-2.8-.5-2.4 2.6-.9 3.3-1.8.1-.4.6-.6.9-.4 2.3-.5 7-7.1 4.6-1.2.3.4.3.9.7.3.5-1.3 2.6.5 1.2 1-1.6.3-4 2.2-4.4 3.7 2.3 1.3 5.9-3.4 5.1-4.9-.1-3.4 1.6-1.2 2.4-3.3.7-1.5 1.5.8 1.4 1.5-1.8.1-.6 2.1-1.4 3.1-.1 1.7 3.9-.3 1.4-1-.4 0-.1-.3-.1-.5.9-.3.1-1.8.8-2.1 1.4.3 1.2-2 0-2.1-1.5-.8 1.2-2.6.4-3.1-.9-2.8 1.9-2.1 2.5-4.2.9-.1.9 1.4 1 2-1.4.3-1.1 1.1-1.1 2.3.6.3.8 1.5 1.7 1.1-1.1-7 2.1-1 .8-8 1.1-1.8 4.3-1.3 2.8.9 3.8-.1.5 3.7-1.8 3.3 2.8 4.1 10.8-8.9 9.7-2.9-2 1.4-4.7 2.9-2.2 5.3 2.7.1 2.8-5.5 6.4-2.5 1 .5-.4.7-.4 1.4-.3 1.3-2.1.5-2.9 1.2-1.3.5-1.1 2.6-2.7 1.9-1-.1-1.1 1.4-1.9 1.5-.2.1-.8.1-.6.5.8 1.7 2.3.6 3.1 0 .2-2.4 4.4-.6-.2 1 3.1 2-3.6 3.1-4.6 5.1-2.1 0 1.2 1.3-1.2 2.5.4.3 1.4-.6 1.1.1.1.9.4-1.3 1.6-1.2 1.1-.1 1-1.8 2.2-1.6 2.1-.9.8-3 3.1-3.2-1.8-.9 1.3-2.7.4-3.2-1.1-.5-.4-3.3.4-2.9 1.4 1.7 2-2.8 3-.5.5 2.2-.2.7-.8 2.4.5 1.5-2.3 3.9-.3 2.8 1-.2.2-1.6 1.3-1.8 1-5.1 2.2.3 1.3-6.2.1-1.1 2.6-1.4 3.1-.5.5.4-1.6 1.7-.3 1.4 3.7.4-.1 3.8-2 3.3.2 1.3 3 .4 3.8.1-.8-.1-.1-1.2.3-.5.4.1.9-.7 1.4-1-5.8-.9 4.8-4.7 1.4-1-.3.5.6.5.7.1.6-4.8 4.4-1.1 1.1.2-3.2 1.1-1.5 5.4-1 4.3-.2-.3.2-.4.3-.2 1.6 1.8 1.5-2 2.8-2.5 9.7.6-5.9 4.1-5.8 9.5.7-.1.9.8 1.6.8 3.9-7.5 3.1-1 4.1-3.7.5-.6 1.5-1.2 2.3-.7 0 .6-1.6 1.2-1.2 1.8 1 .6-1.8 2.7-.1 2.3 1.7 1.8-4.8.4-4.5 3 .2.5 1.4-.3 1 .4-2 2.5-.5.9.3 2.8 1.8-1.1-1.3-2.3 1.2-2.2.4-.4.8-.9 1.4-.7 1.2 0-1.3-.7-.2-1.3.8-.9.7 1.4 1.4.4.7-1.3 3.2-1.4 2.9-3.3-2.5.6-1.3-.8-.2-1.8 2.7-4.1 7.2-1.5.6 1.3 1.4 2.9 3.9.3 2.7 2-1 .4-.6 1.2-.8 2 1.1-.5 2.4-1.3 3.2-2.2-6-.4 3.2-4.8 1.6-1.5 3.1-.7 1.3 1.1-.1 1.8 1.2.6 1.6-1.3 2.5-1.5 2.9-1.1 3.6-3.7 6.5-4.3 0-2.9 3.8.2 4.7.9-4.1.1-1.1.7-2.9 2.5-2.5-.3-1.1 2.7-3 2-.3-1-6.2 3.2-5 3.4.8.2.8-1.3 1.9-.8-.6-1.7 1.3-2.1 2.2-.7.2.9 3.1.5 1.9 1.6-3.6-.8-.8 1.4-2.7 2.3-2.5-.1-1 2-2.8 2.1-3.1-1.7-4.1 5.1-.8 3.2.8.2-1.7 1.2-1.2 1.7.4-.2 1 .2 1-.5 1.3 1.8 4.3-1 4.5.3-.8.5-2.1 3.4-2.1 1.3-2 1.7.3 3.5 2.1 1.1.3-3 1 1.1 2.7-4.4 3.6-.8 5.7-4.4 7.6-6.4 1.2.2 1.3-1.5 2.2-1.7 3.4-1 2.6-3.4 6.3-4.5 1.2-3 2.1.2 3.7.3 2.1.5.2 1.1-1.1.8-.5 4.5-1.6.6-2.9 4.3-2.5-1.1-15 10.3-11.3 9.4.4-.3.3-1.4 1.2-1.3 1.1 0 .7-1.7 1.8-1.6.9.2 1.3-1 2.1-.8-.7-1.3 1.7-1.2 1.7-2 .2-1.4 1.5-.4 2.1-1 3.4-4.3 1.6-.8 4.9-.5 1.8 1.1-.7.8-1.5.8-.8.5.5 2.1-.8 2.4-2.7-.2-.9 2.9-3.3 1.9.9 1.4 2.7.3 3.4.6-.7-3.2 3.6.2 4.4.7-.1 1.2-3.2-.8-2.4 1.5.4 2-1.7-.1-2.9 3.4.4.6 1.7-.1 1.7.9-.2.9-2-.4-2.3.5.3 3.4-1.2 1.1-2.2 2.7.3 1.6-4.2 5.2-2.8 2.2-1.8.1-1.2.1-.7 1.3-1.5.1-1.5 1.6-1.6 2.8-1.5-1.2-5 2.5-1.7 1.8.4-.2.9.3.4.7.2 1.3 1.4-.9 2-.3-.2-.2-.2-.6.1-.8.5-.6-1.3-.3-.4-1.1 1.3-4.6 2.2 3.7 5.5-2 .1-1.5 1.6-.3 2.1-1.2 0-.3.6-.8.9-.5-.4-3.2 3.4.3 4.4.8-.1.8-1.4.1-2 .3-1.2.3.4 1.9-.9 2.3-2.7 0-1.1 2.5-4.2 1.9-3.2.9-4.8 5.6-8.1 6.5-1 .2 1.1.8.2 1.2-.7.4-.5 1.6-.5 2.4 2.4-1.9 2.7-4 6.1-4.4-1.8.4.2-1.7.1-.3 1.1-.6.1-1.5 2.4-1.5-2.8-1.1 1.7-3.6 3.3-2.4 1.2-.8-.1-.9 0-1.6.2-.3 1.2.1.6.5 1.9 0 .5-2.3 2.3-2.4 3.5-1.4 5.4-4.7 8.5-6 1.3-3.3 2.2.5 4.1.2.4 0 .9.7.4.9-4-.7-.8 1.2-2.7 2.3-2.1-.5-1.2 2.5-3 2-3.4-.5-5 4-7.5 5.5 2.7-.9 2.6-3.3 5.3-4 .2-.3.7-.5.9-.1.2-3.7 2.4.3 3.6.1 2.1-2.8 3.4 2.1 6.2.4-.8-.5.8-2 1.3-1.5.8 1.5 6 2.6 1.3 2.4-1.1.3.4 2.2-1 2.5-2.8.2-.7 2.6-3.5 2.1-4.3 2.5-5.3 4.5-9.7 7.2 4.4-.3 1.8 2.4 6.4 3.5 1.7-1.5 4.6-2.3 5.7-4.1-2.1-1.9 1.5-1.7 2.2-2.8 1-.6-.8-2.7.9-2.7 1.5-.1-.2-1.3 1-1.8 6 .3 10.1-7.4 11.4-5.9.1 1.2-1.5 1.9-.8 2.8.4.3.4 1.1 1 .4.9-1.8 3.6 1 1.2 1.3-1.9.8-4.2 2.8-4.8 4.7 3.9 1.2 7.1-5.1 6.1-7.9.5-2.1 2-.2 3.1-3.3 1.2 0 1 1.6 1.4 2.3-2.2.5-.9 2.8-1.6 4.4 1.3.9 4.1-1.2 1.6-1.7-.4.1-.2-.5.1-.7 1-.6-.1-2.1.9-2.5 1.3.4 1.2-1.8.7-2.3-2.2-.1-1.3-2.4-.2-3.4-1.8-3.6 1.3-3.3 2.8-5.9 3.3 1.5-1.3 3.3.3 5.5 1 .4.8 1.6 2.1.9-2-6.9 2.4-2 .4-9.6.8-2.3 5.6-1.5 2.9 1.1 5.2-.3 1.4 4.4-1.8 4 4.1 4.6 12.9-11.7 11.8-4-2.4 1.8-5.5 3.7-2.4 6.7 1.1-.3 2.5-.4 2.4-1.9.1-3.3 7.5-2.8 4.6.1-.8 1.8-4.3.9-4.9 3.3-.8 1.6-3.2.7-4.7 3.4.5.4 1.3 1.7 2 .7.4-.8 1.7.1 1.9-.9 1.1-3.4 4.7-.4-.1 1.3 3.9 2.1-4.5 4.4-5.3 6.6-2.3 0 1.1 2-1.3 3.3.6.3.9-.4 1.4-.3.1.3.1 1.2.4.4-.2-1.7 2.7-1.1 2.8-2.7 5-2.8 1.7-4.1 5-5-2.4-1.6 2-3-.4-4.9-1.2-.1.6-2.1.4-2.9 1.6 1.2 2.3 0 3-1.5 1-.1 1.5 2.1 1.2 2.6-1.8.4-.5 3.2-2.1 5 2.5-.2.9-2.3 2.8-3 0-5.1 3-.8 1-7.6 0-1.9 5.9-1.7 3.2.5-.5.3-.1.9.3.4 4.6.4.4 4.4-2.2 4 .2 1.7 3.7.3 4.6-.1-1-.1-.2-1.6.3-.6.5.2 1.2-.9 1.7-1.3-7.1-.3 5.6-7.1 1.7-.9 3.3-7.2 5-.4 2-.2-1.1 0-.8 1.6-1.8 1.8-1.6.6.8 5.1 1 3.4-.2-1.3 1.1 1.4 1.9-.2.8-6.1 7.7-2.9 5.4-1.6-2.2 2.3-8.8 4.6-9.7 7.6 1.2.8-.1 1.9-.4 2.5.9-.1 1.1.9 1.9 1 0-1.6 2.6-2.6 2.3-4.6.5-1.6 1.6.9 2.2.7 0-1.3 1.5-2.7 3-2 .1.8-1.8 1.4-1.4 2.3 1.3.5-1.7 3-.3 2.9 2.6-.7-.9 2.5-2.1 1.4-.9.6-2.7.8-2.7 2.2-1 1.5 2.6-.7.7 1.5-2 1.8.4 1 .8 2.2.5 1 1-1.2 1.1-1.6-2.2-.3 1.1-1.5 2-1.9 1.7.2-2.2-1.2.1-1.8.8.5.6 2 1.7.1 1.1-.2 4.9-4.5 2-3.3-3.5-.1 3.7-6.2 5.9-5.4-.2 2.3-3.1 3.5-4.5 4.5 3.8 4.3 1.9.3 4 1.6-1.2 1.1-1.5 1.2-1.4 3 1.3-.7 2.6-1.9 3.8-2.9-1.5.7-4.1-1.7-1.8-2.2.6.2 1-.5 1.4-.8.6-1.2 3.6-.2 2.2 1.1 3.5-1 1.8 1.2.1 2.1 2 .1 2.6-3 4.8-3 1.5-.4 1.6-3.5 3.3-3.8 1.6.7 1.2-1.1 2.5-1.1 0-2 2.2-2 3.2-.4.5 1.2 2.6-.1 2.7 1.4-5.5.7-1 1-3.4 3.3-3.2-.2-1 3.4-3.6 2.6-2.2-.7-10.1 6.5-3.9 3.6-.8-1.8 1.7-2.8 2.6-.8.4 1.3 2.6.2 2.8 1.5-5.6 1-.9 1.1-3.4 3.4-3.1.1-1.1 2.4-3.2 2.8-3.9-2-5 6.8-.7 4-.1.7-2.5 1.9-1.4 2.2.3-.4 1.1.1.9-.7 1.9 2 3.7-.6 5.7 0-.6.6-2.6 4.8-2.6 2-2.8 2.1.6 4.3 2.6 1.2.3-3.9 1.1 1.4 3.1-5.8 2.7-1 5.1-3.4 7-5.5 1.6-.3.2-3 2.2-2.9 4.1-2.2 6.1-6.2 10.1-8.1.3-1.9 2-2 3-.5.6 1.2 2.6.2 2.8 1.5 0 .8-1.2.2-1.7.4-2.4-.3-.2 2.2-1.6 3-3.6.7-1.3.8-2.8 2.6-2.4-1.9-19.1 14.9-13.3 11.8-.3-1.5 1.7-1.1 2-2.2.3-1.5 2.6-1.7 3.7-2.4-.8-1.6 2-1.5 2-2.6.1-1.8 1.9-.6 2.5-1.4 2.2-2.9 2.1-2.9 4.8-1.3.1-2.2 1.7-3.3 3.5-4 1.6-.2-.5-1.5-.2-2.1.3-.7 1.9-2 2.5-1-.3 2.3 2.9.4 2.2-.7-1.8-2.9 2.2.8 4.2-4.3 3.3.3-.1-3.8 3.6-3.8 2-4.1 10.9-7.3 10.7-10.9.6-3.8 4.3 1.6 3.1-3.8 2 2 2.4-2.2 3.9-2.5.7-1.8-.7-2.2 1.5-2.9.3-1.6 2.5-2.1 2.3-3.8 2.4.6 4.8-7 5.5-3.3 2.5-1.1.3 1.8 1.7 1.7 3.4 0 2.2-2.9 4.9.3 1.1-.6 1.3.5.9 1.2 1.3-1 2.1.3 1.8 1.5 1.4-1 1.9 1 2.4-1.4.3-.6 1.3-.6 1.2.2 4.4-.9 8.9-12.8 12.3-7.8 1.2-.4.7.7.9 1.1 2.7-.2 1.3-2.1 3.5-.4 1-.7.8.9 1.6.9.3 0 .8.3.7.7-1.1 1.9.7.6.4 1.8.2 1.1 1.6.1 2-.4.9-1 1.5 1.9 2.5.6 1.3-.9 3.6 1.3 4.2 1.9 3.5 4 1.2-.1 4.7 2.4 5.8 8.8 4.7 1.7 7.8 6.5 2.5 2.3 4.7 5.1 6.6 7.7.3.7 1.4-2 1.9-.2 2.2 3.2 7.8 6.4 6 10.8.7-.1 1.8-2.3 2.2-.7 2.1 3.5 7 5.4 6.4 10.1-.7.7-1 2.2.1 2.7 2.9 0-1 2.7.5 3.9.7 0 2.1.7 2.5.3-.4-2.3 1.6-1.1 1.8-2.8 7.9-4.7 12.8-13.3 20.1-18.2.3-3.3 4.3-2.7 2-4.1 1.8-3.4 2.8 1 3.3-2-.6-.3.3-.8.1-1.3-.3-.1-.2-.4.1-.3 1 1.7 2.5-.8 2.9-1.7 2.8-1.2-.3-2.2 2.7-3.2.3-1.4 2.8-1.9 2.7-3.4 2.3.1 3.7-4.7 5.4-4.1-.2 1.8.7 0 1.4 1-1 4.2 3.4-1.8 5.3 1.9 1.1-.6 1.2.5.9 1.2 1.2-.9 2.2.1 1.7 1.3 3.1 0 2.8-3.1 3.8-1 4.3-1.7 7.7-10.2 11.7-8.5.4 2 1.8-.6 1.7 2 1.2.5 2.6-2.3 3.1-.4 3.3-.8 1.6-3.4 3.6-3.6 3.1.1 10.3-14 9.2-5.4 7.7-2.3-3 7.5 11.2 1.9.5 3 2.6 1.3 2.7 3.3-.4 1.3-1.4 2.2.5 2.7.9.5-.3 2 1.1 2 1 .4 1 .4.8 1.4.4 2.3 3-.2 4.3.6 6.8 4.8 2.5-4.6 8.9 1.1.4 2.9 9.4 9.2 3.6 11-1.1 2.5 2 2.1 3.1.8 4.9-4.8 2.7-1.8 6.6 2.5 6.3 5.7 6.5 8.5 5.5 16.2.5-.7 2.5-1.2 2.2.1-.4 1.9 2.9-.1 2.1-.9-1.8-2.8 2.5.8 4.6-4.2 1.4.6 2.1-1.4 1.9-2.6-.4-1.6 1.8-.2 2.1-1 1.1-1.9 3.7-2.8 4.7-4.1-4.4-2.9 3-1.1 2.5-5.9 2-.6 1.7.5 1.7-1.6 1.1-.7 2.8-.8 4-.4 1.1.5 1.4-2 2.6-.9 1.7-.3 11.3-8.6 7.1-2.5-1.3.6 1.2 1.7.1 2.5-3.6.9-4.5 2.2-3.6 5.2 4.5 2.1 6.4-6.2 10.3-4.9 4.6 2.8 2.7.8.6 3.8.2.4.7.6.9.2.2-1.3 3.2-1.5 2.6-2.7-.9-.6 2.4-2.9-.6-2.5-1.6.4.2-1.1.8-1.2 6.5-6.8-4.1-2.6 1.1-8.3.8-.9-1.2-.1-.3-2.9.3-1.8 2.9-.6 3.5-2.4.3-1.1 1.7-.7 1.8.3.7 3-.3.7-1.4 2.5.3 4.2-1.1 2.3-1.6 4.4 6-1.8 3.9 1 4-4-.3-3.7 3.4-.2 1.7-5.8-2.1-3.5 7.9-3.3 3.7-.6 5.4 1.2 1.8 4.4-2.7 4.3 3.6 2.7 11.2-2.3 13.3-5.7 2.1-1.4 2.8 2.3.8 2.9-3.3.6-5.2 3.4-3.5 6.2 3.1 1.4 3.2-1.6 5-3.3 13.5-1.6-3.9 5.8-6.1 7.2-4.4 2.2.6 1.1-1.7 3.8-2.8 1.1.4 1.8-3 2.3-2.5 4.5-3.7.1-6.7 3.4 7-1.6.1 2.6-1.2 3.4-.3-.4-1.5.4-1-.4-1.4-.5-2.2 1-2.7 2 1.3 0 .8 1.3.5 2.1.3-.4 1.2-.6.8-1.2-2.8-3.3 7.1-1.6-1.1 2 1.8 2.3 5.7-5.7 5.3-1.3.1.5-1.1 1-.2 1 3.9-.9-.6 3.6 2.2 3.3.5-1.7 2.8-1.1 3.6-2.6.2-.9 1.6-.9 1.5 0 0 1.9-.1 1.1-1.5 2 .7-.5 1.6-.2.6.6 1 3.6 1.2-2.2 3.6-2.3-3.2.3-1.6-2.9.5-1.9 0-.8-.5-1.5.2-2.2-3.2.6-4.7 3.8-7.8 4.5 1.6-1.2 7.8-8.8 8.8-5.1 4.7-1.6 8.4-5.6 13.1-8.3 1.2-3.5 4.9-2.6 7-6.7 2.2-.3.6 1.5 1.3 2.4.5.7-.5 1.4-1.2 1.4-2.8 1.8-1.9 5.9-5.2 7.6 3.8 0 6.5-4.2 7.2-7.7-.1-2.3 3-1.3 3.3-3.2.7-4.7 1.5-10.5 7.6-8.8.6 1.6-1.9 2-2.2 3.2 6.4-1.9 3.1 3.2-.4 5.2.4.1.8.7.7 1.2 6.1-2.7 11.4-7 15.4-12.1 7-2.3-1.5 6.3-3.7 6.7.6-.5 1.8.4 1.4.9-.8.7.6 1.7-.1 2.3-1.9.8-3.1 1.7-3.2 4 5.5-.7 2.7-4.7 5.8-5.6 4.2-2.4 1.1-12.9 9.3-10.2.6 1.6-1.9 2-2.2 3.2 7.6-2.2 1.4 5.6-2.6 6-8.3 5.9 13.9-4.8 15.4-7.7 3.5-8.4 9.7-3.7 2.1.4-4.3 1.1-9.7 11.3-3.2 9 9.8-12.3 20.3-8.3 3.9-.6-2.5.9-3 4.6-5.7 4.5-1.1-.6-8.7 5.7-6.3 6 1.2 2.8-2.4 3.1-3.4 4.8-1.8 4.9 3 5 4.4.3 6.1-2.8 5.8 2 .1 3.3-2.7 1.5 0 2.3-3.8 2.5-1 .3-.9 1.9-1.9 2-.4.1-1.2.5-.6.9 2.4 1.5-1.5 2.2-.8 3.3-4.8 5.5-4 1.2-7.2 4.7.9-.7 2.1-.5 3-1-.5 1.8-2.2 3.4-4 3.6.1.1.1.3.1.5-.4-.4-1.4.7-.9-.2-1.5-.4-1.9 1.4-2.5 2.3-.8.8-2.4 1.2-2.3 2.5 0 .8-.3 1-1.2.9-1.3.7-3.9.6-2.2 2.5-.7.1-.6-.9-1.2-1-.7-.1-.3-.6-.2-1-1.2.2-2.3 1.1-3.2 1.8 4.1.7.3 2.5 1.7 3.8 1.5.3.1 1.1-.3 1.8 1.7-.9 3.1-2 4.6-3.4-.2-.8 4.1-2.8 4.2-2.3-.7 1.9.3 1.9-2 2.9 6.5-4.2 1.3 1.7 5.2-.2 0 3.8-.8 1.6-3.3 2.8-4.5 6-2.8-2.7-5.6.6-2 3.2 1.7.2-1.3 5.3 1 .9 2.1-2.4 3.4-1.3.8 1.2 3.7-3.3 2 2.4 1.3-2.4 5.4-3.6 5.7-1.2.2-.4 1.7-1.1 1.1-1.5-.1-1 1.9-2.6-.7-1.5.3-.7 4.8-4.7 2.7-4.8-.6-.1-1.9 0-1.3-.9.7-1.6 1.8-1.5 1-2.7 0-2.9 2.3-1.8 3.4-4.3 2.7-.7-1 5-1.6 6.3 6.1-1.6 1.1-3.7 5-5.9-2.9.7-1.7-2.4.4-1.8-3.2-.9 22.4-21 17.1-14.2-3.4 2.4-7.7 4.1-9.7 8.1.3 1.1-2.4 1.7-1.1 2.7.5 1.5-2-1.2-2.5 1.4 3.9 1.5-3 3.5-3.4 4.3 4.5 1.6 11.6-10.3 12-6.5-6.8 5.1-4.1 10.3.3 3.1 10.8-4.3-5 6.3-6.6 7.5-1.2.8 1.9.7-.9 2.7-.4.1-.5.5-.4.9-.1.9-1.4.4-1.6 1.3 1.6-.4 5 .7 5.3.6-.4-2.2 5.5.4 5.4-1.8-.6-.4-3 .1-2.1-1.4 1.8 1.5 4.1-.7 4.9-2.4 3.5-8.4 1.4 2.4 5.5-3.6 1.7-1.1.2 3.4 2.6 1.2.6 3.6-.7 1.7-2.9 3.2-2.4 4.8-2.9 1.1-4.4.2-.2 1.9-2 .2-1.6 2.2 1.5 2.1 2-.1.3 3.2-.5 3.4-8.4 1.6-4.9 6.3-2.6.8-2.7 1.2-4.4 3.1-3.2 5.9-5.1 2.2-5.5 5.5 1.8.9 7.5-6.9 5.8-1.6-.8.7 1.1.2 1.5.4.3-1.5 2.2-1.1 1.5.4-.3 1-1.2 1 .5.9 1.6-.4 4.2-4.8 4.9-2.9 1.5-1.7-1.5-1.6 1.9-3.1-1.4-2.2 3.7-1.3 4.2-2.2 1.3-.1 9.1-7.9 8-4.9.4 1-1.5 1.4-.6 2.2 1.9 2.4-4.8 1.9-2.6 5.7 2.2 4.2 5.9-6.1 8.9-4.8 6 1.9-.6 1.9 1.5 3.7.3-1 2.9-2.1 2.3-3.1-.5-1.3 2.2-2.7-1.3-2.1 7-8.2-2.4-3.3 1-8.4 1.3-1.2-.7-.5-.2-1.4-.5-3.5 1.9-1.7 2.8-4 .2-1 1.4-.8 1.6.1 1.1 2.9 0 .7-.9 2.4.3 1.9.5 2.5-1 3.9 6.1-1.1 3.1-.7 3.3-3.9.3-.6-.6-1.9.6-1.8 2.8.1-1.7-5.7 1.1-5.8 6.3-1.5.6 2.3 2.7 1.7.4-.4 1-.3 1.4.1 2.6 1.2-.7 3.3-2.3 3.7-3.2.3.1 1.7 1.4.4 3.3-.1 7.5-4 8.6-6.5 1.7-1.5 2.7 1.9 1 2.6-1.4.4-1.7.3-2.3 1.7-3.3 1.2.9 8.3 3.9.6 6.4-2.4 8 1.5.1 3.3-2.7 1.5-.1 2.4-3.9 2.5-1 .3-.9 1.9-1.9 2-.4.1-1.2.5-.6.9 2.4 1.5-1.5 2.2-.8 3.3-4.8 5.5-4 1.2-7.2 4.7 1-.6 2.1-.5 3.1-1-.5 1.8-2.2 3.4-4 3.6.1.1.1.3.1.5-.4-.4-1.2.6-.8-.3-1.6-.4-1.8 1.4-2.5 2.3-.8.8-2.4 1.2-2.3 2.5 0 .8-.3 1-1.2.9-1.4.8-3.9.6-2.2 2.5-.7.1-.5-.9-1.2-1-.9-.2.2-1.5-.1-2.2-1.4-.6-1.9-1.8-.1-2.4 1.7-1.5-1.9-1.8-2.6-1.3-.7.9-.9 2.8-2.4 2.8-.8-.2-1.6 2-2.2.9-.4-1.9-3.4-.3-2.2.9.6 1.3-4.9 3.2-3.1 5.3 1.9 1.1 5.2-1.1 5 .8.8-.6 4.1-.5 2.4-2.1-.5-.9-2.2 0-2.1-1.4 0-.8 3.9-2.3 3.4-1.4-.5 3.1 3.9-.2 1.9 4.8 1.4.2.8 1.2.4 2.1 9.8-7.9 10.9-6.9 2 1.8 1.1.7 2.2-1.5 3-.3-.4 1.7 1.8 1.9 1 3.2 2.8-1.9 1.9.6 1.4 2.2 1.9-2.6 3.4-3.3 6.2-1.7 1.5-1-.1-.7.5-1.4 1.3-1.5.4-1.6-.8-1 .3-.7 4.8-4.7 2.7-4.8-.6-.1-1.9 0-1.3-.9.7-1.6 1.8-1.5 1-2.7 0-2.9 2.3-1.8 3.4-4.3 2.8-.7-1 5-1.6 6.3 6.1-1.6 1.1-3.7 5-5.9-2.9.7-1.7-2.4.4-1.8 1.2-6.4 12.7-9.4 16.8-15.3 5.2-2.3-1.6 4.6-4 3.7-2 3.1-6.2 4.8-6.7 7.9 1.2 1.9-1.9-1-2.3 1.6 3.9 1.5-3 3.5-3.4 4.3 4 .9 19.6-14.1 10.1-3.4-2.9 1.6-.3 6.9 3.3 0 10.3-4.1-4 5.9-6.4 6.6-3.5 2.2 1 .9-2.1 3.6-.4.1-.5.5-.4.9-.1.9-1.4.4-1.6 1.3 1.5.4 3.6-.8 4.7.7.2 0 1.6.5 1.6-.1-.3-2 5.6.4 5.4-1.7-.6-.4-3 .1-2.1-1.4 1.3.7 2.4.8 3.7-.7-.1-.8 1.5-.9 1.2-1.7 0-.3.1-.5.4-.6 0-3.2 4-3.4 3.3-1.9-.3.5.3 1.4.7.8 5.4-5.1 1.2 1.7 4.7-.7.6 3.5-.9 1.8-3 3.2-1.1 2.9-4.4 3.4-5.1-.1-.1-.2-.7 0-.4.3-.2 1.9-2 .2-1.6 2.2 1.6 2 2 .1.3 3.3-.5 3.4-8.4 1.6-4.9 6.3-4.7.8-6.4 6.5-10.6 7.4-1.3 1.2 1.7 5 2.1 2.3.4-1.4 1.6.4 2.7-2.3.1.7.4 1.7.6 2.4.4-.3.7-.7.5-1.2 5.5.9 2.4-3.6 4.9-3.1-.1-2.8 2.2-1.1 3.9-2.7 1.2 0 .7-1.9 1.7-2 1.6.5 1.3-1.3 1.8-1 4.1 1.2 1.3-3.4 6-4.5 2.1-.5-2.4-1.9 1.4-3.4 1.5-.6.5 2.4 2 1.3-1.9-.6-.8-2.5.8-2.1-.3-.7.4-1.4 1-.7.6-2.5-.9-1.5 1.5-2.8-.8-1.3.7-1.3 1.5-1.4 4.3 0 .8-2 2.9-2.6.3 0-5.3-.1-5 0 2.1-3.7 5.8-5.2 9.2-8.2.8-.4 1.4-3.5 2.2-1.1-.4 2.2-.2 1 1.5 1.5 1.5-1.5-.5-.7 0-1.6-.3-3.5 1.7-1.4 2.6-3.6 1.2-2.2 1.5.9 1.3 1.8-1.7.8.1 2.6-1.7 4.5.5 0 1.2-.3 1.7-.5.3.8-2.3 3.6 0 2.6l-4.6 6918H-1C.9 6999.9-6.2 89.4 0 91.9c-.5.9-.1-.2.3-1.6.3-1 1.2 1.5 1.4.3 2.6-.6 4.6-4.2 6.7-5-.1.7-.4 1.4.1 1.9.2-.7 1.1-4.1 1.8-2.4.1-3.1 5.1-.6 5.6-5.1l.9 1h-1.1c1.5.7.8.8 2.2 1.7.3-.7.5-4.2-.2-2.1.8-5.2 11.7-5.4 15.2-7.1 1-2.5 5-1.2 5.2-4.3l-.1.7c3.9-1.2 11.4-9.5 12.2-7.9.2-1.6 1.3-1.3 2-2.4.1 1.4 1-.4 1.5.6l1-1.6c1.8.9-.1-3.5 2.2-2.7 2.2.1 4.4-5.6 7.7-6 1.9-6.4 2.8-1.7 7.7-3.6.4.3.7.7 1.1 1-.3 0-.6-.1-.9-.1.9.3-.3.8-.5 1.1 1.2 0 2.3.7 3.3.6-4.7 2-1.3 3.7-3.7 4.2-5.3.9 5.1 7.9 5.4-.4 1.7-2.9 5.3-2.8 6.7-5.4 5.6-1.2 1.7-7.7 6-4.6 5.6 3.4 3.8-7.8 8.7-7.9 6.5-3.2 2.3-.2 5.6.5 3.5.6.4-2.9 4.1-2.4.2-.3-.4-1.1-.8-.9-9.5-2.6 2.5-4.7 1.6-9.1-.3-2.2 3.2-.7 4.5-1.1-3.7 4.1 3.8 1.3 2.1 4-1.2.9-2.9 1.4-3.2 3.1-1.1 2.9 4.5-1.1 2.5 2.6-2 3-7.4 1.3-10.3 6.8-1.3 1.4 3.9 3.3-.3 3.2-1.6-.7-.4-2.3-1-3.2-2.4-1.1-1 2.6-2 3.8-.5 1.2 1.5 2.1.4 3.3-.2 1.4-1.3.3-1.9.9.8 1.1 1.8 2 1.6 3.6 1.2-.1 1.8.5.1.7.2 3.6-3.1 7.8.3 10.7 2.3 2.2-3.7 1.7-.3 4.2 11-2.1 3-6.5 9.6-9.5.5 3.4-3.7 1.2-1.5 5.6 2.2-.1 17.6-16.7 16.8-13.1-1.9 2.9-7.8 5.4-6.1 9.2 3.3.9-1.7 6.6-2.2 1.9-1.5 1.3-5.7 3.7-4.6 5.9.9.8-1.9 2.6-.1 2.7 6-.5 8.7-7.7 13.3-11 3-1.5 2.7 2.4 6.7-3.6.7-2 9.7-8.6 4.9-9.3-.8 1.3-3.1.7-3.3 2.3 0 .7-.5 1.2-1.1 1.4-1.6 5.6-6 3.9-7.3 7.4-1.7 2.3-2.9-4.4.3-4.3.1-.8.9-1.3 1.4-1.9-1.8-1.7-.6-2.2 1.1-1 1.4-.6 7-7.3 3.6-2.2 2.9-.2 4.9-5.7 6.6-7.8-1.8.1.6-5.6 2.5-5.5 2.5-.4 5.2-7.5 5.2-1.8.6-.4 1.8-1.6 1.6-.1 6.1-2 .1-12.8 9.8-11.4.7 1.6-2 2.1-2 3.4 2.3-.5 1.9-1.9 3.9.7 0 3.9-8.2 5.2-8.4 7.2 7.8 2.4 22.7-21 22.3-13.3-2.5 4.5-11.4 6.6-8.5 12.9-.3 1.4 1.8-.7 2.5-.5-2.4-1.2 1.2-2.6.4-.1 4.7-3 3.1-8.4 10.9-8.4 2.4-.2.1 2-.4 3.1-1.7 2.9-5.4 2.6-7.7 5.2-3.4 2.5-1 3.6-6 4.6-2.1.7-1.1 3.9-3.4 3.5-1 .5-2.9 1.4-1.2 2.3 1.3 2.2-3.6 3.7-3.5 6.1 2.3-.4 1.4 3.5 1.6 5 3.3 4.4-4.4 4.9-6 8 1.3 1.3 3 1.5 4.7 1.3 1.1-4.6 7-9 11.1-11.6-.8-2.1-.7-6.1 2.2-6.4-1.9 9 14.9-10.7 18.5-12.8 7.5-2.4-6.9 8.9-8.9 8.3-3.1 2.5-4.7 6.6-8.2 8.6 2 1.8.8 1.7-1.1 1.7-1.3 2.9-3.5 2-3.3 5.8-1.5 1-.9-1.5-3.1.4 2.8 1.1.7 3.6-1.1 4.6 5.4.5 8.8-6.9 12.8-9.9-2.5-1.6.6-2.8.8-.3 3.3 2.3-11 8.6-8.4 12.6-.8 3.9 6.4-4.5 7.4-5.9 15.9-9.3-4.7 8.5-8.1 9.7-.8.8-7.4 5.8-5.4 5.8 4.6-4.7 4.3 9.2-3 4-.5.4-.4 1.1-.7 1.5 1.2-.7 4.2-.1 2.1 1.4 2-.8 1.5 1.6 2.3.9.5-1.2 2.2-3.2 3.5-2.2.8.6 8.3-2.4 4.9-2.7-2.1 1.2-2.8-1.1-1.2-1.9 6.1 3.8 8.7-11.3 13.7-11.2-2.7 4.4 1.5 2.2 3-.2 4.7-5.2-.7 4.9 4.5.1-.7 5.2-2.1 3.7-5.9 6.2-2.7 3.3-5.7 8.1-6.2.9-.4-.2-.7.1-.7.5-.2 2.2-2.6 1.4-3 2.7-.2 2.1-1.3 1.8 1.1 2.5 2.7-1 .5 2.2-.6 1.5-1.6 1.1-.7 2.9 1.2 2.6-1.5 2.3-3.9-.1-5.8 3.1 3.7.7-.2 3.1-1.9 3.2-1.3.4-1.2 2.6-2.7 1.9-1-.1-1.1 1.4-1.9 1.5-.2.1-.8.1-.6.5.8 1.7 2.3.6 3.1 0 .2-2.4 4.4-.6-.2 1 3.1 2.9-4 2.3-4.2 4.9 3 .2-1-1.8 2.8-1.6 3.2.7 1-.9 3.6-1.4-1.8-1 1.3-2.8.4-3.2-1.3-1.5-.4-1.1 0-3.1 1.7 2.1 2.3-2.4 3.4-.3.5 2.2-.2.7-.8 2.4.3 1.4-.7 2.1-1.1 3.1 1.6-.2 2.4-2.3 2.6-3.9 2-1.7.8-1.9.8-4.4.1-1.6 4.7-1.2 2.6.5-.8.9.6.1.9.4-.5-3.9 3.2-1 2.9-3.9.3-.4 1-.7 1.4-.2 4.4.4 6.4-5.6 10.3-6.5 2.4-.5 3.1-4 5.6-4.4 3.1-1.1 1.2-.9 2-2.7 3.4-.3-1-1.9 4.4-1.9.4-1 2-.4 2.1-1.8.5-1.4 1.4 0 2.5-1.6 2.5.9.7-3.2 5.2-4.2 1.5-.1-.5-1.5-.2-2.1.3-1 2.7-2 2.5-.4-.3 1.9 3-.2 2.2-1-1.3-2.3.7-.9 1.6-1.1 1.7-2.2 4.8-2.6 4.7-5.7 2.9-2.5 7-5.4 11.2-8.3.9-.7 2-3.5 2.2-.4.1.5-1.1 1-.2 1 4.7-.5-3.1 5.2 6.6 3.2.5 3.2 1.9-1 2.6-.6 2.3.4 8.4-8.2 6.8-2.8-.8.9 1.4-.1 1.7.6.5-.4-.1-1 .1-1.5 2.8-2.2-2.2-3.8.7-4.7 2.7-.2.3-2.9 2.6-2.9.5-1.5-.4-1.1 1.7-1.7 2.8-.8-2.5-3 .7-3.4 2.7-.3.2-3 2.6-2.9.1-.8-.2-1.6 1.3-1.4 2.6.8 9.2-6.6 8.2-3.7.1.8-1.3 1-.6 1.7.3.4.3.9.7.3.5-1.3 2.6.5 1.2 1-1.7.4-3.9 2-4.4 3.7 2.3 1.3 5.9-3.4 5.1-4.9.4-3.9 1.3-.7 2.9-3.8.9 0 .9 1.4 1 2-.2.4-1-.1-1 .6-1.4 5.1 3.6 2.8 1.1 1.5-.7-.2 1-1.1.5-2 .2-1 2-.2 1-2.3-1.8-.2-.9-2.1-.1-2.9.3-.2.1-.4-.2-.5-.5-.4.2-1.2 0-1.8.5-1.5 1.8-.2 2.6-2.4.9-.1.9 1.4 1 2-1.6.2-1.8.8-1.6 2.3.6.4.6 1.2 1.6 1.2-.9-6.7 2.2-1.4 1-8.1 1-1.7 4.3-1.4 2.8.9 3.5-.4 1.1 3.7-1.4 3.2-.7 2.5 6.4-1.5 7.2-2.4.1-2.7 3.4-3.1 2.1-.3-2.4.5-4.8 4.9-1.3 5 2.1 0 .8-5.1 5.6-2.4 1 .5-.5.7-.5 1.4-.3 1.3-2 .5-2.8 1.2-1.3.4-1.2 2.6-2.7 1.9-1-.1-1.1 1.4-1.9 1.5-.2.1-.8.1-.6.5 1.1 1.9 1.3.3 2.7.4.8-.1.2-1.5 1.2-1.7 2.6.4.1 1.7-1 2.2 3.1 2-3.8 3.1-4.7 5.1-2.1 0 1.2 1.3-1.2 2.5.4.3 1.4-.6 1.1.1.1.9.4-1.3 1.6-1.2.9.1.8-1.2 1.4-1.4 3.1-.5 1.4-3.2 3.8-3.4-1.8-1 1.3-2.8.4-3.2-1.3-1.5-.4-1.1 0-3.1 1.7 2.1 2.3-2.4 3.4-.3.5 2.2-.2.7-.8 2.4.3 1.4-.7 2.1-1.1 3.1 2.2-.2 2.1-3.3 2.8-4.5 2.4-.2-1.8-6.9 3.6-4.3.5.4-1.6 1.7-.3 1.4 3 .1 1 3.1-1 3.2-2.9.6 1.9 1.1 2.8.2-1.2-1 1.4-.2 1.8-1.4-3.7-.4-.3-3 1.5-2.6 2.1 0-1.5 2.9.6 1.8.6-4.8 4.6-1.2 1.2.2-3.2 1.1-1.5 5.4-1 4.3-.2-.3.2-.4.3-.2 1.6 1.8 1.5-2 2.8-2.5 8.5.7-1.7 2.7-2.1 5.3-.8-.6-3.8 1.6-3.2 2.2 1.4 1.7-2.3 1.4 1.1 2.8-.1-.9 1.3-1.5 1.6-2.3.8-.3.1-1.6.9-1.6 1-.3.6 1.2 1.4 1 .5-2.1 3.7-2.7 1.3.3.8.7-.7 1.6-.7 2.3.2.3 1.6-.4.9.4-.6 1.1-1.9.8-2.7.7-.8.2-3.5 2.1-1.2 2 1.2 1-2.5.9.4 2.8.2.9.9-.8.8-1.2-1.8-.5 1.5-1.2 2.2-1.5-1.6-.6-.3-2.2.1-1.1 0 1.1 4.3-2.2 3.6-3.1-2.4.6-1.3-.8-.2-1.8 2.7-4.1 7.2-1.5.6 1.3 1.4 2.9 3.9.3 2.7 2-1 .4-.6 1.2-.8 2 1.1-.5 2.4-1.3 3.2-2.2-6-.4 3.2-4.8 1.6-1.5 3-.8 1.4 1.1-.1 1.8 1.2.6 1.6-1.3 2.5-1.5 2.9-1.1 3.6-3.7 6.5-4.3 0-1.6 1.7-1.7 2.5-.3.4.9 2 .1 2.1 1.2-4.1.1-1.1.7-2.9 2.5-2.5-.3-1.1 2.7-3 2-.3-1-6.2 3.2-5 3.4.7.3.9-1.4 1.7-.7-.6-1.7 1.3-2.1 2.2-.7.2.9 3.1.5 1.9 1.6-3.6-.7-.9 1.4-2.6 2.3-2.5-.1-1 2-2.8 2.1-.8-.5-2.9.1-2.7 1.2-.7 4.5 3.2.6 1.4 2.9-1.7.5-.2 1.3.2.3 1.5 1.9 3.6-1 4.6.3-.8.5-2.1 3.4-2.1 1.3-2 1.7.3 3.5 2.1 1.1.3-3 .9 1.1 2.7-4.4 6.5-2.8 9.3-9.4 16-12.5 1.4-3.1 2 0 3.8.2 2.2.4.1 1.1-1.1.8-.5 4.5-1.6.6-2.9 4.3-2.5-1.1-15 10.3-11.3 9.4.4-.3.3-1.4 1.2-1.3 1.1 0 .7-1.7 1.8-1.6.8.2 1.4-1 2.1-.8-.7-1.2 1.6-1.2 1.7-2 .1-1.4 1.4-.5 2.1-1 .8-.5 1.3-2.1 2.3-2.1.4 1.2 4.2 1.8 2.9 2.5-3.9-.7-.9 1.4-2.8 2.3-2.7-.2-.9 2.9-3.3 1.9.2.9 1.4.3 1.9.8.5.7.8-1 1.5-.2-.7-3.2 3.6.2 4.4.7-.1 1.2-3.2-.8-2.4 1.5.7 1.8-2.5.7-2.3 2.2.2 1.1-1.7 1.4.5 1.5 2.1 1.6-1.5.2-1.8 1.1.3 3.4-1.2 1.1-2.2 2.7.3 1.6-4.2 5.2-2.8 2.2-1.8.1-1.2.1-.7 1.3-1.5.1-1.5 1.6-1.6 2.8-1.5-1.3-5 2.3-1.8 1.7.4-.2.9.3.4.7.2 1.3 1.4-.8 2-.3-.6-.4.6-1.1-.2-1.2-1.2-.3.8-1.3.3-2.2.5-.8 2.8 3.2 3.9 1-.1-.7.9-.9 1-1.5 0-1.4 1.7-.4 2.2-1.2 0-.3.6-.8.9-.5-.6-1.5 1.6-1.9 2.2-.5.5 1 1.9.4 2.2 1.3 0 1-2.1-.3-2.4.6.6 2.7-1.8 1.3-2.4 3.1-.1.8-.4.9-.8.9-4.1-1-5.8 5.5-9.6 6.4-.4.1-.4.1-.1.4 1.1.7-.8 1.2-.3 3.2 2.5-1.8 2.6-3.9 6.2-4.4-1.8.4.3-1.7.1-.2.8-1.4.7-1.4 2.3-1.6-2.9-1.3 2-3.5 3.3-2.4 1.2-.8-.1-.9 0-1.6.2-.3 1.1.1.6.5 3.1-2.8 6.6-5.9 10.7-8.4 1.3-3.3 2.2.5 4.1.2.4 0 .9.7.4.9-4-.7-.8 1.2-2.7 2.3-2.1-.5-1.2 2.5-3 2-3.4-.5-5 4-7.5 5.5 2.7-.9 2.6-3.3 5.3-4 .2-.3.7-.5.9-.1.2-3.7 2.4.3 3.6.1 2.1-2.7 3.6 2.1 6.2.4-.8-.5.8-2 1.3-1.5.8 1.5 5.8 2.6 1.2 2.4-1.1.3.4 2.2-1 2.5-2.8.2-.7 2.6-3.5 2.1-4.3 2.5-5.3 4.5-9.7 7.2 4.4-.3 1.8 2.4 6.4 3.5 1.7-1.5 4.5-2.3 5.6-4.1-2.5-2.2 3.5-1.6 2.4-4-.6-2.2 1.8-1.1 1.4-2.1-.8-2.4 3.3-.8 4-2 .2-1 1.3-.4 1.9-.7.9-.5 6.6-7 5.5-3.8 0 1.3-1.6 1.4-.3 2.6.5 1 1.2-1.6 2.5-.2 1.5 1.8-5.5 3.3-5.3 6.2 2.6 1.5 7.4-4.7 6-6.3.1-4.6 1.7-1.1 3.2-4.9 1.1.1 1.1 1.6 1.4 2.3-2.2.5-.9 2.9-1.6 4.5 1.2.8 4-1.1 1.7-1.7-.4.1-.2-.5.1-.7 1-.6-.1-2.1.9-2.5 1.3.5 1.3-2.2.5-2.3-3.4-.7 1.2-3.6-.3-4.1-1.5-2.6 4.9-7.5 4.3-2.8-2.5.4-.9 3.1-.1 4.1.3-.1 1.1.2 1.2-.2-1.8-7.8 2.6-2 .4-9.6.8-2.3 5.6-1.5 2.9 1.1 5.2-.3 1.2 4.3-1.8 4.1 4.2 4.7 13-11.7 11.9-4-2.2 1.7-5.1 3-2.8 6.4 3.4 2 2.8-6.9 8.2-3.1.9.4-.7 1-.7 1.6-.4 1.6-2.5.7-3.4 1.7-2.2 1.2-.8 3-3.6 2.4-1.7 1.1-3.7 4.3-.6 3.3.3-.8 1.7.1 1.8-.9 1.1-3.4 4.7-.4-.1 1.3 3.9 2.4-4.7 4.3-5.4 6.6-2.5-.1 1.1 2-1.4 3.3.6.3.9-.4 1.4-.3.1.3.1 1.2.4.4-.2-1.7 2.7-1.1 2.8-2.7 4.9-2.5 1.8-4.1 5.1-5-2.4-1.6 2-3-.4-4.9-.9-.1-.4-.6-.1-1.1.8-4.3 1.2 1.5 3.4-3.3 1.3 0 .7 1.4 1.3 2 .4.9-1.3.5-1.1 1.7.3 1.6-.5 2.6-1.1 3.9 2.7-.4.9-2 2.4-2.8.6-.3.5-1.5.5-2.2-.3-1.5 3.1.2 1-4.5-1.4-3.1 6-3.1 3.1-.6-.5.3-.1.9.3.4 4.6.4.2 4.4-2.3 4 .3 1.7 3.6.3 4.6-.1-1-.1-.2-1.6.3-.6.5.2 1.1-.9 1.7-1.3-7.1-.3 5.6-7.2 1.7-.9 3-7 5.2-.7 2-.2-4.2 2.2-1 7-.8 5.2 2.5.9 1.6-1.6 3.7-3.5 1.2-.6 4.8-.3 3.9 1.7-.8 1.4-5.7 1.9-5.5 4.2-.4.7-5 1.5-4.4 3.4 1.2.8-.2 1.9-.5 2.5.9-.1 1.2.8 2 1 0-1.6 2.6-2.6 2.3-4.6.6-1.8 1.6 1.1 2.2.8 0-1.3 1.5-2.7 3-2 .1.8-1.9 1.5-1.4 2.3 1.4.5-2.1 3.4.1 2.8 2.5 1.7-5.9 1.4-5.4 4.2 4.1-.2-1.7 2 .8 2.6 1.6 1 1.4 1.5 2-.9-2.2-.3 1.1-1.5 2-1.9 1.7.2-2.2-1.1.1-1.7.8.5.6 2 1.7.1 7.6-5.9-2.6-1.3 2.2-5.4.6-2.2 3.2-2.9 5.5-3.3-.2 2.4-3.1 3.4-4.6 4.5 3.8 4.4 1.9.3 4.1 1.6-1.2 1.1-1.5 1.2-1.4 3 1.3-.7 2.7-1.9 3.7-2.9-1.5.7-4.1-1.7-1.8-2.2.6.2 1-.5 1.4-.8.6-1.2 3.6-.2 2.2 1.1 3.5-1 1.8 1.2.1 2.1 2.1.2 2.7-3 4.9-3 1.6-.6 1.5-3.3 3.2-3.8 1.7.7 1.2-1.1 2.6-1.1 0-2 2.2-2 3.2-.4.5 1.2 2.6-.1 2.7 1.4-5.3.7-1.1.8-3.5 3.3-.9.2-2.2.3-2 1.5-.2 2.5-2.8-.6-6.2 3.5-.4.4-2.6 1.7-1.5 2.1.8.3 1.3-2 2.2-.9-.8-1.9 1.7-2.7 2.7-.8.2 1.1 4 .5 2.4 1.9-4-.7-1.4 1.4-2.9 2.9-3.1.1-1.4 2.4-3.4 2.9-4-2-5 7-.6 4-.1.7-2.5 1.9-1.4 2.2.3-.4 1.1.1.9-.7 1.8 2.2 4.4-1.3 5.7.3-.9.5-2.4 4.5-2.5 1.7-2.8 2 .7 4.3 2.5 1.2.3-3.9 1.2 1.4 3.2-5.8 4.2-1.4 6.6-5.7 9-8.4 3.6-1.2 11.1-12.2 13.2-8.6.5 1.2 3.5.2 2.6 1.9-4.9-.4-1.4 1.2-3.1 3-4 .2-.8 3-3.9 2.7-2.5-1.2-19.9 17.8-11 10.3 1.3-.1.7-2.2 2.1-2.1 1.1.3 1.5-1.3 2.5-1.1-.8-1.6 2-1.5 2-2.6.1-1.8 1.8-.6 2.5-1.4 2-2 2-4 4.6-1 .4-2.2 1.6-3.6 3.7-4.3 1.6-.2-.5-1.5-.2-2.1.3-.7 1.9-2 2.5-1-.3 2.3 2.9.4 2.2-.7-1.8-2.9 2.2.8 4.2-4.3 3.3.3-.1-3.8 3.6-3.8 1.9-4 10.9-7.3 10.7-10.9-.4-.9 1.9-2.6 2.1-1 1.3.4 1.1-2.1.9-2.8 2 2 2.3-2.2 3.9-2.5 1.1-2.1-1.3-1.9 1.5-2.9.5-1.1 8-10.8 7.8-7.1 2.5-1.1.3 1.8 1.7 1.7 3.4 0 2.2-2.9 4.9.3 1.1-.6 1.2.5.9 1.2 1.3-1 2.1.3 1.8 1.5 1.3-1 1.9 1 2.4-1.4.3-.6 1.3-.6 1.2.2 2.2.2 3.5-3.5 4.8-4.6 1.9.1 4-6 5.1-4.2-.1.8 1.2-.7 1.4.2.5 2.3 1.7-.7 1.7 2.1 1.1.5 2.6-2.4 3-.5.2.6.9-.4 1.3.1.2 1.3 2.3.8 1.2 2.3-1.3-4.6-.3-4.2.2-2.7 1.2.9 1.8-1.6 2.8-.7 1.4 2.1 3.4-1.8 7.7 4.7 2.4-3.7 5.8 7.2 8.1 4.8 3.2 1.2 6.4 6.6 9 9.6.5.6 1.2-1.8 1.9-.4 1.7 3.5 7.7 6.4 6.1 11 .7-.1 1.8-2.3 2.2-.7 2.1 3.5 7 5.4 6.4 10.1-.7.7-1 2.2.1 2.7 2.9 0-1 2.7.5 3.9 4.9 1.2.7-.7 3.7-1.6 7.3-5.5 13.4-13.8 20.6-19.1.3-3.4 4.3-2.7 2-4.1 1-1.5 1.5-1.9 2.5-.7 1.5-.5.3-2.2.8-2.8 2.4 2.3 3.9-4.9 5.6-4.9.3-1.4 2.8-1.9 2.7-3.4 2.3.1 3.6-4.5 5.4-4.1-.2 1.9.8-.1 1.4 1-1 4.2 3.4-1.8 5.3 1.9 1.1-.6 1.2.5.9 1.2 1.3-.9 2.2.1 1.7 1.3 3.1 0 2.8-3.1 3.8-1 4.8-2.4 9.9-13 13.3-6.8.9 1.2 2.9-2.3 3.3-.2 3.7-1.1 1.3-3.6 3.6-3.6 3 .2 10.5-14.2 9.2-5.4 7.8-2.5-3.2 7.4 11.2 1.9-.1 2.8 2.3 1.7 2.7 3.7-1.9 3.6.9 1.5.8 3.6-.6 1.5 2.4.8 1.4 2.5.7 2.4 4.5-.6 6 1 2.4 5 2.8-5.7 7.3 1.2 1.2 2.6 5.4 6.1 5.2 9.4-3.8 1.4-1.9 4.7 1.2 2 4.9-4.8 2.7-1.8 6.6 2.5 6.3 5.7 6.5 8.6 5.5 16.2.5-.7 2.5-1.2 2.2.1-.4 1.9 2.9-.1 2.1-.9-1.9-2.6 2.9.5 4.5-4.1 1.4.6 2.1-1.4 1.9-2.6-.3-1.6 1.8-.2 2.1-1 1.1-1.9 3.8-2.8 4.9-4.1-4.6-3.2 3.2-.9 2.6-5.9 3.5 0-.1-2.2 3.2-2 4.8 1.3 16.7-10.1 12.2-3.4-1.2.7 1.2 1.7.1 2.5-1.3.4-4.8 1.4-3.8 3.4 1 7.2 7.2-4.7 10.5-3.1 4.6 2.7 2.6.9.6 3.8.3.9 4-2 3.5-2.5-1-.8 1.5-1.5.5-2.4-4 .3 1.4-2.2 1.8-4.3 1.2-1.9-2.6-1.2-2.6-2.8.5-2.2 2.2-2.1 1-3.8 0-4.3 2.6-1.3 4.1-4.6 1.2-.8 2.5 3.1 1 2.7-2.4.3.5 2.8-2.6 4.7-.2 1.1 2-.4 2.7-.3 3.7.2 0-1.8 1.3-3.3-.3-3.3 3.6-1.1 1.7-5.7-2.1-3.6 7.9-3.2 3.7-.6 5.4 1.3 1.9 4.4-2.8 4.3 2.8 3.1 7.6-2 10.9-2.5 3.9-6.8 5.8-1.8 3.2-.3-7.5-1.2-5.9 12.7.5 2.8 1.3-1.3 6.8-.5 4.3 1.9-.9 1.9-3.3.5-4.6 1.8-4.2 4.2-3.7.7-6 3.5-4.4 2.3.5 1.1-1.8 3.8-2.8 1.1.4 1.8-3 2.3-2.5 4.5-3.7.1-6.7 3.4 7.1-1.7.3 2.6-1.2 3.4-.4-.5-1.6.5-1-.4-1.4-.5-2.2 1-2.7 2 1.4 0 .8 1.3.6 2.1 2.3-1.3-1-1.8 1.1-2.9 4.2-.2.5 3.5-1.3 3.7 2 2 4.1-3.8 5.3-2.3.5.8-1.1 1.9-.3 2 3.9-.9-.6 3.6 2.2 3.3.5-1.7 2.8-1.1 3.6-2.6.3-.8 1.7-1 1.6 0 .1 1.9-.2 1-1.5 2 .7-.5 1.6-.2.6.6.6.7-.1 1.9 1.2 1-.1-1.7 1-2.8 2.4-3.4-3.4.1-1.5-2.8.5-1.9 0-.8-.5-1.5.2-2.2-3.2.6-4.7 3.8-7.8 4.5 1.5-1.2 8.1-8.9 8.8-5.1 4.7-1.6 8.4-5.6 13.1-8.3 1.2-3.5 4.9-2.6 7-6.7 2.3-.2.6 1.5 1.3 2.4.5.7-.5 1.4-1.2 1.4-2.7 1.9-1.8 5.9-5.1 7.6 3.8 0 6.5-4.2 7.2-7.7-.1-2.3 3-1.3 3.3-3.2.8-4.8 1.3-10.5 7.7-8.8.6 1.6-2 2-2.3 3.2 6.4-1.9 3.1 3.2-.4 5.2.4.1.8.7.7 1.2 4.5-1.8 8.4-5.4 12.4-8 6.3-10.6 7.6-.3-.8 2.6.6-.5 1.7.4 1.4.9-.8.7.6 1.7-.1 2.3-1.9.8-3.1 1.7-3.2 4 8.6-1.2 6.1-18.5 15.2-15.9.6 1.6-1.9 2-2.2 3.2 7.6-2.2 1.4 5.5-2.6 6-8.4 5.9 13.9-4.9 15.4-7.7 3.4-8.4 9.7-3.9 2 .4-2.6 1.6-8 5.2-5.7 8.5-.7 3 .7.2 2.4.5 3-.6 3-4.5 5.5-5.9.9-1.8 9.3-3.1 6.4-.1-1.7 3.7-5 3.2-8 5.4-2.6 1-3 4.6-5.7 4.5-1.6-.2-3 1.4-3.9 2.6-7.2 4.9 2.6 2-5.8 8.2-1.9 4.9 3.1 4.9 4.5.3 6-2.8 5.8 2.1.1 3.3-2.7 1.5-.1 2.4-3.9 2.5-1 .3-.9 1.9-1.9 2-.4.1-1.2.5-.6.9 2.4 1.5-1.6 2.2-.8 3.3.2 1-1.2.2-1.5.9-1.8 4.3-3.5.4-5.7 3.8 1-.6 2.1-.5 3.1-1-.2 2.4-3.2 2.9-3.9 4.1-.4-.4-1.4.7-.9-.2-1.5-.4-1.9 1.4-2.5 2.3-.8.8-2.4 1.2-2.3 2.5 0 .8-.3 1-1.2.9-1.3.6-3.9.6-2.2 2.5-.6-.4-2.1-1.2-1.3-2-1.2.2-2.3 1.1-3.2 1.8 4.2.8.3 2.5 1.7 3.8 1.5.3 0 1.2-.3 1.8 1.8-.8 3.2-2.2 4.6-3.4-.2-.8 4.1-2.8 4.2-2.3-.7 1.9.3 1.9-2 2.9 6.3-4.2 1.6 1.5 5.3-.2 0 3.8-.8 1.6-3.3 2.8-1.7 2.8-3.7 3-4.2-.6-.4-.2-.5 1.3-1.3 1.2.1.8-1.8 1.2-.5 1.7 2.1.6-1.4 2.3-.8 3.6 1 .9 2.1-2.4 3.4-1.3.8 1.2 3.7-3.3 2 2.4 1.3-2.4 5.4-3.6 5.7-1.2.2-.4 1.7-1.1 1.1-1.5-.1-1 2.1-2.5-.7-1.5.3-.7 4.7-4.6 2.7-4.8-.6-.1-1.9 0-1.3-.9.7-1.6 1.8-1.5 1-2.7.1-2.8 2.5-1.9 3.5-4.3 2.7-.7-1 5-1.6 6.3 6.1-1.7 1.1-3.7 5.1-5.9-2.9.6-1.8-2.3.3-1.8-3.2-.9 22.4-21.1 17.1-14.2-3.4 2.4-7.8 4-9.7 8.1.3 1.1-2.4 1.7-1.1 2.7.5 1.6-1.9-1.2-2.5 1.4 3.8 1.5-2.8 3.4-3.3 4.3 4.6 1.4 12.7-10.9 12.1-6.5-6.5 4.5-4.5 10.4.2 3 1-1 5.4-2.2 3.2.5-.8 1.5-2.6 1.1-3.8 2.3-1.3.4-1.4 2.5-2.9 2.4-.9 0-1.5.7-2 1.4-3.5 2.2 1 .9-2.1 3.6-.4.1-.5.5-.4.9-.1.9-1.4.4-1.6 1.3 1.6-.4 5 .7 5.3.6-.4-2.2 5.6.4 5.3-1.8-.6-.4-3 .1-2.1-1.4 1.8 1.5 4.1-.7 4.9-2.4 1-.9.1-2.6 1.7-3.1 2.2-.7-.2 4.3 3.8-.5 1.7-1.1.2 3.5 2.6 1.2.6 3.5-.9 1.8-3 3.2-2.4 4.8-2.9 1.1-4.4.2-.2 1.9-2 .2-1.6 2.2 1.4 2 2.1.1.4 3.2-.5 3.4-8.4 1.6-4.9 6.3-2.6.8-2.7 1.2-4.4 3.1-3.2 5.9-5.3 2.3-5.5 5.5 1.8.9 7.5-6.9 5.8-1.6-.8.8 1.1.2 1.5.4.6-2 2.5-.4 1.2 1 .3 2.5 5.3-4.8 5.7-2.5.9-.7-.4-1.5.3-2.4 1.9-.6 1.3 0 1.3-1.6 6.2-.4 15-11.9 11.8-4 2 2.2-4.9 2-2.6 5.7-.9 1.2 2.1 1.1 2.6.2 2.5-.9 3.3-5.9 6.3-5 1.2.6 4.1 1.2 1.6 2.3-.5.2-1 1.4-.1 1.4.3-1.1 2.9-2.1 2.3-3.1-.8-.6 1.4-1.7.2-2.2-.5-.5-1 .4-1.5.1-.2-1 1.9-1.1 1.6-2.3 4.1-5.6-4.1-1-.7-6.1 1.3-1.2-.7-.5-.2-1.4-.5-3.5 1.9-1.7 2.8-4 .2-1 1.4-.8 1.6.1 1.1 2.9 0 .7-.9 2.4.3 1.9.5 2.5-1 3.9 6.1-1.1 3.1-.7 3.3-3.9.3-.6-.6-1.9.6-1.8 2.8.1-1.7-5.7 1.1-5.8 6.3-1.4.6 2.2 2.7 1.7 5.1-.2.4 4.3-2.4 4.1 3.5 2.1 9.9-3 11.4-6.4 1.7-1.5 2.9 1.8 1.1 2.6-6.4 1.3-2 10.7 1.7 2.2 6-2.8 5.8 2.1.1 3.3-2.7 1.5-.1 2.4-3.9 2.5-1 .3-.9 1.9-1.9 2-.4.1-1.2.5-.6.9 2.4 1.5-1.6 2.2-.8 3.3.2 1-1.2.2-1.5.9-1.8 4.3-3.5.4-5.7 3.8 1-.6 2.1-.5 3.1-1-.2 2.4-3.4 3-3.9 4.1-.4-.3-1.5.6-.9-.3-1.6-.4-1.9 1.4-2.5 2.3-.8.8-2.4 1.2-2.3 2.5 0 .8-.3 1-1.2.9-1.3.6-3.9.6-2.2 2.5-3-1.4-.1-2.9-1.9-3.6-2.3-1 1.3-1.9.9-3.2-1.3-.5-3.6-.6-3.8 1.5.1.5-3.9 3-3.7 2.1-.4-1.9-3.5-.3-2.1.9.6 1.3-4.9 3.2-3.1 5.3 1.9 1.1 5.2-1.1 5 .8.8-.6 4.1-.5 2.4-2.1-.5-.9-2.2 0-2.1-1.4 0-.8 3.9-2.3 3.4-1.4-.5 3.1 3.8-.2 1.8 4.8 1.4.2.8 1.2.4 2.1 9.8-7.9 10.9-6.9 2 1.8 1 .7 2.2-1.5 3-.3-.3 1.8 1.9 1.9.9 3.2 2.8-1.9 1.9.6 1.4 2.2 2.3-5 6.9.1 6.7-3.1 1.4-1.3.7-1.7-.7-1 .3-.7 4.8-4.7 2.7-4.8-.6-.1-1.9 0-1.3-.9.7-1.6 1.8-1.5 1-2.7.1-2.8 2.5-1.9 3.5-4.3 2.8-.7-1 5-1.6 6.3 6.1-1.7 1.1-3.7 5.1-5.9-2.9.6-1.8-2.3.3-1.8-3.2-.9 22.4-21.1 17.1-14.2-3.4 2.4-7.7 4.1-9.7 8.1.3 1.1-2.4 1.7-1.1 2.7.5 1.6-1.9-1.2-2.5 1.4 3.8 1.5-2.8 3.4-3.3 4.3 4.6 1.4 12.7-10.9 12.1-6.5-6.7 5-4.3 10.3.2 3.1 10.8-4.2-5.2 6.3-6.7 7.5-1.2.8 1.9.7-.9 2.7-.4.1-.5.5-.4.9-.1.9-1.4.4-1.6 1.3 1.2.2 2.1-.2 3.4 0 .8-.5 1.5 1.6 1.9.6-.4-2.2 5.6.4 5.3-1.8-.6-.5-3.2.2-2.3-1.4 1.3.7 2.4.8 3.7-.7-.1-.8 1.5-.9 1.2-1.7 0-.3.1-.5.4-.6.8-.8-.3-2.2 1.3-2.5 1.2-.4 1.3 0 .9 1 .4 1.7 2.4-.9 2.9-1.5 1.7-1.1.2 3.5 2.6 1.2.6 3.5-.9 1.8-3 3.2-2.4 4.8-2.9 1.1-4.4.2-.2 1.9-2 .2-1.6 2.2 1.5 1.9 2.1.2.4 3.3-.5 3.4-8.4 1.6-4.9 6.3-5.5 1.3-4.5 6.5-9.6 7.4-1.3 1.2 1.7 5 2.1 2.3.4-1.4 1.6.3 2.7-2.3.1.7.4 1.7.6 2.4.4-.3.7-.7.5-1.2 4.2.5 1.4-3.8 4-3.1-.1-2.8 2.2-1.1 3.9-2.7 1.2 0 .7-1.9 1.7-2 1.6.5 1.2-1.4 1.8-1 2.5.9.7-3.6 5-4.5 2.1-.5-2.4-1.9 1.4-3.4 1.5-.6.5 2.4 2 1.3-1.8-.5-.9-2.4.7-2.1-.3-.7.4-1.4 1-.7.5-2.2-.9-1.7 1.5-2.9-.8-1.3.7-1.3 1.5-1.4.8-.7 2 .5 2.3-.8 0-2.7 8-7.3 10.7-10 .8-.4 1.4-3.5 2.2-1.1-.4 2.2-.2 1 1.5 1.5 1.7-1.5-.4-.7.1-1.6-.2-3.7 1.9-1.3 3-4.4 1.1 0 1 1.5 1.2 2.2-2.1.6-.4 3.2-2.1 4.7 4.8-1.7 2.8.5 2.8-3.6-.4-3.2 2.6-.3.8-5.9-.6-2.4 5.4-2 2.8.2-.3.3 0 .7.3.4 4.2-.2.4 4-2.1 3.5 0 .1-.1.5.1.5 2.9 1.1 6.1-1.9 8.4-3.5 2.6-3.4-1.3-4.4.4-6.4.9.2 2.4-.7 1.9-1.8-.5-2 1.3-.8 1.4-1.8-.8-1.3.7-1.3 1.5-1.4 4.2.6 10.3-10.1 8.4-2.8 1.7 2.1-4.5 1.5-2.2 6 4.5 1.3 4.5-7.9 9.5-3.6 1.1.8-2.5 1.9-.8 2.6.5-.8 2-1.6 2.2-2.6-1-.7 2.1-2.7-1-2.1 6.4-7.8-1.9-2.7 1.3-8.1 1.3-1.2-.6-.5-.1-1.4-.2-3.8 1.9-1.1 3-4.3 1.1 0 1 1.5 1.2 2.2-2.1.6-.4 3.2-2.1 4.7 4.7-1.7 2.8.5 2.8-3.6-.4-3.2 2.6-.3.8-5.9-.2-2.6 5.3-2 2.7.6 4.5-.4 1.5 3.8-1.5 3.5 0 .1-.1.5.1.5 2.9 1.1 6.1-2 8.3-3.5.5-5.3 4.7-.8 1.1.4-2.6.9-3.1 6.1-.1 5.3 1.6 0 1-2.3 2.1-3.1.6-1.1 5.2-.9 3.5.9 1-.8 3.9-4.2 4.1-1.8-1.2 1.8-3.8.5-3.9 3.4 1.1-.4 2.6-.9 3.7-1-1.1 2-9.6 9.2-4.4 1.8-4.1 2.2-10.4 10.4-1.8 5.7 6-6.6 13.7-10.9 19.8-15.9 1.1-.7 5-.6 2.1.3-1.2.1-1.7 1.2-1.9 2.2-.8 2.3-7.2 3.1-3.7 5.7 3.3 3.9-6 6.4-3.3 9.8-.5 1.5-3.9 1.6-3.2 3.6 1.2-2.9 3.3-2.1 4.7-4.7.3-6.8 4.4 2.8 7-3.7 1.8-2.1.6-5.8 4.4-6.1 6.5-3.2 2.3-.2 5.6.5 3.5.6.4-2.9 4.1-2.4.2-.3-.4-1.1-.8-.9-9.4-2.5 2.5-4.7 1.6-9.1-.3-2.2 3.2-.7 4.5-1.1-3.1 3.7 1.8 1.5 2.4 3.4-6.4 4.5-2.8 7.3.6 2.3-.1-.6 4.5-3.4 3.6-1.8.3.4.7.8 1.1 1.1 2.1-2.1 4.5-4.1 6.6-5.9.4 1.8-9.7 10.3-6.8 6.3-.4-.3-.6-.9-1.2-1.1-1.4 2-4.2 3.2-4.9 5.5-.8 2.6-3.5.9-5.3 2.5-1.6.4-7.5 4.9-4 6.4 1.3 1.3-2.6 2.6-2.3-2.1-2.4-1.1-1 2.6-2 3.8-.5 1.2 1.5 2.1.4 3.3-.2 1.5-3.4.1-1.1 2 2.1-3.9 5.6-2.7.6.9 0 4.8 8-2.3 8.3-4.9-.5.2-.9.9-1.4 1 1.3-1.5 1.3-1.6 0-1.5 3.2-.5 7.2-6.7 9.7-6.8-.2 3.6-4.4 3.8-6.1 6.8 5.9-6 4.6-1.2 6.4-3.5 2.9-3 5.8-5.2 8.4-8.6 6.2-8.7 4.8 2.4-1.9 2.8-1.1 5.8-5.2 7.6-10.3 12.7 1.2 0 2.5-.6 2.8 1.1.7 0 1.7-1.6.4-1.3-1.2-3.6 10.3-8.2 13.3-12.4-.3 0-.6-.3-.7-.6.9.6 5-2.7 3.4.4 4.6 1.8-12.8 8.8-11.2 13.7.3-.2.7-.4 1-.6-.5 1.6-6.7 4.4-2.4 1.5-1.3 1-3.6-1.1-4.2.8-.3 2-2 1.2-1-.5-1 .9-1.4 0-2.3.6.8-.6 1.6-1.4 2.6-1.6-.6-.2-1.7-.2-1.9-.9-2.8 5.5-11.4 8.3-13.9 13.1 2.2-2.1 2.9.4 1.9 2.3.4 1.7-3.1 1.2-1.5 2.9 5.1-3.2 3.8 1.9 7.8-2.9-7.9-2.9 4.3-5.1 2.5-9.7 1.6-1 3.2.3 4.6-.9-.1.2-.3.5-.4.7h.3c-.3.4-.5.7-.7 1 1.3-.9 2.5-2.7 4.1-2.5-.1.2-.2.4-.4.6 2.6.6 2.8-2.5 5.1-1.5.7.1 3.8-2.8 3.1-1-1.9 2.9-7.8 5.4-6.1 9.2 3.3.9-1.7 6.6-2.2 1.9-1.9.6-1.4 4.4-4.2 3.4-4.6 13.3 9.1-2.4 12.4-5.7 3-1.7 2.8 2.4 6.8-3.7.7-2 9.7-8.6 4.9-9.3-4.8 1.7-4.6 7.3-9.7 9-3.1.4-2.3 6-3.9.2-.3-2 2.7-2.5 3.5-4.3-1.8-1.7-.6-2.2 1.1-1 1.4-.6 7-7.3 3.6-2.2 2.9-.2 4.9-5.7 6.6-7.8-2.6-3.2 4.1-5.6 5.6-8.1.3-1.4 2.5-2.2 2.3-.4-1.2 3 1.8-1.3 1.5 1.1 6.1-2 .1-12.8 9.8-11.4.7 1.6-2 2.1-2 3.4 9.2-2.1-.7 6.9-4.7 7.2 3.9 2.8 16.1-7.7 18.4-12.1 3.3-5.3 6.2-.8 1.8 2.2-3 1.4-8.9 5.8-6.3 9.3-.4 2.8.8.4 2.4.4-2.4-1.2 1.2-2.6.4-.1 2.8-.9 2.8-4.7 5.1-6.3 17.1-8.2-3.9 9.6-8.3 10.8-2.1.7-1.1 3.9-3.4 3.5-1 .5-2.9 1.4-1.2 2.3 1.2 2.2-3.6 3.7-3.4 6.1 2.3-.4 1.5 3.6 1.7 5 2.1 2.1-.2 5-2.8 4.8-1.1.1-.5 1.6-1.5 1.9-.6.3-1.3.6-1.7 1.3 1.2 1.5 3.1 1.5 4.7 1.3.4-4.4 7.4-9.1 11.2-11.6-.8-2.2-.9-6.1 2.2-6.4-1.4 8.6 14.6-10.5 18.5-12.8 7.5-2.2-6.8 8.9-8.8 8.3-3.2 2.5-4.6 6.6-8.2 8.6 3.5 1.9-5.2 2.3-4.4 7.5-1.5 1-.9-1.5-3.1.4 2.8 1.1.7 3.6-1.1 4.6 5.5.5 8.7-6.8 12.8-9.9-2.5-1.6.6-2.8.8-.3 2.9 2.7-12.2 9.3-8.2 13.6 19.2-17 13.8-6.9-.2 2.7-.7 0-8 5.7-6.1 5.9 4.6-4.8 4.3 9.3-2.9 4-.3.2-.4.6-.5.9 1-.2 1.2 1.2 1.3 2.1 2.2-.9 2 1.3 2.7.7.9-2.4 2.5-2.5 4.5-2.1-.1-5.6 9.3-7.8 12.4-12.3-.2-2.8 5.7-6.1 3.1-1.4.6-.5 1.5-.6 1.5-.2 9.3-9.5.7 3 7-2.2-.9 5.5-2.2 3.6-6.2 6.4-1.3 1.6-2.2 4-4.4 4.3 1.5 6.9-8 4.4-.1.1-1.4.2-.6-1.6-1.2-2.4-1.1 1.5-1.9 3.2-3.5 4.2 2.3.1-.8 2.6-1.3 3.7.5 3.1-7 5-9.8 7.5 1.3-.5 2.7 0 3.2 1.2 2.2-.2-1 1.9-1.2 2.6 9.4-2.7-11 9.6-1.4 4.6.9 1.7 15.4-14.9 13.9-10.2-1.6 3-8.2 5.2-7 8.9-.4 2.8 5.1-3.6 6-4.9 17.9-9.6-21.1 18.5-7.8 10.2l.3.7c-1.2 1 .7 1.5.5 2.4 1.8-2 .6-1.8 1.5-3.6 3.5-.6 5.9-5.7 8.6-5.5-.5.9.3 1.2 1.1.9.3-1.1-.8-.6-.6-1.9 2.6-.6 4.6-4.2 6.7-5-.1.7-.4 1.4.1 1.9.2-.7 1-4.1 1.8-2.4.1-3.1 5.1-.6 5.6-5.1l.9 1-1.1.1c1.5.7.8.8 2.2 1.7.3-.7.4-4.2-.2-2.1.4-3.2 6.9-5.5 9.2-7.1 1.1-2.6 4.8-1.1 5.2-4.3l-.1.7c3.9-1.2 11.4-9.5 12.2-7.9.2-1.6 1.3-1.3 2-2.4.1 1.4 1-.4 1.5.6l1-1.6c1.8.9-.1-3.5 2.2-2.7 2.2.1 4.4-5.6 7.7-6 1.8-5.9 2-1.8 6.7-3.6.4.3.7.7 1.1 1-.3 0-.6-.1-.9-.1.9.3-.3.8-.5 1.1 1.2 0 2.3.7 3.3.6-4.6 1.9-1.4 3.7-3.7 4.2-4.7.8 2 5 4.1 3.3 2.2-7.3 3.7-4.3 8-9 5.6-1.2 1.7-7.7 6-4.6 5.7 3.4 3.7-7.8 8.7-7.9 6.4-3 1.9-.9 5.6.5 3.5.6.4-2.9 4.1-2.4.2-.3-.4-1.1-.8-.9-5.5-1.1-4-4.2.3-5.6 2.6-4.1-.6-5.1 5.6-4.6-3.7 4.1 3.8 1.3 2.1 4-1.2 1-2.8 1.4-3.1 3.1-1 2.8 4.5-1.1 2.5 2.6-2 3-7.4 1.3-10.3 6.8-1.4 1.4 3.9 3.3-.3 3.2-1.6-.7-.4-2.3-1-3.2-4.1-.8.9 8.5-3.4 8 .8 1.1 1.8 2 1.6 3.6 1.2-.1 1.8.5.1.7.2 3.6-3.1 7.8.2 10.7 2.5 2.3-3.6 1.6-.2 4.2 10.7-2 3.2-6.5 9.6-9.5.5 3.6-3.5 1-1.6 5.6 1.1.9 18.3-17.2 16.9-13.1-1.9 2.9-7.8 5.4-6.1 9.2 3.3.8-1.6 6.6-2.1 1.9-1.5 1.3-5.7 3.7-4.6 5.9.9.8-1.9 2.6-.1 2.7 6-.5 8.7-7.7 13.3-11 3-1.5 2.7 2.4 6.7-3.6.7-2 9.7-8.6 4.9-9.3-.8 1.3-3.1.7-3.3 2.3 0 .7-.5 1.2-1.1 1.4-1.6 5.5-6 3.9-7.3 7.4-1.7 2.3-2.9-4.4.3-4.3 0-.8 1-1.3 1.4-1.9-1.8-1.7-.6-2.2 1.1-1 1.4-.6 7-7.3 3.6-2.2 2.9-.2 4.9-5.7 6.6-7.8-1.8.1.6-5.6 2.5-5.5 2.4-.4 5.3-7.6 5.2-1.8.6-.4 1.8-1.6 1.6-.1 6.3-2.1-.6-12.4 9.7-11.4.7 1.6-2 2.1-2 3.4 5.7-2.1 4 2.7.4 4.9-.8 1.4-5.7 1.3-5 3 7.4 2.6 23.9-21.7 22.4-13.3-1.6 4.2-11.6 6.5-8.4 12-.5 2.9.8.4 2.4.4-2.4-1.2 1.2-2.6.4-.1 4.6-3 3.2-8.4 10.9-8.4 2.5-.2.1 1.9-.3 3.1-1.7 2.9-5.4 2.6-7.7 5.2-3.4 2.5-1 3.6-6 4.6-2.1.7-1.1 3.9-3.4 3.5-1 .5-2.9 1.4-1.2 2.3 1.3 2.2-3.6 3.7-3.4 6.1 2.2-.3 1.5 3.6 1.7 5 3.3 4.4-4.4 4.9-6 8 1.2 1.5 3.1 1.5 4.8 1.3.4-3.9 7.6-9.5 11.2-11.6-.7-2.1-1-6.1 2.1-6.4-1.9 9 15.1-10.7 18.5-12.8 7.5-2.3-6.9 8.9-8.9 8.3-3.1 2.4-4.6 6.7-8.1 8.6 2 1.8.8 1.7-1.1 1.7-1.3 2.9-3.5 2-3.3 5.8-1.5 1-.9-1.5-3.1.4 2.8 1.1.7 3.6-1.1 4.6 5.5.5 8.8-6.8 12.8-9.9-2.5-1.6.6-2.8.8-.3 2.9 2.7-12.2 9.3-8.2 13.6 20.2-18.1 12.7-5.1-.8 2.8-.8.8-7.3 5.7-5.5 5.8 4.7-4.6 4.1 9.3-2.9 4-.5.4-.4 1.1-.7 1.5 1.2-.7 4.2-.1 2.1 1.4 1.8-.9 1.9 2.4 2.7.3 1.2-2.9 5-1.2 7.6-2.7 4.6-3.1-4.7.3-.9-3.5 5.3 3.2 8.4-8.2 12-10.7 4.2-2-.7 1.7 1.2 2.3 11.1-10.4 1.7 2.1 8.1-2.9-.7 5.2-2.1 3.7-5.9 6.2-8 10.8-4.5-.3-6.9 1.5-.3 2.3-2.7 1.4-3 2.7-1.1 2.8.4 2.2 2.6 2.5-1.2 1.8-5.6 3.2-.8 4.1-1.4 2.3-3.7-.1-5.7 3.1 3.7.7-.2 3.2-1.9 3.2-1.3.4-1.2 2.6-2.7 1.9-1-.1-1.1 1.4-1.9 1.5-.2.1-.8.1-.6.5 1.1 1.9 1.3.3 2.7.4 1.5-3.2 4-.6.2.6 2.9 2.9-3.6 2.1-4.2 4.9 3 .2-1-1.8 2.8-1.6 3.2.7 1-.9 3.6-1.4-1.7-.9 1.2-2.7.3-3.2-1.1-.5-.4-3.3.4-2.9 1.4 1.7 2-2.8 3-.5.5 2.2-.2.7-.8 2.4.5 1.2-2.1 3.9-.1 2.8 1-.2.2-1.6 1.3-1.8.8-.3-.1-2.1.7-2.4 1.8.4.2-3.1.5-3.8.1-1.6 4.7-1.2 2.6.5-.8.9.6.1.9.4-.5-3.7 3-1.1 3-3.6.1-.6 1-1.1 1.5-.5 6.3-1.2 10.5-8 15.9-10.9 3.3-1 .9-1.3 2.2-2.8 2.8.3-.7-1.9 2.8-1.6 1.1-.4 2.9-.5 3.4-2 .4-1.4 1.3 0 2.4-1.6 2.5.9.7-3.2 5.2-4.2 1.5-.1-.5-1.5-.2-2.1.2-1 2.7-2 2.5-.4-.3 1.9 3-.2 2.2-1-1.8-2.4 3.3.1 4.5-4.2 3.1.9.3-4.6 3.6-3.3 1.3-2 3.7-3.6 4.8-4.6 2.2.5 7.3-7.7 6.9-3.4.3.4-1.2 1-.2 1 4.7-.5-3.1 5.2 6.6 3.2.5 3.2 1.9-1 2.6-.6 2.2.4 8.5-8.2 6.7-2.8-.9.9 1.5-.1 1.8.6.5-.4-.2-1.1.2-1.5 2.8-2.2-2.2-3.8.7-4.7 2.7-.2.3-2.9 2.6-2.9.5-1.5-.4-1.1 1.7-1.7 2.9-.9-3-3.1 1.2-3.5 2.1-.8-.3-2.8 2.1-2.8-.5-2.4 2.6-.9 3.3-1.8.1-.4.6-.6.9-.4 2.3-.5 7-7.1 4.6-1.2.3.4.3.9.7.3.5-1.3 2.6.5 1.2 1-1.6.3-4.1 2.1-4.5 3.7 2.3 1.3 5.9-3.4 5.1-4.9.4-3.9 1.3-.7 2.9-3.8.9 0 .9 1.4 1 2-.2.4-1-.1-1 .6.2 2.3-1.7 3.6 1.6 2.9.5-.4.2-1.4-.5-1.4-.7-.2 1-1.1.5-2 .2-1 2-.2 1-2.3-2.7-.4.6-2.8-.3-3.4-.8-2.8 1.4-1.7 2.5-4.2 2.6 1.1-1.1 2.8 0 4.5.8.1.6 1.4 1.6.9-1.7-5.8 2.3-1.7.7-7.5-.1-2.2 5.2-2 2.6.4 4-.3 1.2 3.7-1.5 3.3 1.7 2.3 5.1-1.6 7.2-2.1.3-1.9 3.3-4.4 2.5-.8-2 1.4-4.7 2.9-2.2 5.3 1.1-.2 1.9-.1 2.1-1.5.2-2.6 6.2-2 3.9.4-.7 1.5-3.5.5-4.1 2.5-.6 1.6-1.5-.4-3.3 2.1-2 1.1 1.7 1.9 2.5.5.2-2.4 4.4-.6-.2 1 3.1 2-3.8 3.1-4.7 5.1-2.1 0 1.2 1.3-1.2 2.5.4.3 1.4-.6 1.1.1.1.9.4-1.3 1.6-1.2 1.1-.1 1-1.8 2.2-1.6 2.1-.9.8-3 3.1-3.2-1.8-.9 1.3-2.7.4-3.2-1.3-1.5-.4-1.1 0-3.1 1.7 2.1 2.3-2.4 3.4-.3.5 2.2-.2.7-.8 2.4.5 1.2-2.1 3.8-.2 2.8 1-.2.2-1.6 1.3-1.8 1-4.5 2.3-.7 1.3-6.2.1-1.6 4.7-1.2 2.6.5-.4.2-.2.7.2.4 3.6.4-.1 3.8-2 3.3.2 1.3 3 .4 3.8.1-1.2-1 1.4-.2 1.8-1.4-5.8-.9 4.8-4.7 1.4-1-.3.5.6.5.7.1.6-4.8 4.6-1.2 1.2.2-3.2 1.1-1.5 5.4-1 4.3-.2-.3.2-.4.3-.2 1.6 1.8 1.5-2 2.8-2.5 8.5.7-1.7 2.7-2.1 5.3-.8-.6-3.7 1.6-3.2 2.2 1.5 1.4-2.1 1.5 1.1 2.8 4.1-7.6 3.2-.9 4.2-3.7.5-.6 1.5-1.2 2.3-.7 0 .6-1.6 1.2-1.2 1.8 1 .6-1.8 2.7-.1 2.3 1.6 1.7-4.8.5-4.6 3 .1.5 1.5-.3 1.1.4-1.9 2.5-.7.9.4 2.8 1.8-1.1-1.3-2.3 1.2-2.2.3-.3.8-.9 1.3-.7 1.2 0-1.3-.7-.2-1.3.8-.9.7 1.4 1.4.4.7-1.3 3.2-1.4 2.9-3.3-2.5.6-1.3-.8-.2-1.8 2.7-4.1 7.2-1.5.6 1.3 1.4 2.9 3.9.3 2.7 2-1 .4-.6 1.2-.8 2 1.1-.5 2.4-1.3 3.2-2.2-6-.4 3.2-4.8 1.6-1.5 2.9-.8 1.6 1.1 0 1.8 1.2.6 1.6-1.3 2.5-1.5 2.9-1.1 3.6-3.7 6.5-4.3.2-2.9 3.6.2 4.5.9-4.1.1-1.1.7-2.9 2.5-2.5-.3-1.1 2.7-3 2-1.5-.8-8.5 5.1-3.2 2.6-.6-1.7 1.3-2.1 2.2-.7.2.9 3.1.5 1.9 1.6-3.6-.8-.8 1.4-2.7 2.3-2.5-.1-1 2-2.8 2.1-.8-.5-2.9.1-2.7 1.2-.7 4.5 3.2.6 1.4 2.9-1.8.6.1 1.3.2.3 1.3 1.8 4.3-1 4.5.3-.8.5-2.1 3.4-2.1 1.3-2 1.7.3 3.5 2.1 1.1.3-3 1 1.1 2.7-4.4 3.6-.8 5.7-4.4 7.6-6.4 3.7-1.6 4.5-4.4 8.5-6.2 1.2-3 2.1.2 3.7.3 2.2.5.1 1.1-1.1.8-.5 4.5-1.6.6-2.9 4.3-2.5-1.1-15 10.3-11.3 9.4.4-.3.3-1.4 1.2-1.3 1.1 0 .7-1.7 1.8-1.6.9.2 1.3-1 2.1-.8-.7-1.3 1.7-1.2 1.7-2 .2-1.4 1.5-.4 2.1-1 .8-.5 1.3-2.1 2.3-2.1 1 1.5 6 2.6 1.1 2.4-.8.5.5 2.1-.8 2.4-2.7-.2-.9 2.9-3.3 1.9.9 1.4 2.7.3 3.4.6-.7-3.2 3.6.2 4.4.7-.1 1.2-3.2-.8-2.4 1.5.7 1.8-2.5.7-2.3 2.2.2 1.1-1.7 1.4.5 1.5 2.3 1.4-1.4.4-1.7 1.1.3 3.4-1.2 1.1-2.2 2.7.3 1.6-4.2 5.2-2.8 2.2-1.8.1-1.2.1-.7 1.3-1.4.1-1.6 1.5-1.7 2.8-1.4-1.2-5 2.4-1.8 1.8.4-.2.9.3.4.7.2 1.3 1.4-.9 2-.3-.6-.4.8-1.1-.1-1.2-1.2-.3.8-1.3.3-2.2 5.1 3.9 3.5-1.4 8-2.2-.9-3.8 7.8 2.3 2.4 1.1-1.2.3.4 1.9-.9 2.3-2.7 0-1.1 2.5-4.2 1.9-3.2.9-4.8 5.6-8.1 6.5-1.1.2.9.8.1 1.2-.7.4-.5 1.6-.5 2.4 2.4-1.9 2.7-4 6.1-4.4-1.8.4.3-1.7.1-.2.7-1.4.7-1.5 2.2-1.6-2.8-1.1 1.7-3.6 3.3-2.4 1.2-.8-.1-.9 0-1.6.2-.3 1.1.1.6.5 1.9 0 .5-2.3 2.3-2.4 3.5-1.4 5.4-4.7 8.5-6 1.4-3.4 2.1.5 4.1.2 2 1.3-1.2.5-1.7 1-.3.7.5 1.9-.6 2.2-2.6-.2-1 2.5-2.9 2-3.4-.5-5 4-7.5 5.5 2.7-.9 2.6-3.3 5.3-4 .2-.3.7-.5.9-.1.2-3.7 2.4.3 3.6.1 2.2-2.8 3.3 2.1 6.2.4-.8-.5.8-2 1.3-1.5.8 1.6 6 2.5 1.2 2.4-1 .4.5 2.2-.9 2.5-2.8.2-.7 2.6-3.5 2.1-4.3 2.5-5.3 4.5-9.7 7.2 4.4-.3 1.8 2.4 6.4 3.5 1.7-1.5 4.6-2.3 5.7-4.1-2.1-1.8 1.5-1.7 2.1-2.8 1.1-1.2-1.3-2.6 1.6-2.9-.4-1.7 1.6-2.2 3.1-2 1.1.5 1-1.4 2.1-1 1.2.7 7.5-7.7 6.4-3.9.2 1.1-1.5 1.3-.6 2.2.4.3.4 1.1 1 .4 1.4-1.7 3.8 1.1.4 1.6-10 7.9 2.8 4.1 2.3-1.5-1.3-3.7 1.9-2.4 2.9-5.3 1.2 0 1 1.6 1.4 2.3-2.2.5-.9 2.8-1.6 4.4 1.9.7 3.9-1 1.4-2 1.2-.7.1-2.6 1.3-2.9 1 .2.8-1 .8-1.7-3.9-2.6.2-2.6-.8-4.7-1.6-2.7 2.3-3.2 2.9-5.2 1.2 0 1.1 1.6 1.5 2.4-2.7.4-.8 4.9 1.1 4-2-6.9 2.4-2 .4-9.6 1.6-2.6 4.8-1.1 3.2 1.1 4.7 0 .6 4.5-2.2 4 4.1 4.6 12.9-11.7 11.8-4-2.4 1.8-5.5 3.7-2.4 6.7 1.1-.3 2.5-.4 2.4-1.9.1-3.3 7.5-2.8 4.6.1-.8 1.8-4.3.9-4.9 3.3-.8 1.6-3.2.7-4.7 3.4.5.4 1.3 1.7 2 .7.4-.8 1.7.1 1.9-.9 1-3.4 4.9-.5 0 1.3 3.9 2.4-4.7 4.3-5.4 6.6-2.2 0 1.1 2.1-1.3 3.3.6.3.9-.4 1.4-.3.1.3.1 1.2.4.4-.2-1.7 2.7-1.1 2.8-2.7 4.9-2.8 1.7-4 5-5-2.4-1.6 2-3-.4-4.9-1.2 0 .6-2 .3-2.9 1.6 1.2 2.3-.1 3-1.5 1-.1 1.5 2.1 1.2 2.6-1.8.4-.5 3.2-2.1 5 2.5-.2.9-2.3 2.8-3 .1-5 3.1-.9 1.1-7.6 0-1.9 5.9-1.7 3.2.5-.5.3-.1.9.3.4 4.6.4.4 4.4-2.2 4 .2 1.7 3.7.3 4.6-.1-1-.1-.2-1.6.3-.6.5.2 1.2-.9 1.7-1.3-7-.3 5.4-7.2 1.6-.9 3.3-7.2 5-.4 2-.2-4.2 2.2-1 7-.8 5.2-.2-1.3 1.1 1.4 1.9-.2.9-6.1 7.7-2.8 5.4-1.6-2 2.5-4.6 1.1-5.9 4.7-1.2-.4-4.3 1.9-3.9 2.9 1.2.8-.2 1.9-.5 2.5.9-.1 1.1.9 1.9 1 0-1.6 2.6-2.6 2.3-4.6.5-1.6 1.6.9 2.2.7 0-1.3 1.5-2.7 3-2 .1.8-1.9 1.5-1.4 2.3 1.3.5-1.7 3-.3 2.9 2.4-.6-1 2.5-2.2 1.4-1 .5-2.6.9-2.8 2.2-1 1.5 2.6-.7.7 1.5-2 1.8.4 1 .8 2.2.5 1 1-1.2 1.1-1.6-2.2-.3 1.1-1.5 2-1.9 1.7.2-2.2-1.2.1-1.8.8.5.6 2 1.7.1 1.1-.2 4.9-4.5 2-3.3-3.5-.1 3.7-6.2 5.9-5.4-.2 2.3-3.1 3.5-4.5 4.5 3.8 4.3 1.9.3 4 1.6-1.4 1.3-1.5 1-1.4 3 1.3-.7 2.6-1.9 3.8-2.9-7.4 0 3.3-6.2 1.9-1.9 3.5-1 1.8 1.2.1 2.1 2 .1 2.6-3 4.8-3 1.6-.5 1.4-3.3 3.2-3.8 1.5.7 1.3-1.1 2.6-1.1 0-2 2.2-2 3.2-.4.4 1.1 2.5 0 2.6 1.4-5.3.7-1.2.8-3.5 3.3-3.2-.2-1 3.4-3.6 2.6-2.3-.8-9.9 6.8-4 3.6-.8-1.8 1.7-2.8 2.6-.8.4 1.3 2.6.2 2.8 1.5-.3.8-1.8.1-2.4.4-1.3.6.6 2.3-.8 2.9-3.7.3-1.2 2.4-3.5 2.9-4.2-1.9-4.7 6.9-.7 4-.1.7-2.5 1.9-1.4 2.2.3-.4 1.1.1.9-.7 1.9 2 3.7-.6 5.7 0-.6.6-2.6 4.8-2.6 2-2.7 2.1.5 4.3 2.5 1.2.3-3.9 1.2 1.4 3.2-5.8 2.7-1 5.1-3.4 7-5.5 1.6-.3.2-3 2.2-2.9 2.2-1.9 5.8-3.2 6.6-6.3 2.8-.2 4.2-5.2 6.5-2.3 1.2.9 5.1 1.7 1.1 1.9-2.4-.3-.2 2.2-1.6 3-4 .2-.8 3-3.9 2.7-1.6-1.4-19.2 16.3-12.1 11.7-.3-1.5 1.7-1.1 2-2.2.3-1.5 2.6-1.7 3.7-2.4-.8-1.6 2-1.5 2-2.6.1-1.8 1.9-.6 2.5-1.4 2.2-2.9 2.2-2.9 4.8-1.3.1-2.2 1.7-3.3 3.5-4 1.6-.2-.5-1.5-.2-2.1.3-.7 1.9-2 2.5-1-.3 2.3 2.9.4 2.2-.7-1.8-2.9 2.2.8 4.2-4.3 3.2.1 0-3.8 3.6-3.8 2.6-4.2 9-6.7 11.2-10.7-1.5-.2.6-2.5 1.4-1.7.1 1.4 1.8-.1 1.2-.7-.7-.7.4-.9-.2-1.6 2 2 2.3-2.2 3.9-2.5.7-1.8-.7-2.2 1.5-2.9.3-1.6 2.5-2.1 2.3-3.8 2.4.6 5-7.3 5.6-3.3 2.5-1.1.3 1.8 1.7 1.7 3.4 0 2.2-2.9 4.9.3 1.1-.6 1.3.5.9 1.2 1.3-1 2.1.3 1.8 1.5 1.4-1 1.9 1 2.4-1.4 1.1-1.3 1 1.3 3.1-.4 1.3-3.5 5.3-4.8 6.9-8.3 1.6-1.6 1 1 1.7.1 1.3-.9.7 1.4 1.7 1 1.2-.4.7.7.9 1.1 2.7-.2 1.3-2.1 3.5-.4 1-.7.8.9 1.6.9.3 0 .8.3.7.7-1.1 1.9.7.6.4 1.8.2 1.1 1.6.1 2-.4.9-1 1.5 1.9 2.5.6 1.3-.9 3.7 1.3 4.3 1.9 1.2.1 1.1 1.8 2 2.2 1.9-2.4 4 2.4 5.5 3.7 3.5 4.3 1.5-2 5 3 2.5 2.3 4.7 5.1 6.6 7.7.3.7 1.4-2 1.9-.2 2 3.4 7.7 6.3 5.9 10.8.7-.1 1.8-2.3 2.2-.7 2.1 3.5 7 5.4 6.4 10.1-2.6 2.4 3 2.8.6 4.2.1.8-.8 1.8 0 2.4 8.6-2.1 15.8-15.2 24.4-20.7.3-3.3 4.3-2.8 2.1-4.1 1.8-3.4 2.8 1 3.3-2-.5-.5.4-1-.1-1.6 1.3 1.5 2.5-.5 3.1-1.7 2.8-1.2-.3-2.2 2.7-3.2 1.8-2.9 5-4.1 6.9-7-.1-.5 1.1-1.1 1.2-.5-.2 1.8.7 0 1.4 1-1 4.2 3.4-1.8 5.3 1.9 1.1-.6 1.2.5.9 1.2 1.3-.9 2.2.1 1.7 1.3 1.2-1 2 .9 2.5-1.3 4.6 1.2 8.8-10.1 13.2-8.2.4 2 1.8-.6 1.7 2 1.2.5 2.6-2.3 3.1-.4 3.6-1.1 1.4-3.5 3.6-3.6 3 .2 10.5-14.2 9.2-5.4 7.7-2.3-3 7.5 11.2 1.9.5 3 2.6 1.3 2.7 3.3-.4 1.2-1.3 2.3.4 2.7.8.5-.4 2 1 2 1 .4 1 .4.8 1.4.4 2.3 3-.2 4.3.6 6.8 4.8 2.5-4.6 8.9 1.1.4 2.9 9.4 9.2 3.6 11-1.1 2.5 2 2.1 3.1.8 4.9-4.8 2.7-1.8 6.6 2.5 6.3 5.7 6.5 8.5 5.5 16.2.5-.7 2.5-1.2 2.2.1-.4 1.9 2.9-.1 2.1-.9-1.7-2.8 2.2.9 4.7-4.2 1.3.6 2-1.5 1.8-2.6-.3-1.6 1.8-.2 2.1-1 1.1-1.9 3.8-2.8 4.8-4.1-4.5-2.9 3-1 2.6-5.9 2-.6 1.7.5 1.7-1.6 1.1-.7 2.8-.8 4-.4 1.1.5 1.4-2 2.6-.9 1.7-.3 11.3-8.6 7.1-2.5-1.3.6 1.2 1.7.1 2.5-3.6.9-4.5 2.2-3.6 5.2 4.5 2.1 6.3-6.2 10.3-4.9 4.6 2.7 2.6.9.6 3.8.3 1 4-2 3.5-2.5-.9-.7 1.2-1.4.6-2.2-.2-.4-.8-.6-1.2-.3-1.7.4-.1-1 .7-1.2 6.3-6.8-3.5-2.6.7-8 1.7-1.1-.7-.7 0-1.6 0-4.3 2.6-1.3 4.1-4.6.5-.4 1.3.3 1.4.9.7 3-.3.7-1.4 2.5.3 4.2-1.1 2.3-1.6 4.4 5.8-1.8 3.9 1 4.1-4-.3-3.7 3.4-.2 1.7-5.8-2.1-3.5 7.9-3.3 3.7-.6-.9 1.1 1.7-.4 1.9.6M71.3 48.1c.1 0 .2.1.3.1 1.4-2-2-1.1-.3-.1zm38-17.6c4.8 4.4.6-4.1-.2 0h.2zm52 .4c4.2-1.4 2.8-6.1.1-.9.1.3-.3.8-.1.9zm3.6 32.6c1.2-.2 2.9-2.3 2.9-3.3-1.3.5-2.7 2.1-2.9 3.3zm-3.5 4c5.1-3.4 2.9-5.4-.2-.2l.2.2zm19.5-2.7c1 1.3 1.7 1.9 2.2-.3.3-1.2-2.7-.8-2.2.3zm112-56.3c.7.3 1.3-.9.9-1.5-.6 0-1.3 1-.9 1.5zm-.7 1.1c1.3-.4-.4-1.5-.7 0 .2-.1.5-.2.7 0zm17.1 2.3c.8.3 1.2-.8.9-1.4-.7-.3-1.1.9-.9 1.4zm51.3 41.2c2.9-1.2.3-1.3-.9.4.3 0 .6-.2.9-.4zm47.1-15.2c.8.2 1.5-1.1 1-1.8-.7 0-1.5 1.2-1 1.8zm-.7 1.5c1.7-.6-.8-1.8-.9.1.2-.3.6-.3.9-.1zm392.1-24.8c1.1.2 1.9-.9 1.6-1.9-1-.1-1.8 1-1.6 1.9zm-2.1 2.2c.8.3 2.6-1.9 1.5-2.1-.9.1-2.1 1.2-1.5 2.1zm-.5.9c1.4-.7-3.4-2.5-2.6.5.8-.1 1.7-.3 2.6-.5zm63.5-1.9c1.4 0 3.2-2.2 2.8-3.4-1.5.2-3.1 2.1-2.8 3.4zm-3.7 4c1.3-.1 4.2-2.6 3-3.6-1.2.6-3.4 2.2-3 3.6zm5.6 34.3c.8-.1 1.5-.8 1.3-1.7-.7.1-1.6 1.1-1.3 1.7zm11.6 2.6c.3.2.5.5.8.7 2.1.6-.7-2.7-.8-.7zm-8.8 8.8c.9.5 2.2-1.2 1.2-1.6-.9-.4-2.2.8-1.2 1.6zm-4.5-9.3c.6 0 2.2-1.6 1.4-1.9-.6.3-1.8 1.3-1.4 1.9zm-.6.8c1.1-1-2.5-1-2.1.8.7-.1 1.4-.4 2.1-.8zm49.5-.4c1 0 1.7-1 1.2-1.9-.9 0-1.7 1.1-1.2 1.9zm-1.6 2.2c.8 0 2.2-1.5 1.2-2-.7.2-1.9 1.3-1.2 2zm-2.9 1c.1.2.1.4 0 .6 5.5-.7.1-2.9 0-.6zm-7.7 7.1c1.4-1.8 3-3.3 5.1-3.5 2.1-1 2.1-4.2-.1-2.1-1 1.9-3.9 3.6-2 .3-1.6-4-3.4 4.6-3.9 5.6.3 0 .7-.1.9-.3zm-4.1 10.5c1 0 3-1 3.2-2 0-3.5-1.5-.3-2.8.2-.7.2-2 1.8-.4 1.8zm25.5.1c.8-.1 1.5-.8 1.3-1.7-.8.2-1.5.9-1.3 1.7zm2.9 11.4c.9.5 2.2-1.2 1.2-1.6-.9-.4-2.2.8-1.2 1.6zm-4.6-9.3c.6 0 2.2-1.6 1.4-1.9-.6.3-1.8 1.3-1.4 1.9zm-.5.8c1.1-1-2.5-1-2.1.8.7-.1 1.4-.5 2.1-.8zm137.6-48.9c.6.4 1.5 2.1 2.1 1 1.2-2-3.5-2.7-2.1-1zm15.2 11c.7-.5.7-1.5 1.2-2.1-1 .7-1.7 1.8-2.2 2.9.3-.2.6-.5 1-.8zM1052 48c.3-.2.4-.7.4-1-1.5 1.2-2.4 2.9-4 4 1.3-.9 2.5-1.9 3.6-3zm9 7.3c.8.5 1.1.1 1.8-.6-1.8.8-1.8-1-3.3.4.6 0 1.1.1 1.5.2zm44.8-23.4c1.4-.2 3-2.2 2.6-3.4-1.4.4-2.8 2-2.6 3.4zm.1 36.6c.8-.6 1.6-.7.8-1.6-.5.5-.7.9-1 1.5 0-.1.1 0 .2.1zm121.3-38c1.8 2.7 3.4.5 1.2-.9-.7-.4-2.3.4-1.2.9zm52 .4c4.2-1.4 2.8-6.1.1-.9.1.3-.3.8-.1.9zm3.6 32.6c1.2-.2 2.9-2.3 2.9-3.3-1.3.5-2.5 2.2-2.9 3.3zm-3.5 4c5.1-3.7 2.6-5.2-.3-.2.2.1.3.1.3.2zm131.6-59c.7.2 1.4-.9.9-1.5-.6.1-1.3.9-.9 1.5zm67.7 44.6c2.9-1.2.3-1.3-.9.4.3 0 .6-.2.9-.4zm47.1-15.2c.9.2 1.5-1.2 1-1.8-.7 0-1.5 1.2-1 1.8zM1917 14.6c1.1.2 1.9-.9 1.6-1.9-1-.1-1.8 1-1.6 1.9zm-2 2.2c.8.3 2.6-1.9 1.5-2.1-.9.1-2.1 1.1-1.5 2.1zm-.5.9c1.4-.7-3.4-2.5-2.6.5.9.1 1.6-.5 2.6-.5zm63.4-1.9c1.4 0 3.2-2.2 2.8-3.4-1.5.2-3.1 2.1-2.8 3.4zm-3.7 4c1.3-.1 4.2-2.6 3-3.6-1.2.6-3.4 2.2-3 3.6zm5.6 34.3c.8-.1 1.5-.8 1.3-1.7-.7.2-1.5 1-1.3 1.7zm2.8 11.4c.9.5 2.2-1.2 1.2-1.6-.9-.4-2.1.9-1.2 1.6zm-4.5-9.3c.6 0 2.2-1.6 1.4-1.9-.6.3-1.8 1.3-1.4 1.9zm-.6.8c1.1-1-2.5-1-2.1.8.7-.1 1.4-.4 2.1-.8zm49.5-.4c1 0 1.7-1 1.2-1.9-.9 0-1.7 1.1-1.2 1.9zm-1.6 2.2c.9-.1 1.7-.9 1.5-1.8-.7-.7-2.3 1.2-1.5 1.8zm-2.8 1c.1.2.1.4.1.6 5.2-.7.1-2.9-.1-.6zm-7.7 7c1.7-3.2 5.2-2.8 7-5.4-.8-3.5-4.2 4.3-4.5 1.3 1.5-.7.4-3-1-1.9-.8.6-.4 1.8-.6 2.6-.1.8-2.7 4.5-.9 3.4zm-4.1 10.6c1 0 3-1 3.2-2 0-3.5-1.5-.3-2.8.2-.7.2-2 1.8-.4 1.8zm25.4.1c.8-.1 1.5-.8 1.3-1.7-.8.2-1.5.9-1.3 1.7zm11.7 2.5c.5.6 1.8 1.6 1.4 0-.1-.8-2-.7-1.4 0zm-8.8 8.8c.9.5 2.2-1.2 1.2-1.6-.9-.5-2.2 1.1-1.2 1.6zm-4.6-9.2c.6 0 2.2-1.6 1.4-1.9-.6.3-1.8 1.3-1.4 1.9zm-.5.8c1.1-1-2.5-1-2.1.8.7-.1 1.4-.5 2.1-.8zm-2.4 7.5c.2.3.7-.3.4-.5-.2.2-.5.2-.4.5zm102.8-49c2.3-1.6-1-.5-1.6.6.6-.2 1.1-.4 1.6-.6zm37.3-7.4c.6.4 1.5 2.1 2.1 1 1.1-2-3.5-2.7-2.1-1zm19.1 6.7c1.7 0 1.2-2.1 2.4-2.8-1.8.3-2.4 2.2-3.7 3.3.5-.2.9-.4 1.3-.5zm-4 4.3c.7-.5.7-1.5 1.2-2.1-1 .7-1.7 1.8-2.2 2.9.4-.2.7-.5 1-.8zm-3.5 10.2c.5-.7 1.6-.5 1.6-1.5-.9.6-1.9 1.3-2.4 2.2.2-.3.5-.5.8-.7zm-4.3 2.6c.8.5 1.1.1 1.8-.6-1.8.7-1.8-1-3.2.4.5 0 1 .1 1.4.2zm44.8-23.4c1.4-.2 3-2.2 2.6-3.4-1.4.4-2.8 2-2.6 3.4zm.1 36.6c.7-.6 1.6-.7.8-1.6-.4.5-.9 1.1-.8 1.6zm83.2-20.4c.1 0 .2.1.3.1 1.4-2.1-2-1.1-.3-.1zm38.1-17.6c1.8 2.7 3.4.5 1.2-.9-.7-.4-2.3.4-1.2.9zm52 .4c4.2-1.4 2.8-6.1.1-.9.1.3-.4.8-.1.9zm3.6 32.6c1.2-.2 2.9-2.3 2.9-3.3-1.3.5-2.5 2.2-2.9 3.3zm-3.5 4c5.1-3.4 2.9-5.4-.2-.2.1.1.2.1.2.2zm19.4-2.7c1 1.3 1.7 1.8 2.2-.3.3-1.2-2.7-.8-2.2.3zm112.1-56.3c.7.2 1.4-.9.9-1.5-.6 0-1.3.9-.9 1.5zm-.7 1.1c1.3-.4-.4-1.5-.7 0 .2-.1.5-.2.7 0zm17.1 2.3c.7.3 1.3-.8.9-1.4-.7-.3-1.1.9-.9 1.4zm38.2 19.8c.9-2.3-1.5.1 0 0zm13.1 21.4c3-1.2.2-1.4-1 .4.4 0 .7-.2 1-.4zm47.1-15.2c.9.2 1.5-1.2 1-1.8-.7 0-1.5 1.2-1 1.8zm-.7 1.5c1.7-.6-.8-1.8-.9.1.2-.3.6-.3.9-.1zM3035 14.6c1.1.2 1.9-.9 1.6-1.9-1-.1-1.8 1-1.6 1.9zm-2.1 2.2c.8.3 2.6-1.9 1.5-2.1-.9.1-2.1 1.1-1.5 2.1zm-.5.9c1.4-.7-3.4-2.5-2.6.5.9.1 1.7-.5 2.6-.5zm63.5-1.9c1.4 0 3.3-2.1 2.9-3.4-1.5.2-3.1 2.1-2.9 3.4zm-3.7 4c1.3-.1 4.2-2.6 3-3.6-1.2.6-3.4 2.2-3 3.6zm-17.7 41.5c1 .6 1.3-1.4-.4-.5.1.2.3.4.4.5zm23.3-7.2c.8-.1 1.5-.8 1.3-1.7-.7.1-1.6 1.1-1.3 1.7zm11.5 2.6c.5.6 1.8 1.6 1.4 0-.1-.7-1.8-.8-1.4 0zm-8.7 8.8c.9.5 2.2-1.2 1.2-1.6-.9-.4-2.1.9-1.2 1.6zm-4.5-9.3c.6 0 2.2-1.6 1.4-1.9-.6.3-1.8 1.3-1.4 1.9zm-.6.8c1.1-1-2.5-1-2.1.8.7-.1 1.4-.4 2.1-.8zm49.5-.4c1 0 1.7-1 1.2-1.9-.9 0-1.7 1.1-1.2 1.9zm-1.6 2.2c.9-.1 1.7-.9 1.5-1.8-.7-.7-2.3 1.2-1.5 1.8zm-2.9 1c.1.2.1.4.1.6 5.5-.7 0-2.9-.1-.6zm-7.7 7c.7-2.7 8.9-4 6.2-6.2-1.3-.7-2.2 3.4-3.7 2.7-.9-.5.9-.9.6-1.8.1-1.3-2.1-1.2-2.1 0 .4 1.4-3.1 7-1 5.3zm-4.1 10.6c1 0 3-1 3.2-2 0-3.5-1.5-.3-2.8.2-.7.2-2 1.8-.4 1.8zm25.5.1c.8-.1 1.5-.8 1.3-1.7-.8.2-1.5.9-1.3 1.7zm12.6 2.5c.5.6 1.8 1.6 1.4 0-.1-.8-2-.7-1.4 0zm-9.8 8.8c.9.5 2.2-1.2 1.2-1.6s-2 1-1.2 1.6zm-4.5-9.2c.6 0 2.2-1.6 1.4-1.9-.6.3-1.8 1.3-1.4 1.9zm-.5.8c1.1-1-2.5-1-2.1.8.7-.1 1.4-.5 2.1-.8zm20.4 15.7c-1 .2-1 1.6 0 1.3-.2-.5-.1-.9 0-1.3zm-108.3-35.5c1.5.1 2.5-1.4.8-2-.4.7-.5 1.3-.8 2zm0-5.5c-.7.1-1.7.7-1.6 1.5.7-.1 1.7-.7 1.6-1.5zm-18.9-16.7c-.2.7.7-.1 1 0-.1-.5-.6-.9-1.2-.9 0 .4.6.3.2.9zm.2-2.1c1.5 0 1.9-.1 1.1-1.7-.8 0-2.6 2.1-1.1 1.7zm-5.4 4.8c0-.4-.9.2-1.1-.1-.1.4-.2.7-.4 1.1.6-.3 1.4-.2 1.5-1zm-77.7 6c-.9-1.5-1.6 1-2.3 1.6 0 2.5 2.6 0 2.3-1.6zm-35.8-29c-.6-.7-1 .9-.6 1.2.8.7 1.2-.7.6-1.2zm-54.4 18.5c0-.1.1-.1 0-.2-4.3 1.1-.6 2.8 0 .2zm-2.2-1.1c-1.8 1.1 2.2 0 .4-.7 0 .4 0 .5-.4.7zm-.7-.9c.4 0 .7-.3.7-.7 0-1-1.9.7-.7.7zm-.5 4.9c-.1.1-.2.2-.3.4 1.1.6 1.7.3 1.9-.9-.8 1.4-1.1-.2-1.6.5 0-.1 0-.1 0 0zm3.1-.9c-.7 1 .8.3.8-.2-.3-.2-.6-.1-.8.2zm-4.9-.3c.9-.5 1.3-.8.2-1.3 0 .5-.1.9-.2 1.3zm.3-2c.4-.2.8-.4 1.1-.7-.5 0-2.1.8-1.1.7zm-116.6-5.5c-1.9 1.3 2-.1.3-.8.1.5.1.6-.3.8zm-.1-1.7c0-.3-.3-.4-.6-.2-1.3 1 .4 1.5.6.2zm.6 3.3c-.2.3.1.9.2 1.1.8-.5 1.7-.7 1.5-1.6-.5.7-1.2.1-1.7.5zm-3.2 1c1.8.1-.4-2-1.2-.3l1.2.3zm.1-1.7c.4-.2.8-.4 1.1-.8-.4.1-2.1.5-1.1.8zm-2.1.2c-.7.6.3 1.8.4.6.1-.5.1-.5-.4-.6zm-25.2 24.5c-1 .2-1 1.6 0 1.3-.2-.5-.2-1 0-1.3zm-99.9 8.7c-1.5-.5-3 .1-3 1.9 1.1-.8 2-1.9 3-1.9zm-49.4-5.3c-1.4-.7.1.6-1.6.3.1.6-1.5 2.1-.4 2.3 1.3.2 1.9-3.8 2.2-1 1.4-.5.7-.7 0-1.3.4-.3.1-.3-.2-.3zm-.8-.9c-.5-.2-1 .2-1.3.6.3.3 1.6-.3 1.3-.6zm1.2 13c-.4 1.2 1.3.5 1.1-.5-.4.1-.7.3-1.1.5zm1.1-12.4c.1-.1 2.6-.9 2.9-2-.6.2-3.8.5-2.9 2 0-.1 0-.1 0 0 .1-.1.1 0 0 0zm-4.9-7.6c-.9-1-1.9 2.5-.5.9.4-.1.6-.5.5-.9zm-58.7-22.3c-1.2-.4-2.5 0-2.6 1.5 1-.8 1.7-1.6 2.6-1.5zm-59.1 31.5c-.7.2-1.5 1.1-.4 1.4.4 0-.1-1.1.4-1.4zm-66.9 15.7v.3c.4-.4 1-.6 1.2-1.2-.6-.1-1.2.2-1.2.9zm-.1-11.1c-.3 0-.5 0-.8.1-.9 1.8 2 .8.8-.1.1 0 .1 0 0 0zm1.4 0c.3-.6.3-1.1.2-1.6-.7.1-1.7 1.9-.2 1.6zm-1 12c.2.7-.9.8-.9 1.6 1.3-.9 1.9-2.3 3.6-2.5-1.1-1.7-1.4.9-2.7.9zm1.9-14c.4-.1.8-.3 1.1-.5-.4-.2-2.1.2-1.1.5zm-3.5 3.6c-.2-.5-.4.6-.6.9.4-.1.7-.5.6-.9zM2220.4 104c0-.1 0-.2-.1-.4-1.6.9 0 1.8.1.4 0 .1 0 0 0 0zm-12.1 3.6c-.4.8 0 3.1 1.5 2.6 1-.9-.4-2.9-1.5-2.6zm.2-39.3c-.2-.5-.4.6-.6.9.4 0 .7-.6.6-.9zm.9-.5c.8-.1 1.1-1.2 0-1.1-.3.3-.8 1.4 0 1.1zm.5 10c0 .7 1.2-.5 1.3-.9-.6-.1-1.3.2-1.3.9zm1.2-11.2c.3-.6.3-1.1.2-1.6-.7.1-1.6 1.9-.2 1.6zm-1 12c.2.7-.9.8-.9 1.6 1.9-1.6 4.5-4.3.9-1.6zm2-14c.4-.1.8-.3 1.1-.5-.4-.3-2.3.4-1.1.5zm-7.8 44.8c-.7-.7-4.8 1.4-2.9 2.5.5-.7 3.1-.8 2.9-2.5zm-18.9-29.6c.9-.4 1.7-1 1.9-2.1-2.4.3-1.5-1.1-2.7 1.2.6-.3 1 .4.8.9zm-1-.7c-.4.3-.9.2-1.3-.1-.5 1.9.7 1.4 1.3.1zm-2.9 15.7c.2-.8-.9-1-1.3-1.3 0 .6.3 1.1.4 1.7.3-.2.6-.3.9-.4 0 .1 0 0 0 0zm-68.7-25.3c-.3.3-.8.5-1.2.4.3.6.4 1.5.9 1.9-.1-.8 0-1.4.3-2.3zm-59.3 26.6c-1 .2-1 1.6 0 1.3-.2-.5-.1-.9 0-1.3zm-107.3-35.5c1.5.1 2.5-1.4.8-2-.4.7-.5 1.3-.8 2zm0-5.5c-.7.1-1.7.7-1.6 1.5.7-.1 1.7-.7 1.6-1.5zm-19-16.7c-.2.7.7-.1 1 0-.1-.5-.6-.9-1.2-.9 0 .4.6.3.2.9zm.2-2.1c1.5 0 1.9-.1 1.1-1.7-.8 0-2.5 2.1-1.1 1.7zm-5.4 4.8c0-.4-.9.2-1.1-.1-.1.4-.2.7-.4 1.1.6-.3 1.4-.2 1.5-1zm-77.6 6c-.9-1.5-1.6 1-2.3 1.6 0 2.5 2.6 0 2.3-1.6zm-35.9-29c-.6-.7-1 .9-.6 1.2.8.7 1.2-.7.6-1.2zm-54.4 18.5c0-.1.1-.1 0-.2-4.3 1.1-.6 2.8 0 .2zm-2.1-1.1c-1.8 1.1 2.2 0 .4-.7 0 .4 0 .5-.4.7zm-1.2 4c-.1.1-.2.2-.3.4 1.1.6 1.7.3 1.9-.9-.8 1.4-1.1-.2-1.6.5 0-.1 0-.1 0 0zm-1.5-3.2c.4-.2.8-.4 1.1-.7-.5 0-2.1.8-1.1.7zm-116.6-5.5c-1.9 1.3 2-.1.3-.8.1.5.1.6-.3.8zm.5 1.6c-.1.1-.1.3-.2.4.3.1.1.7.3.7.7-.5 1.6-.6 1.5-1.4.1-.5-.9.6-1.3.2.1-.2-.1-.1-.3.1zm-5.2-.5c-.7.6.3 1.8.4.6.1-.5.1-.5-.4-.6zm-125.1 33.2c-1.5-.5-3 .1-3 1.9 1-.8 1.9-1.9 3-1.9zm-49.4-5.3c-1.4-.7.1.6-1.6.3.1.6-1.5 2.1-.4 2.3 1.3.2 1.9-3.8 2.2-1 1.4-.5.7-.7 0-1.3.4-.3.1-.3-.2-.3zm-.8-.9c-.5-.2-1 .2-1.3.6.3.3 1.5-.2 1.3-.6zm1.2 13c-.4 1.2 1.3.5 1.1-.5-.4.1-.7.3-1.1.5zm1.1-12.4c.8-.9 2.4-.5 2.8-2-.8.1-4.1.8-2.8 2m-4.9-7.6c-.9-1-1.9 2.5-.5.9.4-.1.6-.5.5-.9zm-58.8-22.3c-1.2-.4-2.5 0-2.6 1.5 1-.8 1.7-1.6 2.6-1.5zm-125.9 47.2v.3c.4-.4 1-.6 1.2-1.2-.6-.1-1.2.2-1.2.9zm-.1-11.1c-3 .5 1.5 2.1 0 0 .1 0 .1 0 0 0zm1.3 0c.3-.6.3-1.1.2-1.6-.7.1-1.7 1.9-.2 1.6zm-.9 12c.2.7-.9.8-.9 1.6 1.3-.9 1.9-2.3 3.6-2.5-1-1.7-1.6.8-2.7.9zm-175.4 29.9c-.4.8 0 3.1 1.5 2.6.9-.9-.3-2.9-1.5-2.6zm1.2-39.8c.8-.1 1.1-1.2 0-1.1-.3.3-.8 1.4 0 1.1zm1.7-1.2c.3-.6.3-1.1.2-1.6-.7.1-1.6 1.9-.2 1.6zm-1 12c.2.7-.9.8-.9 1.6 1.9-1.6 4.5-4.3.9-1.6zm-5.8 30.8c-.7-.7-4.8 1.4-2.9 2.5.5-.7 3.1-.8 2.9-2.5zm-19-29.6c.9-.4 1.7-1 1.9-2.1-2.4.3-1.5-1.1-2.7 1.2.6-.3 1 .4.8.9zm-1-.7c-.4.3-.9.2-1.3-.1-.5 1.9.7 1.4 1.3.1zm-2.9 15.7c.2-.8-.9-1-1.3-1.3 0 .6.3 1.1.4 1.7.2-.2.5-.3.9-.4 0 .1 0 0 0 0zM828.3 60.6c1.5.1 2.5-1.4.8-2-.4.7-.5 1.3-.8 2zm0-5.5c-.6-.1-2.1 1.2-1.5 1.5.7-.2 1.6-.7 1.5-1.5zm-8.4-7.4h-.3.3zm-10.6-9.3c-.2.7.7-.1 1 0-.1-.5-.6-.9-1.2-.9 0 .4.6.3.2.9zm.2-2c3.5.1-.1-3.2-.6.1.3-.1.4-.1.6-.1zm-5.4 4.7c-.1-.4-.8.2-1.1-.1-.1.4-.2.7-.4 1.1.6-.3 1.4-.2 1.5-1zm-77.7 6c-.9-1.5-1.6 1-2.3 1.6 0 2.5 2.6 0 2.3-1.6zm-90.2-10.5c0-.1.1-.1 0-.2-4.3 1.1-.6 2.8 0 .2zm-2.9-2c.4 0 .7-.3.7-.7 0-1-1.9.7-.7.7zm-.5 4.9c-.1.1-.2.2-.3.4 1.1.6 1.7.3 1.9-.9-.8 1.4-1.1-.2-1.6.5 0-.1 0-.1 0 0zM514.6 29.1c0-.3-.3-.4-.6-.2-1.3 1 .4 1.5.6.2zm.6 3.3c-.1.1-.1.3-.2.4.3.1.1.7.3.7.7-.5 1.6-.6 1.5-1.4.1-.5-.9.6-1.3.2.1-.2-.1-.1-.3.1zm-3.2 1c1.8 0-.5-2-1.2-.3l1.2.3zm-27.2 23c-1.1.2-1 1.6 0 1.3-.2-.5-.2-1 0-1.3zM385 65.1c-1.5-.5-3 .1-3 1.9 1-.8 1.9-1.9 3-1.9zm-49.4-5.3c-.2 0-.6-.5-.7-.1.1.9-1.1 0-1 .6.4.7-1.3 1.4-.6 2 1.5.9 2.2-3.9 2.5-.9 1.4-.5.7-.7 0-1.3.4-.3.1-.3-.2-.3zm-.8-.9c-.5-.2-1.1.3-1.3.6.3.3 1.6-.3 1.3-.6zm2.3.6-.2.2c.1 0 .4 0 .2-.2.8-.9 2.4-.5 2.8-2-.8.1-4.1.9-2.8 2zm-4.9-7.6c-.8-1.1-1.9 2.5-.5.9.4-.1.6-.5.5-.9zm-58.8-22.3c-1.3-.4-2.5 0-2.6 1.5 1-.8 1.7-1.6 2.6-1.5zm-124.7 36c.3-.6.3-1.1.2-1.6-.7.1-1.7 2-.2 1.6zm-1 12.1c.2.7-.9.8-.9 1.6 1.3-.9 1.9-2.3 3.6-2.5-1.2-1.7-1.4.8-2.7.9zM52.5 60.3l-.8 1.7c.4-.4 2.3-1.7.8-1.7.1 0 0 0 0 0zm19.4-.5c-.5-.4-.9-.1-1.1.3-3.8 2.2 2.6 5 1.1-.3zM98.6 43c-.9-1.3-3.6.5-2.7 1.9 1.1 1.3 3.6-.4 2.7-1.9zm1.2 24.6c-2.4-1.2-.5-6.6-5.8-1.8.3 1.6 2.8 2.2 2.9 3.5-13 .6-3 2.2-4.6 6.4 5.2-1.2 2.2-4.7 7.5-8.1zm31-11.4c-1 2.7 2.1.9 2.2-.9-.6.4-1.4.7-2.2.9zm7.1-5.6v-.4c-2.6 2.2.5 2.9 0 .4zm2.2-3.6v-.2c-.4.7-.8 1.4-1.2 2 .7-.2 1.4-1 1.2-1.8zm.9-1.6c.9.3 3.1-3.3 2.3-.9 5.5-5-.4-6.6-2.3.9zm4.1-10.4c-1.1 2.1-2.7 3.5-4.1 5.3 6.1-3.9 5.9 0 6.6-7.3-1 .2-2 1-2.5 2zm6.3 4.6c-2.3-1.7-4.4 3-6.1 4.2.9 2.1 5.6-2.6 6.1-4.2zm.2 11.1c-1.3 1.6-5.4-.1-5.1 3.1 7.6-3.2-2.8 5.4-4.5 6.3 2-.7 6.6.3 6-3.1-.7-3.1 4.7-1.5 5.4-7.6-.7.3-1.2.8-1.8 1.3zm6.3-15.6c2.1-.4 1.9-1.9 2.2-3.4-.8.7-2.8 2.3-2.2 3.4zm-1.1 1.5c.1 0 .1-.1 0 0 1.4-2.2-.8-.4-1.9-1.2-1.6-.2-1.6 1.9-1.9 3 1.3-.2 2.5-1.3 3.8-1.8zm-2.9 18.7c.7 0 .6-.8.8-1.3-1.2 0-2.5.5-2.9 1.9l2.1-.6zm-1.3 5.9c.1.6.3 2.1 1.1 1.8 1.3-1.7 1.4-2.4-1.1-1.8zm5.6 15.9c-.9.1-1.3.8-1.8 1.5 1.8.2 2.4-.2 2.4-2-.1.2-.4.4-.6.5zm4.8 16.6c-2.1 0 1.2 1.3-1.2 2.5 1.6.1 1.2-1.6 1.5-2.6-.1.1-.2.1-.3.1zm3.7-10.2c0 .7.7-.2 1.2.1 1.2.2 1.1-1.3 1.6-2-.9.4-2 1.2-2.8 1.9zm-3-2.5c4.3-2.2 1.3-3.5-.2.2 0-.1.1-.2.2-.2zm15.1 2.6c-.7.9-2.1.9-2.8 1 .1 1.3 4.4.6 2.8-1zM216 55.9c-.6.4-1.1 1.1-1.9 1.1.2-.5.6-1.2-.4-.8-2 3.7 3.1.6 2.9-.8-.2.1-.4.3-.6.5zm3.6-2.6c-.6.6-1.9.2-2.1 1.1.9.3 2.4-.2 2.1-1.1zm8.3-6.6c-1.1-.4-1 1.3-1.9 1.4-1.4 2.5 3.3-.8 1.9-1.4zm13.5-2.7c-2.2-1.5-2.5-.1-4.4.9-.5.9.8 2.3 1.3.8 0-1.5 4.2.1 3.1-1.7zm25.4-12.8c-1.5 3.5 2.6 3.6 3.2.3-1.1-.8-1.6 1.8-2.1.1 0-.2-.5-.5-1.1-.4.1 0 .1 0 0 0zm5.2-11.7c.8-1.5 1.5-1.7 2.8-2.5-.9.2-3.8 1.9-2.8 2.5zm5.3 1.9c-.7-.6-1.3.7-1.4 1.2-.4 1.3-2.2.6-2.7 2.1-.2-2-2.8-1.4-1.8.1.2 1.2-4.8 3.4-3.8 4.8 3.5-.2 5.2-7.1 8.4-2.7 0 1 1.1.7 1-.1-1-.8 1.9-2.3-.9-2 .4-.8 3.4-3 1.2-3.4zm7.4-7.1c-.3-.7-1.6 0-1.1.5.3.2 1.5-.1 1.1-.5zm3.9-2.6c-1.2-1.3-1.8 1.5-2.9 1.7-.4 0-1.3.8-.4.7 1.1-.9 2.7-.6 3.4-2.2.1.1.1-.1-.1-.2zm1.9-.7c.1-.1.1-.2.2-.3-1.1-2.4-2.6 1.7-.2.3zm5.9 8.3c-.6-.1.1-.6-.2-.9 0 .3-.5.5-.2.9.2.7-1.9.8-.3 1.1.1-.4 1.6-.8.7-1.1zm5.1-4.8c-2.3.2.2 3.9.2.6.2-.3.1-.5-.2-.6zm7.6-2.2c-.4-.4-1.5.6-1 1 .5.1 1.2-.4 1-1zm.8 20.6c-1.8 1.8-2.4.3-3.5 1.2-.8.5-.6 1.3.2.4-1.9 2.3 3.2-.6 3.3-1.6 0 .1 0 0 0 0zm5.6-3.8c-4-.1-.4 4.3.5.7-.2-.2-.3-.5-.5-.7zM319 57c-3.6 1.3 1.5 1.8 1.5-.5-.5.2-1.1.1-1.5.5zm9.4-22.7c-.8.2-3 5.1.1 2-1.4-.3 1.2-1.4-.1-2 .1 0 0 0 0 0zm1.2 18.8c-1.6 1 1.6 1.7 1 .2-.3.1-.7 0-1-.2zm4.7-11c-1.8 1.2-2.8 3.7-4.5 3.7.5.5 1.1 1 1.6.2 0-1.4 4.3-3.3 2.9-3.9zm.5 7.3c-2.1 2.2 1 1.4 1.9.1.6-2.9-.8-1.1-1.9-.1zm2.3-9.4c-.7.2-.7 1.2-1.4 1.8.7 0 2.6-1.2 1.4-1.8zm1.8-.7c1.5-.3.8-1.8-.5-1-.8 1.3-1.1 2.5.5 1zm-.2 8.5c-1.1-1.1-1.5 1.1-.8 1 .3-.2 1.6-.8.8-1zm1.4 7.4c.2-.3.1-.6-.1-.8-1.9-.2-1.5 2.6.1.8zm4.9 11.1c-.7.7-2.1 1.3-2.6 2.3l3.4-2.5c-.3.3-.6.3-.8.2zm1.4-4.9c-.9.1-1.1 1.2-.6 1.8.8.3 1.2-1.5.6-1.8zm2 1.9c-2.4.5-1.2 1.6-2.6 2.8.9-.2 5-4.4 2.6-2.8zm6.3-5.1c-.7.3-4 1.8-2.8 2.7.7-.6 3.2-2.5 2.8-2.7zm22.3 9.4c-1.8 8.8 7.4-1.6 2.6.9-1.1 1.8-1-1.9-2.6-.9zm5.6-14.7c1.3-1.1.6-2.8 3-2.8.3 0 .2-1-.1-.5-.9.3-4.4 2.4-2.9 3.3zm6.7 2c-1-.7-1.4.9-1.7 1.6-.4 1.6-2.6 1-3.2 2.6-.4-1-1.7-2.8-2.5-1.1-.6 1.6 1.8 1-1.6 3-.6.9-5.6 5.3-1.4 3.9 2.6-.9 3.5-6.8 6.6-4.7.6.8 2-1.3 1.6 0-.2.3-.1.8.2.8.3.2-.1.6.2.8 1.5.1.3-1.2.7-1.7 1.2-1.2.2-1.7-1-1.5.4-1 2.7-3 2.1-3.7zm4-2.9c-.1-.1-.2-.1-.3-.1-2.6 1.9-1.1 2.4.3.1zm4.7-6.3c-.4-.9-1.7.2-1.3.7.4.2 1.7-.1 1.3-.7zm4.5-3.5c-1.1-1.3-3.2 2.5-4.5 3.2.8.9 1.2-1.4 2.1-.8.9.1 2.8-1.7 2.4-2.4.1 0 .1 0 0 0zm2.5-.9c.5-.5 0-1-.5-1.1-1.5-.6-1.4 2.7.5 1.1zm7.7 9.9c-.7-.2.2-.8-.3-1.1-.4.8.2 1.9-1.1 2.2-.5 1.4 2.8-.6 1.4-1.1zm6-6.2c-2.8.6.5 4.5.2.6.3-.2.1-.5-.2-.6zm9.2-3.2c-3.1.4.2 2.8 0 0zm1.2-.8c.3-.5.2-.9.1-1.3-1.4-.3-1.5 2.8-.1 1.3zm1 26.2c-2.7 2.7-2.7.3-4.3 1.7-1.2 1.1-.6 1.3.4.4-2.6 2.9 3.8-1.4 3.9-2.1zm6.6-5.1c-4.9-.1-.6 5.5.5.9 0-.3-.2-.7-.5-.9zm12.3 1.5c-.9-.5-1.4 1.8-.5 1.1.4-.2.9-.7.5-1.1zm58.6-25.2c-.7.2-1.4.8-.8 1.5.6-.2.8-1.4.8-1.5zm3.8-12.7c-1.5.6-1.1 2.9-2.8 3 .2.6-.2.7-.5 1.2.8-.6 2-.3 2.1.6.1-2.1 3.9-1.9 3.6-3.9-.7-.7-1.3-2.1-2.4-.9zm7.9-6.2c-.2-.2-.4-.6-.6-.9-1.2-.7-.8.5-1.2.8-1-.1-1.1.9-1.7 1.4-.4 1.8-1.8.5-2 1.7-1.8 3.1.5 3.7 2 .9m5.5-5.7c-.4 0-.9.7-.9 1.1.5.3 2.1-.8.9-1.1zm5.3-3c-2.4-1-4.4 4.4-1.3 1 .4.1 1.9-.7 1.3-1zm58.7 46c.7 1.4 1.3 3.7 1.2.2 6.2-5.4 2.8-6.2-1.2-.2zm5.1-6.5c-.1-6.4-6.3 2.2-2.6-.2.7-1.6 1.3 1.6 2.6.2zm4.1-8.2c-.8-.5.1-2.2-.7-2.4-1.6 2.5-3.6 1-2.1 5.3 1.2 2.3 3.5-1.4 2.8-2.9zm7.3 14.1c-2.5-1.3-1.3 0-2.9.9-1.2 0-1.2 1.2-.5 1.8.8-2.5 1.1-.8 2.4-2.1.1-1.1 1 .2 1.5-.4-.3-.1-.4-.2-.5-.2zm8.9-7.8c-.4.3-.9.8-1.4.9-2.2 1.5 2.1.5 1.4-.9zm5.2-5.8c-1 1.4-2.8 2-3 3.7 1.2-.4 1.1-1.5 1.8-2.3 1.5.8 2.2-2.1 1.2-1.4zm2.8 1.3c-.9-.1-2.1 1.7-2.1 2.5.8.5 3.1-2.1 2.1-2.5zm3.3-7.9c-.8.7-2.5 1.2-2.6 2.5.5-1.2 2.7-1.2 2.6-2.5zm4.5-4c-.6-.4-1.2.9-1.6 1.3 1.4-.2-2.1 1.4-2.3 2 1.2.1 5.2-3.1 5.6-4.2-.7.1-1.1 1.2-1.7.9zm4.6-5.2c-1.3.5-1.6 2.7-3 2.8-.7-.2-1.1.7-1 1.2.9-.3 2.6-1.3 2.5.5.2-2 3.7-1.7 3.8-3.5-.7-.7-1.2-1.6-2.3-1zm7.7-6.8c-.9-.6-2.9 2.2-3.6 3.1-.4.5-1.5-.2-1.5.8-2.5 4.9 2.2 1.8 3.3-1 1.1-1.3 3.3-.5 1.8-2.9zm2.7-.8c-.6-.1-1.4 1.2-.5.9.4-.1 1.5-.6.5-.9zm5.4-2.9c-.6.1-1.6-.5-1.8.4-.2.8-2.2 1.1-.6 1.8.5-1.8 2.6-.9 2.4-2.2zm45.6-7.3c-1.2.1-3.3-1.4-3.6.7.2 1.5-2.7 1.2-2.2 2.6.4.7 2.3 1.9 2.1.3-1.1-2.3 6.4-1.7 3.7-3.6zm12 49.3c1 .2 2-.4 1.9-1.5-.6.4-1.3 1-1.9 1.5zm2.1-29.8c-.4-.8-1 .3-1.5.6.7 1.7.7.1 2 0-.3-.2-.4-.4-.5-.6zm.9 1.5s0 .1 0 0c.1 0 0 0 0 0zm3.7 27.6c-2.9-.1-3.7 2.8-5.7 4.4.7.6.5 1.4 1.2 2 .5-.1 1-1.3.3-1.4-.1-1.6 4-3 4.2-5 0 .1 0 0 0 0zm2.3-11.5c-2 1.4-.4 1-.8 2.6-.5.1 0 .6.2 1.1 0-2.4 1.8-1.8 3.1-2.9-.6-4.3 0-.8-2.5-.8zm13-12.8c-1.5-11.1-7.1 5.6-12.5 5.5.2.3.5 1 0 1.3.1.1.2.1.2.2 1.8-2.6 2 .4 3.5 1.4 2.4 5.6 10.9-5.6 8.8-8.4zm9.5 14c-.7.7-2.6 1.7-1.5.2-1.5-.5-.7 1.1-.5 1.8 1-.8 2.8-1.1 2.6-2.4-.2.1-.4.2-.6.4zm12.2-8.8c-.9-.1-2.1 1.5-2.3 2.3.9.5 3.1-1.5 2.3-2.3zm12.1-2.5c-2.3 2.4 4.5.6.4-.3-.1.1-.2.2-.4.3zm2.4-6.4c-1.3-.9-2.6 2.2-.8 2 .4-.6 1.9-1.3.8-2zm11.4-2.6c-.3.6-1.1.9-1 1.7 1 0 2.4-2.7 1-1.7zm3 .3c-1.5-.6-.8.8-1.5 1.3-.9.7 1.4.4 1.5-.1-.1-.4.5-1.2 0-1.2zm5 .6c-5.3 2.3-5.1 4.6.4.2-.2-.1-.3-.2-.4-.2zm4.7-9.6c1.7-1.4 5.4-.8 6-3.4-2.1-2.3-3.1 2.8-5.2 2-.8-.8 1.1-.9 1-1.9.2-1-1.2-1.6-1.9-1-.9 2.9-6.2 10.7.1 4.3zm16.7 13.9c-.5.6-3.6.5-3.2 1.3 1.9 0 4.2-.1 4.9-2.7-.5.5-1.1.9-1.7 1.4zm2.5 2.8c-.7.2-1.9 1.2-1.5 1.8.8-.1 2.6-1.2 1.5-1.8zm.6 3.6c-2.3 2.1 2.3-.4 3.3-1.1-.7-1.8-2.4.9-3.3 1.1zm7.5-16.8c-1 0 .2-1.4.2-2-2.5 2.7-5.6 4.8-6.9 7.7 1.8-2.4 2.2-1.9 2.7.8-1.5.3-1.8.7-1.5 2.3 3.7-.8 1.7-3.6 3.9-5.8-1.3-1.8.6-2.8 2.3-2.7-.1-.3-.3-.3-.7-.3zm7.5.7c.8.2 1.3-.4 1.4-1.1-.6.4-1 .7-1.4 1.1zm3.2 31.7c-.5 1.3 2-.4 1.8-1.1-.5-.4-1.6.6-1.8 1.1zm2.8-7.1c-1 .2-.9-1.3-2.2-.2 2 1.7 6.3-2.7 4.9-4.1-.5.1-1.1.5-.9 1.1-1 1.7-1.7.9-1.8 3.2zm3.6-12c.5-.7 1.6-1.3 1.5-2.3-2 1.5-5.2 2.5-3.9 4.5.2.4-.3.7-.1 1.2 2-1.5 2-1.6 2.5-3.4zm2.8-6.2c.7-1.7 5.9-5.3 1.4-5.3-1.7 1.3 2.8 1.6-1.6 4.5.4 1.5-1.9.4-1.8 2.5.9-.1 1.8-.8 2-1.7zm-.7 15.3c.3.2.7-.1.7-.4-.4-.1-1.3 0-.7.4zm-2.4-12.8c-1.4 0-1.8 1.8-2.7 2.5 1-.3 2.4-1.3 2.7-2.5zm-2.6-17.5c-1.8.6-.6 2.6 1.4-.4-.3.3-.8.4-1.4.4zm4.1 6.8c-3.1.2-3-.8-4 2.7.7 0 6.1-2.4 4-2.7zm3.9-3.9c-1.2.6-3.4 2.2-3 3.6 1.1.1 4.3-2.9 3-3.6zm4.3 2.6c-.4.3-.8.6-1.2 1 .9-.3 1.6-.9 2.5-1.3-.6-.1-1 0-1.3.3zm2.8-9.9c.1-.2.2-.4.4-.5-1.1.6-2.3 1.4-2.7 2.7 1-.5 1.8-1.3 2.3-2.2zm1.4 7.7c-.2.3-.4.6-.5.8 1.4.3 1.7-1 1.7-2.2-.5.4-.9.9-1.2 1.4zm10.4.2c1.9-1.9-.9-.5-1.8-1.2-1.7-.2-1.6 1.8-2.1 2.8 1.3-.2 2.6-1.2 3.9-1.6zm-2.5 11.8c1 0 1.7-1 1.2-1.9-.9 0-1.7 1.1-1.2 1.9zm-1.7 2.2c.9-.1 1.7-.9 1.5-1.8-.6-.7-2.2 1.2-1.5 1.8zm-2.8 1c.1.2.1.4 0 .6 5.6-.7-.2-2.9 0-.6zm-.1-11.1c.2.2.2.4.1.6 3.3-2.3-.5-3.5-1.8-1 .6 0 1.3-.2 1.7.4zm-3.4 14.7c4.3-1.7 2.7-4.5-.4 0h.4zm-2.9-10c.6-1.7 4.1-.8 2.2-2.7-.3 1.1-3.8 2.4-2.3.6 1.5-.6 3.1-4.1.3-3.5-3.1 2.2-3.4 7.2-6.7 9.8 1.5-.4-.2 1.6-1 1.3 1 1 2.3-1.3 3.1-1.9-.4-2.1 2.5-1.4 2.8-3.1.1-.8 1.2-1.1 1.6-.5zm-1.3 13.6c.2-.2.4-.4.5-.6-1.5-.7-2.3 1.7-.5.6zm-3.5 9.3c1.1 0 .6.8 0 1.2 4.4-2 2.7-5.3-1.1-1.2h1.1zm-1.5-6.6c.8-.6 1.7-.5 2.4-.1-.3-.6 1.5-1.6.4-2.1-.2-.3-1.1.9-.9 0-.3.3-.9.2-.6-.3-1.1.4-3.5 2-1.3 2.5zm-3.3 9c.2-1.1 3.3-4.5 2.4-4.6-.9.2-1.3 2.2-2.3 1.2-1.2.7-3.5 1.6-3.3 3.5.8-.2 0 .5.3 1 .7 0 2.3-1.4 1.7.1.5-.3 1-.7 1.2-1.2zm24.5 3.3c-1.3-1.5-3.8 4.3-4.1 2.1 2.2-2.4-1.1-2.9-2.1 1.7 1.5.7 5.2-2.1 6.2-3.8zm21.9 19.7c.4-1.2-1.4-1-1.6-.1.5 1.9.2 1.7 1.6.1zm34.5 3.7c-1.8-1-2.4 2.7-4.1 2.6-.6-.5 1.5-1.3.7-2.1-2-1-2 2.3-2.8 3.3 1.5.7 5.2-2.1 6.2-3.8zm24.5 8.3c-4.1 3.7-1-.3-2.8.9-1.1 2 .2 2.3 1.5.9.1-1.4 1.8-.1 1.3-1.8zM960 76.6c-1.1-.7-.9 1.4-1.8 1.4-.4 0-.9.2-1 .6.5.3.8.6 1.4.8.1-1.4 1.3-.9 2.3-1.1.6-2.1-2.4.4-.9-1.7.1 0 .1 0 0 0zm5.1-5.2c-1.4-1.7-3.6 3.1.2.7 0-.2 0-.6-.2-.7zm2.8-.2c-1.1-.5-1.3 1.4-2.2 1.8 0 1 2-.2 1.7-.8-.1-.7.1-.8.8-.7l-.3-.3zm2.1-1.6c-.8-.4-.8.8-.8 1.3.5-.3.9-.7 1.3-1.1-.1 0-.3 0-.5-.2zm6.9-2.4c-.7-.8-1-2.1-1.3-3.2-2.6 1.2 1.1 6 1.3 3.2zm.8 2c-.3.9-.3.9-1.3.9-.8 1.9 2.6-.3 1.3-.9zm19.4-13.3c-.5-.2-1 .9-1.6.8-.6 1.9 2.4.5 1.6-.8zm1.1 2.3c-1.6 1.5-4-.1-3 2.8-1.5-1.7-.9-1.2-.8-3.2-3.1-1.5 3.2-3.7-1.5-4-.4-.6-1.2 1.4-1.1 1.7-.2 1.5-2 .6-2.6 1.8-.8.8-1.1-2.6-2.5-.7.2 3.2-3.7 4.3-5.2 7.5 1.2.1 1.7.5 1 1.6 1.1 3.1 4-.9 6-2.2-1.9-1.4-.4-1.6.8-2.3-2.5-.7 1-2.4 2.2-2.6-.8 2.4 1.9 1.4 2 3.3-1.8 3.6 1.7 1.3-.6 4.1 1.3-.4 9.4-7 5.9-5.3-.6-.4.7-1 .9-1.2 1.3-2 .1-1.9-1.5-1.3zm7.4-15.8c-1.8-1.9-2.2 2.4-3.8 2-1.1-.4 1.4-1.5.3-2.3-2-2.1-1.8 4-3.2 5.1-.5.4.2 1.2.7.6 1.1-2.9 5.3-2.7 6-5.4zm2.6-1.8c-1.6-.2-2-.8-1.8 1.2.5 0 3.3-.9 1.8-1.2.1 0 .1 0 0 0zm1.6-2c-.8.2-1.5 1.1-1.1 1.9.8-.1 1.4-.9 1.1-1.9.2 0 .2-.1 0 0zm1.5-1.9c-.9 0-1.3 1-1.1 1.7.9 0 1.4-.9 1.1-1.7zm24.6 34c-2.8.7-.2 2.5.5 0h-.5zm2.4-.4c-1 3.6 1-.8 2.6.5 1-1.4-1.8-1.1-2.6-.5zm2.7-1c.1.1.2.1.3.3 4.2-8.7-4.2-.7-.3-.3zm2.1-25.3c-.9-1.3-3.6.5-2.7 1.9 1.2 1.3 3.4-.4 2.7-1.9zm7 30.9c-1.4-.5-4.5 4-2.2 4 .2-1.2 3.4-2.9 2.2-4zm6.7 4.6c-1.2.1-2.2.2-3.2 1.2 5.5-2-1 4.3-1.9 6.1 1.2.2 12.2-6.2 5.6-6.4-.3.3-.6-.3-.5-.9zm12.5-13.4c-3.5 3.3-9 8.2-11.9 12.3 1.4-1.7 3.8-2.3 5.6-3.4-1.7 4 1.4.3 3.2-.4-.1.2-.2.4-.4.6 1.9 1.4 2.7-2.1 3.2-3.6-.6-.1-1.2.3-1.2.9-.3 2-2 1.2-1-.5-1 .9-1.4 0-2.3.6 1-1.4 3.1-1.2 3.5-2.9-1.5-1.6 2.3-1.3 3.2-4.3-.5.1-1.1.1-1.5.2l.2.2c-.5.3-.5.3-.6.3zm2.6 52.4c-1.2 3.2 4.5-2 5.6-2.8-3-1.4-2.5 1.5-5.6 2.8zm3.4-61.4c-1 2.7 2.1.9 2.2-.9-.6.5-1.4.8-2.2.9zm7.2-5.6v-.4c-2.3 1.7.5 3 0 .4zm2.2 32.4c-.2.3-.8.4-.8 0-2.4 1.4-6.3 1.5-4.7 5.6-1.3-1.8-5.5-.8-3.7 1.5.9-.4 5.9-.1 3.4 1.4.4.7 3-1.8 2.7-2.3 5.5-8.2-5.2 2.6 3.4-6.3-.1 0-.2 0-.3.1zm.6 1.7c.8 0 1.3-.7 1.8-1.2-.4.2-.7-.3-.6-.6-.2.4-1.7 1.5-1.2 1.8zm.2-39.2c.9.3 3.1-3.3 2.3-.9 5.9-5.7-1.2-5.8-2.3.9zm4.2-10.4c-1.1 2.1-2.7 3.5-4.1 5.3 5.1-2.4 6.5-1.5 6.8-7.3-1.3.2-2.3 1-2.7 2zm6.2 4.5c-2.3-1.7-4.4 3-6.1 4.2.9 2.1 5.7-2.7 6.1-4.2zm.3 11.1c-1.3 1.6-5.4-.1-5.1 3.1 7.6-3.2-2.8 5.4-4.5 6.3 2-.7 6.6.3 6-3.1-.7-3.1 4.7-1.5 5.4-7.6-.8.4-1.3.8-1.8 1.3zm6.2-15.6c2.1-.4 1.9-1.9 2.2-3.4-.9.7-2.7 2.2-2.2 3.4zm-1.1 1.6c.1 0 .1-.1 0 0 1.8-2.4-.8-.4-1.8-1.2-1.6-.2-1.6 1.9-1.9 3 1.2-.3 2.4-1.3 3.7-1.8zm-2.8 18.7c.7 0 .6-.8.8-1.3-1.2 0-2.5.5-2.9 1.9.6-.2 1.3-.4 2.1-.6zm-1.4 5.8c.1.6.3 2.1 1.1 1.8 1.3-1.7 1.4-2.3-1.1-1.8zm3.8 40.5c0 .5.1 1 .3 1.4.7-.6 1-2-.3-1.4zm7.3-10.9c.2-.3.2-.6.1-.9-3.3 2.2-5.9 6.6-7 10.6 3.3-2.2 4.4-6.4 6.9-9.7zm2 6c-.9.4-3.2.3-1.4 1.6.3-.2 2.8-1.8 1.4-1.6zm2-1.2c.3-.2 1.9-2 1.2-2-1.2.5-3.9 4.2-1.2 2zm77.6-36.7c-.5-.4-.9-.1-1.1.3-3.9 2.2 2.3 4.9 1.1-.3zm26.7-16.8c-5.2-1.9-1.6 6.1.2.4-.1-.1-.2-.2-.2-.4zm.1 12.5c-.3-.6-1.2.2-.8.6.5.4 1.5-.1.8-.6zm1.1 12.1c-1.5-.1-.8-2.1-1.6-3-.4-.8-1.4-.8-2-.3-4.7 1.4-.3 3 .9 4.9-13.5.6-2.5 3-4.7 6.4 5.1-1.3 2.1-4.6 7.4-8zm31.1-11.4c-1 2.7 2.1.9 2.2-.9-.6.4-1.4.7-2.2.9zm9.3-9.2v-.2c-.4.7-.8 1.4-1.2 2 .7-.2 1.4-1 1.2-1.8zm.8-1.6c.9.3 3.1-3.3 2.3-.9 5.7-5.6-.9-5.9-2.3.9zm4.2-10.4c-1.1 2.1-2.6 3.5-4.1 5.3 5.2-2.4 6.3-1.5 6.7-7.3-1.1.2-2.1 1-2.6 2zm6.2 4.6c-2.5-1.7-4.3 3-6.2 4.2 1 2.1 5.5-2.7 6.2-4.2zm.2 11.1c-1.3 1.6-5.4-.1-5.1 3.1 7.6-3.2-2.7 5.3-4.5 6.3 2-.7 6.6.3 6-3.1-.7-3.1 4.7-1.5 5.4-7.6-.7.3-1.2.8-1.8 1.3zm6.2-15.6c2.1-.5 1.9-1.8 2.2-3.4-.9.7-2.6 2.1-2.2 3.4zm-1 1.5c1.4-2.2-.8-.4-1.9-1.2-1.6-.2-1.6 1.9-1.9 3 1.3-.2 2.5-1.3 3.8-1.8zm-2.9 18.7c.7 0 .6-.8.8-1.3-1.2 0-2.5.5-2.9 1.9l2.1-.6zm-1.4 5.9c0 .6.4 2.1 1.1 1.8 1.2-1.6 1.6-2.4-1.1-1.8zm5.7 15.9c-.9.1-1.3.8-1.8 1.5 2 .1 2.4 0 2.5-2-.2.2-.5.4-.7.5zm4.8 16.6c-2 0 1.1 1.2-1.3 2.5 1.7 0 1.1-1.6 1.5-2.7 0 .2-.1.2-.2.2zm3.7-10.2c0 .7.6-.2 1.1.1 1.2.2 1.1-1.3 1.6-2-1 .3-1.9 1.2-2.7 1.9zm49.3-27.6c-.6.4-1.1 1.1-1.9 1.1.7-3.1-2.6 2.9.9.5.6-.6 2.9-2.6 1-1.6zm11.9-9.2c-1.1-.4-1 1.3-2 1.4-1.5 2.6 3.4-1.1 2-1.4zm13.6-2.7c-3.3-2.6-6.3 4.1-3 1.7 0-1.5 4.3.1 3-1.7zm12.7 1.8c-.2-.3-.6-.4-.9-.3-.7 1.2 1.7 1.7.9.3zm12.7-14.6c-1.5 3.5 2.6 3.6 3.2.3-1.1-.8-1.6 1.8-2.1.1-.1-.2-.6-.5-1.1-.4zm10.4-9.8c-.7-.6-1.3.7-1.4 1.2-.4 1.3-2.2.6-2.7 2.1-2-3.9-1.2 1.1-3.4 1.6-.3 1-3 2.2-2.3 3.3 4.3-.3 2.9-5.7 8.2-3.4-.4.4.3.7.3 1-.1.8 1.1 0 .8-.4-.9-.8 1.8-2.3-.9-2 .1-.5 3.4-3.1 1.4-3.4zm7.4-7.1c-.3-.6-1.6-.1-1.1.5.3.2 1.5-.1 1.1-.5zm3.9-2.6c-.9-1.1-2.8 1.9-3.7 2.3 1.1-.3 3-.7 3.8-2.1.1.1.1-.1-.1-.2zm2.1-.7c.1-.1.1-.2.2-.3-1-2.3-2.7 1.6-.2.3zm5.8 8.3c-.5-.1 0-.6-.2-.9-.5.9.2 1.3-1 1.7.2.8 2-.5 1.2-.8zm13.5 13.6c-1.8 1.8-2.4.3-3.5 1.2-.8.5-.6 1.3.2.4.2-.1.4.1.1.2-2.3 1.9 3.5-.9 3.2-1.8zm5.5-3.8c-4-.1-.4 4.3.5.7-.2-.2-.3-.5-.5-.7zm3.5 27.9c-3.6 1.3 1.5 1.8 1.5-.5-.5.2-1.1.1-1.5.5zm5.8-36.7c-.4.4-2.1-.1-1.7.5.3.7-2 .3-1.1 1.4.7.7-.7 1-.6 1.8-.1 1-1.2.5-1.8.5-.9 3 7.7-4.4 5.2-4.2zm3.6 14c-.8.2-3 5.1.1 2-1.4-.2 1.3-1.9-.1-2zm1.2 18.8c-1.5.9 1.1 1.8 1.1.4-.2-.2-.8-.1-1.1-.4zm4.7-11c-1.8 1.1-2.9 3.9-4.5 3.7.5.5 1.1 1 1.6.2 0-1.4 4.3-3.3 2.9-3.9zm.5 7.3c-2.1 2.2 1 1.4 1.9.1.6-2.7-.8-1.1-1.9-.1zm2.3-9.4c-.7.2-.7 1.2-1.4 1.8.7-.1 2.5-1.2 1.4-1.8zm1.8-.7c1.3-.5.9-1.9-.5-1.1-.7 1.2-1.3 2.5.5 1.1zm-.2 8.5c-1.7-1.2-1.5 2.4.2.3 0-.2.1-.3-.2-.3zm1.4 7.4c.2-.3.1-.6-.1-.8-1.9-.2-1.5 2.6.1.8zm5 11.1c-.7.7-2.1 1.3-2.6 2.3l3.4-2.5c-.3.3-.6.3-.8.2zm1.4-4.9c-2.7 1.3 1.4 3 0 0zm2 1.9c-2.6.4-1.3 1.5-2.7 2.8 1-.2 4.9-4.4 2.7-2.8zm.7-4.7c-.6 1 2.7-1.3 2.7-2-1 .5-1.4 1.7-2.7 2zm3.6-7.6c-.6.2-1.1.9-1.7 1.3.5.1 3-.9 1.7-1.3zm1.6 2.9c-.5.3-.9.6-.8 1.2.6.2 1.5-1 .8-1.2zm.4 4.3c-5 2.3-2.3 3.5.3-.1-.1 0-.2 0-.3.1zm4.3-4.2c-.5.4-1.1.7-1.4 1.2.3.6 1.3-.8 1.4-1.2zm17.9 13.6c-2 8.1 7-.2 2.9.6-1.6 2.3-1-1.2-2.9-.6zm5.6-14.7c1.2-.7.7-3 2.7-2.7.4 0 .6-.4.5-.7-1.1.3-4.5 2.5-3.2 3.4zm6.7 2c-1-.7-1.4.9-1.7 1.6-.4 1.6-2.6 1-3.2 2.6-.3-2.1-3.5-2.2-2.4-.1.1 1.9-5.7 4.1-4.6 6.2 5.1-.8 3.1-6.3 9.3-5.3 1-.4-.2 1.1.6 1.2-.1 1.3 1.4.7 1-.1-.8-1.1 2.2-2.6-1.1-2.3.4-1 2.7-2.9 2.1-3.8zm15.8-13.6c.5-.5 0-1-.5-1.1-1.4-.6-1.5 2.6.5 1.1zm7.7 9.9c-.7-.1.2-.8-.3-1.1 0 .4-.6.7-.2 1.2.4.8-2.4 1.4-.3 1.5.3-.5 1.9-1.1.8-1.6zm13.1-7.4c-.3 0-.5 0-.8-.1 0 1.4 2 .5.8.1zm3.2-2.8c.3-.5.2-.9.1-1.3-1.4-.3-1.6 2.8-.1 1.3zm1 26.2c-2.7 2.7-2.7.3-4.3 1.7-1.1 1-.5 1.2.4.4-1.8 2.5 3.4-1.2 3.9-2.1zm6.6-5.1c-5-.2-.8 5.6.4.9.1-.3-.1-.7-.4-.9zM1563 52c-2.1-.4-.3 1.6-1 2.2-.3.4-.9.6-.7 1.3-.1 1.7-2.9-.2-2.3 1.6 2.3-.3 6.7-5.2 6.6-6.4m1.3 12.9c-.8-.5-1.6 1.9-.7 1.1.4-.2.7-.7.7-1.1zm4 4.2c-1-.3-.3 1.3-1 1.6-2 3.1 1.2 2.3.9.7-1.2-.2 1.4-2.3.1-2.3zm32.6-16.2c-.8.6-1.4.8-.8-.3-.8-.5-1.4 1.7-.8 1.9-.6-1 2.4 0 1.6-1.6zm25.9-25.9c-1.5 1.4-2.1 2.9-3.3 4.2.8-.6 2.1-.4 2.2.6.3-1.9 2.4-1.8 3.4-2.9.7-1.1-1-3.2-2.3-1.9zm7.3-7.1c-1.2-.7-.8.5-1.2.8-1-.1-1.1.9-1.7 1.4-.4 1.9-1.8.4-2.1 1.7-.1 1.4-1.3 1.3-.6 2.9 1.5 0 1.8-1.1 2.6-2 1.7-3.6 4.6-2.5 3-4.8zm2.6-.9c-.4 0-.9.7-.9 1.1.5.2 2.2-.8.9-1.1zm5.3-3c-2.4-1-4.4 4.4-1.3 1 .4.1 1.9-.7 1.3-1zm57.3 42.2c.8.9 1.9-.6 1.9-1.6-.6.7-1.2 1.2-1.9 1.6zm1.2 3.8c.5 1.1 1.3 3.3 1.3.7-.7.2 0-1.4.5-1.2 6.3-5.7.5-4.1-1.8.5zm5.2-6.5c-.6-.7.4-2.5-.8-2.2-2.1-.3-2.6.8-3 2.6.5.3 1.1-.2 1.3-.6.8-1.6 1.4 1.6 2.5.2zm4.1-8.2c-.8-.5.1-2.2-.7-2.4-1.1 2-2.9 1.1-2.5 4.1.2 3.6 4.1 1 3.2-1.7zm7.3 14.1c-2.4-1.2-1.3-.2-2.9.9-1.2 0-1.2 1.2-.5 1.8.8-2.5 1.1-.8 2.4-2.1.1-1.2.9.2 1.5-.5-.3 0-.4-.1-.5-.1zm8.9-7.8c-.4.3-.9.8-1.4.9-2.2 1.5 2.1.5 1.4-.9zm5.3-5.8c-1 1.4-2.8 2-3 3.7 1.2-.4 1.1-1.5 1.8-2.3 1.1.8 2.3-2.1 1.2-1.4zm2.8 1.3c-5.1 3 .6 3.5 0 0zm3.3-7.9c-.8.8-2.4 1.2-2.5 2.5.5-1.2 2.7-1.1 2.5-2.5zm4.4-4c-.4-.5-1.9 1.4-1.4 1.3.8-.1-2.4 1.5-2.5 2 1.5 0 4.9-2.9 5.6-4.2-.7 0-1.1 1.1-1.7.9zm4.7-5.2c-1.3.5-1.6 2.7-3 2.8-.7-.2-1.3.6-1.1 1.2.9-.3 2.6-1.3 2.5.5.2-2 3.7-1.7 3.8-3.5-.7-.6-1.3-1.6-2.2-1zm7.6-6.8c-.9-.6-2.9 2.2-3.6 3.1-.4.5-1.5-.2-1.5.8-2.6 5.5 2.2 1.6 3.3-1 1.1-1.3 3.3-.5 1.8-2.9zm2.7-.8c-1.9.7-.2 1.3.4.2 0 0-.2-.2-.4-.2zm5.4-2.9c-2.4-.5-1.1.6-2.9 1.3-.7.4.7 1.5.8.5-.3-1.2 2.9-.9 2.1-1.8zm45.6-7.3c-1.2.1-3.3-1.4-3.6.7.2 1.5-2.7 1.2-2.2 2.6.4.7 2.3 1.9 2.1.3-1.1-2.3 6.4-1.7 3.7-3.6zm12 49.3c1 .2 2-.4 1.9-1.5-.6.4-1.3 1-1.9 1.5zm2.1-29.8c-.4-.8-1 .3-1.5.6.7 1.7.7.1 2 0-.3-.2-.4-.4-.5-.6zm.9 1.5c0-.2 0 .1 0 0 .1 0 0 0 0 0zm3 24.4c-.4-.4-1.1.2-.8.6.3.1 1.5-.2.8-.6zm.7 3.2c-2.8.2-6.8 4.1-4.6 6.4 1.1-4.4 2.3-2.5 4.6-6.4 0 .1 0 0 0 0zm1.1-34.9c-.3-.2-.6-.2-.8.1-.2 1.5 2.7.8.8-.1zm1.4 3.3c-.7-.4-.5.7.1.4 0-.1 0-.3-.1-.4zm-.2 20.1c-2 1.4-.4 1-.8 2.6-.5.1 0 .6.2 1.1 0-2.4 1.8-1.8 3.1-2.9-.6-4.3 0-.8-2.5-.8zm13.1-12.8c-1.5-11.1-7.1 5.6-12.5 5.5.3.4.5 1 0 1.3.1.1.2.1.2.2 1.8-2.6 2 .4 3.5 1.4 2.4 5.6 10.9-5.6 8.8-8.4zm6.7 20.1c.9.9.5-.4.9-1-.3.2-1.4.5-.9 1zm2.8-6.1c-.7.7-2.6 1.7-1.5.2-1.4-.5-.6 1.1-.4 1.8 1.1-.9 2.6-1.1 2.6-2.4-.3.1-.5.2-.7.4zm3.7-2.5c-.6.6-1.9.2-2.1 1.1.9.4 2.4-.1 2.1-1.1zm8.4-6.3c-.9-.1-2.1 1.5-2.3 2.3.9.5 3.1-1.5 2.3-2.3zm12.1-2.5c-2.3 2.4 4.5.6.4-.3-.1.1-.2.2-.4.3zm2.4-6.4c-1.3-.9-2.6 2.2-.8 2 .4-.6 1.9-1.3.8-2zm8.5.2c-.8-.3-2 2.1-2.5.6-.3-2-3.4-1.1-2.8.6.6 1 1 3.1 2.2.7.1-1.1 2.4-.5 3.3-1.9h-.2zm2.9-2.8c-.3.6-1 .9-1.1 1.7.9 0 2.4-2.7 1.1-1.7zm3 .3c-1.4-.6-.8.8-1.5 1.3-.9 1.3 2.8-.4 1.5-1.3zm5.1.6c-5.3 2.3-5.1 4.6.4.2-.2-.1-.3-.2-.4-.2zm4.7-9.6c1.5-1.2 3-.8 4.5-1.7 2.5-.7 1-3.6-.6-1.7-.9.6-1.9 2.6-3.1 2-.7-.7 2.9-2.6-.5-3.1-1.7 2-6.4 11.2-.3 4.5zm16.6 13.9c-.5.7-3.7.5-3.3 1.3 2.1-.1 4.2.1 5-2.7-.4.5-1.1.9-1.7 1.4zm2.5 2.8c-3.1 1.6-.9 2.9.4.3-.2-.1-.3-.2-.4-.3zm.6 3.6c-2.5 2.1 2.1-.5 3.1-1.1-.7-1.8-2.2.8-3.1 1.1zm7.6-16.8c-1 0 .2-1.4.2-2-2.5 2.7-5.7 4.8-7 7.7 1.6-2.2 2.5-1.9 2.8.8-1.5.3-1.7.7-1.5 2.3 3.7-.8 1.7-3.8 4-5.8-1.3-1.8.6-2.8 2.3-2.7-.3-.3-.5-.3-.8-.3zm7.4.7c.8.2 1.3-.4 1.4-1.1-.6.4-1 .7-1.4 1.1zm.5 14.2c-.4.6-1.8.8-1.4 1.6.8-.8 1.6-1.6 2.5-2.2-.4.1-.8.3-1.1.6zm2 18.1h-.4c.3.8 1.2 0 .4 0zm.6-.6c-.5 1.3 2-.4 1.8-1.1-.4-.4-1.4.6-1.8 1.1zm.1-3.5c.1.8 1.2-.3 1.6-.5-.5.1-1.1.2-1.6.5zm2.7-3.6c-.9.2-.9-1.3-2.2-.2 2.1 1.7 6.2-2.7 4.9-4.1-1.2.1-.7 1.5-1.6 1.9-1.6.7-.5 1.6-1.1 2.4zm3.6-12c.5-.7 1.6-1.3 1.5-2.3-1.8 1.5-5.5 2.5-3.8 4.5.2.2-.4.7-.2 1.2 1.9-1.5 2.1-1.4 2.5-3.4zm3-6.2c.6-1.7 5.9-5.3 1.4-5.3-1.7 1.3 3 1.5-1.5 4.5.4 1.4-2.1.6-1.8 2.5.9-.1 1.6-.8 1.9-1.7zm-.7 15.3c.3.2.7-.1.7-.4-.4-.1-1.3 0-.7.4zm-2.5-12.8c-1.4 0-1.8 1.8-2.7 2.5 1-.3 2.3-1.5 2.7-2.5zm-2.6-17.5c-1.8.5-.6 2.6 1.4-.4-.3.3-.8.4-1.4.4zm4.1 6.8c-3.1.2-3-.8-4 2.7.7.1 6.2-2.6 4-2.7zm4-3.9c-1.2.6-3.4 2.2-3 3.6 1.2-.1 4.3-2.7 3-3.6zm4.3 2.6c-.4.3-.8.6-1.2 1 .9-.3 1.6-.9 2.5-1.3-.6-.1-1 0-1.3.3zm2.8-9.9c.1-.2.2-.4.3-.5-1.1.6-2.3 1.4-2.7 2.7 1.1-.5 1.9-1.3 2.4-2.2zm1.4 7.7c-.2.3-.4.6-.5.8 1.4.3 1.7-1 1.7-2.2-.5.4-.9.9-1.2 1.4zm10.3.2c1.9-1.9-.9-.5-1.8-1.2-1.7-.2-1.6 1.8-2.1 2.8 1.3-.2 2.6-1.2 3.9-1.6zm-2.5 11.8c1 0 1.7-1 1.2-1.9-.9 0-1.7 1.2-1.2 1.9zm-1.6 2.3c.9-.1 1.7-.9 1.5-1.8-.7-.6-2.2 1.1-1.5 1.8zm-2.8.9c.1.2.1.4.1.6 5.3-.7-.2-2.9-.1-.6zm-.1-11.1c.2.2.2.4.1.6 3.3-2.4-.5-3.5-1.9-1 .6 0 1.4-.2 1.8.4zm-3.4 14.7c4.4-1.8 2.7-4.4-.4 0h.4zm-2.3-1.6c2-.9.3-1-.4.4.1-.2.2-.3.4-.4zm-.6-8.4c.6-1.7 4.1-.8 2.2-2.7-.3 1.1-3.8 2.4-2.3.6 1.5-.6 3.1-4.1.3-3.5-3.1 2.3-3.5 7.2-6.7 9.8 1.6-.4 0 1.6-.9 1.3 1 1 2.3-1.3 3.1-1.9-.4-2.1 2.5-1.4 2.8-3.1.1-.7 1-1.1 1.5-.5zm-1.3 13.6c.2-.2.4-.4.5-.6-1.5-.7-2.3 1.7-.5.6zm-3.5 9.3c1.1 0 .6.8 0 1.2 4.4-2 2.7-5.3-1.1-1.2h1.1zm1.2-6c.3-.4 0-.4-.2-.6.1.2.2.4.2.6zm-2.7-.6c.1 0 .1-.1 0 0 .8-.6 1.7-.5 2.4-.1-.3-.6 1.5-1.6.4-2.1-.2-.3-1.1.9-.9 0-.3.3-.9.2-.6-.3-1.1.4-3.5 2-1.3 2.5zm-3.4 9c1-1.3 1-2.9 2.5-3.6-.1-.2.3-1.4-.1-1-1.6 1.6-1.5 1.1-3.4 1.6-.4 1.4-2.7 1.1-2.2 3.1.4-.2.7.2.1.5.2 1.4 2.5-1.2 1.9.6.5-.3 1-.7 1.2-1.2zm24.5 3.3c-1.4-1.5-3.9 4.3-4.2 2.1 2.2-2.4-1.1-2.9-2.1 1.7 1.5.7 5.2-2.2 6.3-3.8zm21.9 19.7c.4-1.2-1.3-1-1.6-.1.6 1.9 0 1.8 1.6.1zm27.4 8.9c-1.1 1.1 0 1.4.7.4-.4 0-.6-.1-.7-.4zm7.1-5.2c-1.4-1.5-3.9 4.3-4.2 2.1 2.2-2.4-1.1-2.9-2.1 1.7 1.6.7 5.2-2.2 6.3-3.8zm24.5 8.3c-.4.4-2.8 2.6-2.4 1.1 0-2.1-2.9 3.8.9.7 0-1.3 2-.3 1.5-1.8zm22.5-13.6c-1.1-.1-1.7 1.7-2.8 2 .5.3.8.6 1.4.8.1-1.4 1.3-.9 2.3-1.1.7-1.8-2.7 0-.9-1.7.1 0 0 0 0 0zm1.3-4.2c-.4-.1-.8-.2-1.1-.5-.2 1 1.2.6 1.7.8-.1-.1-.3-.3-.6-.3zm3.7-1c-1.6-1.6-3.5 3.1.3.7 0-.2-.1-.6-.3-.7zm2.8-.1c-1.1-.5-1.3 1.4-2.2 1.8 1.3 1.5 1.6-2.2 2.4-1.5 0-.2-.1-.3-.2-.3zm2.1-1.6c-.9-.4-.8.8-.8 1.3.5-.3.9-.7 1.3-1.1-.1 0-.3-.1-.5-.2zm2.7-1.8c-.5.2-.9.6-1.1 1.1.3-.4 1.1-.7 1.1-1.1.2.1.1 0 0 0zm1.4-1.9c-.8-.1-1.6 1.3-.9 1.7.5-.5.1-1.5 1.1-1.5-.1 0-.1-.1-.2-.2zm.3 12.2c-.3-.2-.6-.3-1-.3-.6 1.1 1.8 1.7 1 .3zm2.5-11c-.7-.8-1-2.1-1.3-3.2-2.9 1.3 1.6 6 1.3 3.2zm.8 2c-.3.9-.3.9-1.3.9-.8 1.9 2.6-.3 1.3-.9zm20.6-11c-1.5 1.4-3.9-.1-3.1 2.8-1.5-1.7-.9-1.2-.8-3.2-3-1.5 3.3-3.6-1.5-4-1.4-.1-.4 3.1-3 2.8-1.7 2.6-1.5-2.1-3.2 0 .2 3.2-3.7 4.3-5.1 7.5 1.2.1 1.7.5 1 1.6 1.2 3.1 3.9-.9 5.9-2.2-1.9-1.4-.4-1.6.8-2.3-2.9-.4 2.2-3.4 2.2-2.2-.9 1.8 2.2 1.3 2 2.9-1.8 3.7 1.8 1.2-.6 4.1 2.2-1.8 5.9-3.2 6.9-6.1-.4 0-1 1.4-1.2.5 1.9-1 2.7-3.6-.3-2.2zm7.4-15.8c-1.8-1.9-2.2 2.4-3.9 2-.7-.6 1.3-1.5.3-2.4-1.8-1.8-2.4 4.6-3.3 5.9 1.9-1.6 5.5-3.7 6.9-5.5zm2.6-1.8c-1.6-.2-2-.8-1.8 1.2.5 0 3.3-.9 1.8-1.2.1 0 .1 0 0 0zm1.6-2c-.8.2-1.5 1.1-1.1 1.9.8-.1 1.4-.9 1.1-1.9.2 0 .2-.1 0 0zm1.5-1.9c-.8-.1-1.6 1-1.1 1.7.9 0 1.4-.9 1.1-1.7zm24.5 34c-.7 0-1.7.8-1.1 1.5.5 0 2.3-1.5 1.1-1.5zm2.4-.4c-1.1 3.6 1.1-.7 2.6.5.2-.2.3-.5.4-.7-.9-.6-1.9-.4-3 .2zm2.7-1c.1.1.2.1.3.3 4.4-8.7-4.5-.9-.3-.3zM2161 44c-.9-1.3-3.6.5-2.7 1.9 1.1 1.3 3.7-.4 2.7-1.9zm.1 12.4c-2.5.1 1 1.3 0 0zm7 18.5c-1.4-.5-4.5 4-2.2 4 .2-1.2 3.4-2.9 2.2-4zm5.4-13.6c.1 0 0 0 0 0zm.4 11.5c-.5.1-.8.6-1 1.1.7-.4 1.3-.8 1.9-1.3-.3 0-.6.1-.9.2zm.9 6.7c-1.2.1-2.2.2-3.2 1.2 5.5-2-1 4.3-1.9 6.1 1.2.2 12.2-6.2 5.6-6.4-.3.3-.6-.3-.5-.9zm12.4-13.4c-3.5 3.3-9 8.2-11.9 12.3 1.4-1.7 3.8-2.3 5.6-3.4-1.7 4 1.5.3 3.2-.4-.1.2-.2.4-.4.6 1.9 1.4 2.9-2 3.3-3.6-.6-.1-1.2.2-1.2.9-.4 2.1-1.9 1.1-.9-.5-1 .9-1.4 0-2.3.6.9-1.5 3.1-1.1 3.5-2.9-1.5-1.6 2.3-1.3 3.2-4.3-.5.1-1.1.1-1.5.2l.2.2c-.7.3-.7.3-.8.3zm.7-4.8c-.6 1.2.7-.1 1.2-.3-.4 0-.8.1-1.2.3zm1.9 57.2c-1.2 3.2 4.5-2 5.6-2.8-3-1.4-2.5 1.5-5.6 2.8zm3.4-61.4c-1 2.7 2.1.9 2.2-.9-.6.5-1.4.8-2.2.9zm3-1.2c.4.5.7-.5 1-.7-.3.2-.6.5-1 .7zm4.2-4.4v-.4c-2.5 2.1.4 3 0 .4zm2.1-3.6v-.2c-.4.7-.8 1.4-1.2 2 .7-.2 1.4-.9 1.2-1.8zm.1 36c-.2.3-.8.4-.8 0-2.3 1.4-6.3 1.5-4.7 5.6-1.3-1.8-5.5-.8-3.7 1.5.9-.4 5.9-.1 3.4 1.4.4.7 3-1.8 2.7-2.3 5.2-7.9-4.8 2.2 3.3-6.3 0 0-.1 0-.2.1zm.6 1.7c.8 0 1.3-.7 1.8-1.2-.4.2-.7-.3-.6-.6-.2.4-1.7 1.5-1.2 1.8zm.2-39.2c.9.3 3.1-3.3 2.3-.9 5.6-5.5-1-6.1-2.3.9zm4.1-10.4c-1.1 2.1-2.7 3.5-4.1 5.3 5.1-2.4 6.5-1.5 6.8-7.3-1.2.2-2.2 1-2.7 2zm6.3 4.5c-2.3-1.7-4.4 3-6.1 4.2.9 2.1 5.7-2.7 6.1-4.2zm.3 11.1c-1.3 1.6-5.4-.1-5.1 3.1 7.6-3.2-2.8 5.4-4.5 6.3 2-.7 6.6.3 6-3.1-.7-3.1 4.7-1.5 5.4-7.6-.8.4-1.3.8-1.8 1.3zm6.2-15.6c1.9-.5 2.1-1.8 2.1-3.4-.9.7-2.7 2.2-2.1 3.4zm-1.1 1.6c.1 0 .1-.1 0 0 1.8-2.4-.8-.4-1.8-1.2-1.5-.2-1.7 1.9-2 3 1.3-.3 2.6-1.3 3.8-1.8zm-2.8 18.7c.7 0 .6-.8.8-1.3-1.2.1-2.4.6-2.8 1.9.5-.2 1.2-.4 2-.6zm-1.4 5.8c.1.6.3 2.1 1.1 1.8 1.3-1.7 1.4-2.3-1.1-1.8zm3.8 40.5c0 .5.1 1 .3 1.4.7-.6 1-2-.3-1.4zm7.4-10.9c.2-.3.2-.6.1-.9-3.4 2.2-5.8 6.6-6.9 10.6 3.3-2.2 4.2-6.4 6.8-9.7zm2 6c-1 .4-3.1.3-1.4 1.6.3-.2 2.8-1.8 1.4-1.6zm3.7-3.6c1.1-.4 2-1.5 2.2-2.6-.9.5-2.3 1.5-2.2 2.6zm-1.7 2.4c.3-.2 1.9-2 1.2-2-1.2.5-3.9 4.2-1.2 2zm59.2-36.2-.8 1.7c.3-.4 2.3-1.7.8-1.7.1 0 0 0 0 0zm18.3-.5c-.5-.4-.9-.1-1.1.3-4.1 2.4 2.7 4.8 1.1-.3zm26.8-16.8c-5.2-1.9-1.6 6.1.2.4-.1-.1-.2-.2-.2-.4zm.1 12.5c-.3-.6-1.2.2-.8.6.5.4 1.5-.1.8-.6zm1.1 12.1c-1.9-.1-.7-5.1-3.7-3.3-5.7 1.3 3.1 5.4.3 4.8-12.7 1.2-2.2 2.4-4.3 6.5 5.2-1.3 2.3-5.2 7.7-8zm25.7-7.2c-.6 1.2.7-.1 1.2-.3-.4 0-.8.1-1.2.3zm5.3-4.2c-1 2.7 2.1.9 2.2-.9-.6.4-1.4.7-2.2.9zm7.2-5.6v-.4c-2.4 1.7.3 3 0 .4zm2.1-3.6v-.2c-.4.7-.8 1.4-1.2 2 .7-.2 1.4-1 1.2-1.8zm.9-1.6c.9.3 3.1-3.3 2.3-.9 5.5-5.3-.9-6.3-2.3.9zM2381 35c-1.1 2.1-2.8 3.5-4.2 5.3 5.2-2.4 6.3-1.5 6.7-7.3-1 .2-2 1-2.5 2zm6.3 4.6c-2.5-1.7-4.3 3-6.2 4.2 1 2.1 5.5-2.7 6.2-4.2zm.2 11.1c-1.3 1.6-5.4-.1-5.1 3.1 7.6-3.2-2.7 5.3-4.5 6.3 2-.7 6.6.3 6-3.1-.7-3.1 4.7-1.5 5.4-7.6-.7.3-1.2.8-1.8 1.3zm6.3-15.6c2.1-.5 1.9-1.8 2.2-3.4-.8.7-2.8 2.3-2.2 3.4zm-1.1 1.5c1.4-2.2-.8-.4-1.9-1.2-1.6-.2-1.6 1.9-1.9 3 1.3-.2 2.5-1.3 3.8-1.8zm-2.9 18.7c.7 0 .6-.8.8-1.3-1.2 0-2.6.5-2.8 1.9.6-.2 1.3-.4 2-.6zm-1.3 5.9c0 .6.4 2.1 1.1 1.8 1.3-1.7 1.4-2.4-1.1-1.8zm2.5 11c-.9-.5-1 .2-.5.8.2-.2.6-.6.5-.8zm3.1 4.9c-.9.1-1.3.8-1.8 1.5 2.2.2 2.2-.1 2.4-2-.1.2-.4.4-.6.5zm4.8 16.6c-2 0 1.1 1.2-1.3 2.5 1.7 0 1.1-1.6 1.5-2.7 0 .2-.1.2-.2.2zm3.7-10.2c0 .7.7-.2 1.2.1 1.2.2 1.1-1.3 1.6-2-.9.3-2 1.3-2.8 1.9zm-3-2.5c4.4-2.3 1.3-3.5-.2.2 0-.1.1-.2.2-.2zm15 2.6c-.7.6-1.5 1.1-2.5.9-1.3 1.1 4.5 1 2.5-.9zm37.3-27.7c-3 2.5-.7-.1-2.4.3-2 3.7 3.1.6 2.9-.8l-.5.5zm3.6-2.6c-.6.6-2 .2-2.1 1.2 1 .3 2.4-.2 2.1-1.2zm8.2-6.6c-1.1-.4-1 1.3-1.9 1.4-1.4 2.5 3.2-.8 1.9-1.4zm13.6-2.7c-3.3-2.6-6.3 4.1-3 1.7 0-1.5 4.3.1 3-1.7zm12.7 1.8c-.2-.3-.6-.4-.9-.3-.7 1.1 1.8 1.8.9.3zm10-10.3c-.2-.4-.8.6-1.1.6.4.1.8-.3 1.2-.1-.1-.1-.1-.3-.1-.5zm.8 2.3c-.1-.1-.1-.2-.1-.3-.1.5-.5 1.1-.3 1.6 0-.5.3-.8.4-1.3zm2-6.6c-1.6 3.4 2.7 3.7 3.1.3-1.1-.8-1.6 1.8-2.1.1 0-.2-.5-.5-1-.4zm5.1-11.7c1.3-2.6 2.2-1.4 2.7-2.5-.7.1-4 1.9-2.7 2.5zm5.2 1.9c-.7-.6-1.3.7-1.4 1.2-.4 1.3-2.2.6-2.7 2.1-.4-2.1-2.7-1.5-1.8.4-1.4 1.4-3.1 2.4-4.1 4.1 2.5 2 4.4-5.8 7.8-3.1 1.3-.9.1.6.8.8 0 1 1.1.7 1-.1-1-.8 1.9-2.3-.9-2 0-.5 3.3-3.1 1.3-3.4zm3.4-2.2c-.1-.1-.2-.1-.3-.1-2 1.2-.4 2 .3.1zm4-4.9c-.3-.7-1.5 0-1 .5.3.2 1.4 0 1-.5zm3.9-2.6c-1.2-1.3-1.8 1.5-2.9 1.7-2.3 1.3 2.7-.1 3-1.5.1.1.1-.1-.1-.2zm2.1-.7c.1-.1.1-.2.2-.3-1-2.3-2.7 1.6-.2.3zm5.8 8.3c-.5-.1 0-.6-.2-.9-.4.5.1 1.6-.9 1.6-.4.9 2.2-.1 1.1-.7zm5.1-4.8c-2.3.2.2 3.9.2.6.2-.3.1-.5-.2-.6zm5.9-.6c-.2 0-.4 0-.7-.1.2.2.2.5.2.8.5 0 1.1-.5.5-.7zm1.7-1.6c-.5-.3-1.3.6-.9 1 .5.1 1.1-.3.9-1zm.8 20.6c-1.8 1.8-2.4.3-3.5 1.2-.8.5-.6 1.3.2.4-1.8 2.3 3.1-.6 3.3-1.6zm5.6-3.8c-4-.2-.5 4.4.4.7-.1-.2-.2-.5-.4-.7zm3.5 27.9c-3.6 1.3 1.5 1.8 1.5-.5-.5.2-1.1.1-1.5.5zm5.8-36.7c-.4.4-2.1-.1-1.7.5.3.7-2 .3-1.1 1.4.7.7-.7 1-.6 1.8-.1 1-1.2.5-1.8.5-.9 3 7.7-4.4 5.2-4.2zm.5 10.5c-.6-.2-.9.6-.9 1 .4.3 1.2-.8.9-1zm3.1 3.5c-.8.2-3 5.1 0 2-1.4-.2 1.2-1.7 0-2zm1.2 18.8c-1.5 1 1 1.8 1.1.4-.2-.2-.8-.1-1.1-.4zm4.6-11c-1.9 1.2-2.7 3.7-4.5 3.7.5 2.4 6.4-4.8 4.5-3.7zm.5 7.3c-2.1 2.2 1 1.4 1.9.1.6-2.7-.8-1.1-1.9-.1zm2.3-9.4c-.7.2-.7 1.2-1.4 1.8.7-.1 2.5-1.2 1.4-1.8zm1.8-.7c1.3-.5.9-1.9-.5-1.1-.7 1.2-1.2 2.5.5 1.1zm-.2 8.5c-1.1-1.1-1.5 1.1-.8 1 .3-.2 1.6-.8.8-1zm1.4 7.4c.2-.3.1-.6-.1-.8-1.9-.2-1.5 2.6.1.8zm5 11.1c-.7.7-2.1 1.3-2.6 2.3l3.4-2.5c-.3.3-.6.3-.8.2zm1.4-4.9c-.9 0-1.2 1.1-.7 1.8.8.2 1.2-1.4.7-1.8zm2 1.9c-2.6.4-1.3 1.5-2.7 2.8 1-.2 4.9-4.4 2.7-2.8zm.7-4.7c-.6 1 2.7-1.3 2.7-2-1 .5-1.4 1.7-2.7 2zm3.6-7.6c-.6.2-1.1.9-1.7 1.3.5.1 3-.9 1.7-1.3zm1.6 2.9c-.5.3-.9.6-.8 1.2.6.2 1.5-1 .8-1.2zm.5 4.3c-5 2.2-2.3 3.6.2-.1-.1 0-.2 0-.2.1zm4.2-4.2c-.4.4-1.2.7-1.3 1.2.2.6 1.2-.8 1.3-1.2zm18 13.6c-1.9 8.5 7.4-1.1 2.5.9-1.2 1.8-.9-1.6-2.5-.9zm5.6-14.7c1.2-.7.7-3 2.7-2.7.4 0 .6-.4.5-.7-1.1.3-4.5 2.4-3.2 3.4zm6.6 2c-1-.7-1.4.9-1.7 1.6-.4 1.6-2.6 1-3.2 2.6-.3-2.1-3.5-2.2-2.4-.1.1 1.9-5.7 4.1-4.6 6.2 5.1-.8 3.1-6.3 9.3-5.3 1-.4-.2 1.2.6 1.2-.1 1.3 1.4.7 1-.1-.8-1.1 2.2-2.6-1.1-2.3.4-1 2.7-2.9 2.1-3.8zm4-2.9c-.6-.5-2.8 2.2-1.1 1.5.1-.7 1-1.1 1.1-1.5zm4.7-6.3c-.4-.9-1.7.2-1.3.7.4.2 1.7-.1 1.3-.7zm4.7-3.5c-1.4-1.2-2 1.3-3 2-.3.6-1.6.4-1.6 1.2.8.9 1.2-1.4 2.1-.8.7.2 2.8-1.7 2.5-2.4zm2.4-.9c.5-.5 0-1-.5-1.1-1.5-.6-1.3 2.6.5 1.1zm7.7 9.9c-.7-.1.2-.8-.3-1.1-.5.8.2 1.9-1.1 2.2-.4 1.3 2.7-.5 1.4-1.1zm6.1-6.2c-2.8.6.5 4.5.2.6.2-.2 0-.5-.2-.6zm7.2-1.2c-.3 0-.5 0-.8-.1 0 1.4 1.8.6.8.1zm1.9-2c-.4-.5-1.9.8-1.3 1.3.6.2 1.8-.5 1.3-1.3zm1.2-.8c.3-.5.2-.9.1-1.3-1.4-.3-1.5 2.8-.1 1.3zm1 26.2c-2.7 2.7-2.7.3-4.3 1.7-.9.7-.8 1.5.2.5.1-.3.4.1.1.1-1.6 2.1 3.8-1.5 4-2.3zm6.7-5.1c-4.9-.1-.6 5.5.5.9-.1-.3-.3-.7-.5-.9zm10.8-11.4c-.4.5-2.6 0-2.2.6.2.2-.1.8-.4.7-2.1-.4-.3 1.6-1 2.2-1.5 3.6-3.4 1-3.1 2.9 2.4-.3 6.6-5.2 6.7-6.4zm1.3 12.9c-.8-.5-1.5 1.9-.6 1.1.4-.2.7-.7.6-1.1zm4 4.2c-1.2.3-2.7 6.6.2 2.4-1.8-.1 1.1-2.3-.2-2.4zm32.7-16.2c-.3.3-1.6 1-.9 0 .1-1.5-1.8 1.2-.8 1.6-.6-1.1 2 .2 1.7-1.6zm25.8-25.9c-1.5 1.4-2.1 2.9-3.3 4.2.8-.6 2.1-.4 2.2.6.3-1.9 2.4-1.8 3.4-2.9.7-1.1-1-3.2-2.3-1.9zm7.3-7.1c-1.1-.7-.8.5-1.2.8-1-.1-1.1.9-1.7 1.4-.4 1.8-1.8.5-2 1.7-.1 1.4-1.3 1.3-.6 2.9 1.5 0 1.8-1.1 2.6-2 1.6-4 4.5-2 2.9-4.8zm1.5 10.9c-.4.2-.7 0-1.1 0-.1 1.9 1.7-.3 1.1 0zm1.2-11.8c-.4 0-.9.7-.9 1.1.5.2 2.1-.8.9-1.1zm5.2-3c-.6.1-1.6-.5-1.8.4 0 .7-1.3.6-1.1 1.4 1.1 1.6.6-1 1.7-.8.4.1 1.9-.7 1.2-1zm57.5 42.2c.8.9 1.9-.6 1.9-1.6-.7.7-1.3 1.2-1.9 1.6zm1.2 3.8c.4.7 1.3 3.6 1.3.7-.4.1-.4-.3-.1-.5 6.2-5.4 2.8-6.2-1.2-.2zm5.1-6.5c.2-6.3-6.5 2.1-2.7-.2 1-1.6 1 1.5 2.7.2zm4.1-8.2c-.7-.3 0-3.3-.9-2.1-1.6 1.8-3.5 1.8-2 5 1.2 2.3 3.5-1.5 2.9-2.9zm7.2 14.1c-2.4-1.2-1.3-.2-2.9.9-1.2 0-1.2 1.2-.5 1.8.8-2.5 1.1-.8 2.4-2.1.1-1 1 .2 1.5-.4-.3-.1-.4-.2-.5-.2zm8.9-7.8c-.5.6-1.9.8-2 1.5.4.7 2.5-.8 2-1.5zm5.3-5.8c-1 1.4-2.8 2-3 3.7 1.2-.4 1.1-1.5 1.8-2.3 1.5.7 2.1-1.9 1.2-1.4zm2.8 1.3c-.9-.1-2.1 1.7-2.1 2.5 1 .3 3-1.8 2.1-2.5zm3.3-7.9c-.8.8-2.4 1.2-2.5 2.5.5-1.2 2.7-1.1 2.5-2.5zm4.5-4c-.6-.4-1.3.9-1.6 1.3 1.5-.1-2.3 1.4-2.3 2 1.5 0 4.9-2.9 5.6-4.2-.6 0-1.2 1.1-1.7.9zm4.6-5.2c-1.3.5-1.6 2.7-3 2.8-.7-.2-1.3.6-1.1 1.2.9-.3 2.6-1.3 2.5.5.2-2 3.7-1.7 3.8-3.5-.7-.6-1.3-1.6-2.2-1zm7.7-6.8c-.3-.7-2.5 1.6-2.9 2.2-.6 1.8-1.9.5-2.1 1.7-2.6 5.5 2.2 1.6 3.3-1 1.2-1.3 3.3-.4 1.7-2.9zm.7 10.4c-1.3-.2-1.5.7-.5.6 0-.4 1.2-.8.5-.6zm2-11.2c-1.9.7-.2 1.3.4.2 0 0-.2-.2-.4-.2zm5.4-2.9c-.6.1-1.6-.5-1.8.4-.2.8-2.2 1.1-.6 1.8.5-1.8 2.6-.9 2.4-2.2zm45.6-7.3c-1.2.1-3.3-1.4-3.6.7.2 1.5-2.7 1.2-2.2 2.6.4.7 2.3 1.9 2.1.3-1.1-2.3 6.4-1.7 3.7-3.6zm12 49.3c1 .2 2-.4 1.9-1.5-.6.4-1.3 1-1.9 1.5zm2.1-29.8c-.4-.8-1 .3-1.5.6.7 1.7.7.1 2 0-.3-.2-.4-.4-.5-.6zm.9 1.5c0-.2 0 .1 0 0 .1 0 0 0 0 0zm2.9 24.4c-.4-.4-1.1.2-.8.6.3.1 1.5-.2.8-.6zm.7 3.2c-2.8.2-6.9 4-4.7 6.4 1-4.1 2.2-2.6 4.7-6.4 0 .1 0 0 0 0zm1.1-34.9c-.3-.2-.6-.2-.8.1-.2 1.5 2.7.8.8-.1zm1.2 23.4c-2 1.4-.4 1-.8 2.6-.5.1 0 .6.2 1.1 0-2.4 1.8-1.8 3.1-2.9-.6-4.3 0-.8-2.5-.8zm13.1-12.8c-1.5-11.1-7.1 5.6-12.5 5.5.3.4.5 1 0 1.3.1.1.2.1.2.2 2.2-2.9 3.7 3.1 6.2 3.6 1.9-2.4 8.8-7.4 6.1-10.6zm6.7 20.1c.9.9.5-.4.9-1-.4.1-1.4.6-.9 1zm2.8-6.1c-.6.5-1.2 1-1.9 1 .5-2-1.4-.4-.3 1 1.1-.1 1.1-1.4 2.2-1.3.5.2.4-.4.5-1.1-.1.1-.3.2-.5.4zm3.7-2.5c-.6.6-1.9.2-2.1 1.1.8.3 2.3.1 2.1-1.1zm8.5-6.3c-1.1-.4-1 1.3-2 1.4-1.3 2.4 3.2-.4 2-1.4zm12.1-2.5c-2.3 2.4 4.5.6.4-.3-.1.1-.2.2-.4.3zm2.4-6.4c-1.3-.9-2.6 2.2-.8 2 .4-.6 1.9-1.3.8-2zm8.4.2c-.8-.3-2 2.1-2.5.6-.3-2-3.4-1.1-2.8.6.6 1 1 3.1 2.2.7.1-1.1 2.4-.5 3.3-1.9h-.2zm3-2.8c-.3.6-1.1.9-1 1.7 1.1 0 2.3-2.7 1-1.7zm1.8-2.9c-.4.7 1 1 1 .1-.4-.2-.7-.2-1-.1zm1.1 3.2c-1-.7-2.7 2.6-.4 1.5.4.2.8-1.6.4-1.5zm5.1.6c-5.3 2.3-5.1 4.6.4.2-.2-.1-.3-.2-.4-.2zm4.7-9.6c1.6-1.4 5.5-.8 6-3.4-2.1-2.3-3.1 2.8-5.2 2-.3-.2-.4-.6 0-.7 2.4-1-.6-3.9-1.5-1.5-.2 3-6.1 9.9.7 3.6zm16.7 13.9c-.5.6-3.6.5-3.2 1.3 2.1-.1 4.2.1 5-2.7-.5.5-1.2.9-1.8 1.4zm1.4-3.6c-.1.2-.2.4-.3.5.8.3.3-1 1.2-1.2-.5.1-.8.3-.9.7zm1.1 6.4c-3.1 1.6-.9 2.9.4.3-.2-.1-.3-.2-.4-.3zm.6 3.6c-2.3 2.1 2.4-.4 3.3-1.1-.7-1.8-2.4.9-3.3 1.1zm7.6-16.8c-1 0 .4-1.3.2-2-2.5 2.7-5.6 4.9-7 7.7 1.6-2.2 2.5-1.9 2.8.8-1.5.3-1.7.7-1.5 2.3 3.7-.8 1.7-3.8 4-5.8-1.3-1.7.6-2.9 2.2-2.7-.2-.3-.4-.3-.7-.3zm7.3.7c.8.2 1.3-.4 1.4-1.1-.6.4-1 .7-1.4 1.1zm.5 14.2c-.4.6-1.8.8-1.4 1.6.8-.9 1.6-1.6 2.6-2.2-.5.1-.9.3-1.2.6zm2.1 18.1h-.4c.3.8 1.1.1.4 0zm.6-.6c-.5 1.3 2-.4 1.8-1.1-.5-.4-1.6.6-1.8 1.1zm0-3.5c.1.8 1.2-.3 1.6-.5-.5.1-1.1.2-1.6.5zm2.8-3.6c-.9.2-.9-1.3-2.2-.2 3.5 2.8 7.1-7.2 4-3-1 1.7-1.7.9-1.8 3.2zm3.6-12c.5-.7 1.6-1.3 1.5-2.3-1.6 1.3-3.8 1.8-4.5 3.8.4.1 1.2.2.6.7-.6 2.5 2.4-1 2.4-2.2zm2.9-6.2c.6-1.7 5.9-5.3 1.4-5.3-1.7 1.3 3 1.5-1.5 4.5.4 1.4-2.1.6-1.8 2.5.9-.1 1.6-.8 1.9-1.7zm-.7 15.3c.3.2.7-.1.7-.4-.3-.1-1.3 0-.7.4zm-2.5-12.8c-1.4 0-1.8 1.8-2.7 2.5 1.1-.1 2.4-1.4 2.7-2.5zm-2.6-17.5c-1.8.5-.6 2.6 1.4-.4-.3.3-.8.4-1.4.4zm4.1 6.8c-3.1.2-3-.8-4 2.7.7.1 6.2-2.6 4-2.7zm4-3.9c-1.2.6-3.4 2.2-3 3.6 1.1.1 4.3-2.9 3-3.6zm4.3 2.6c-.4.3-.8.6-1.2 1 .9-.3 1.6-.9 2.5-1.3-.6-.1-1 0-1.3.3zm2.8-9.9c.1-.2.2-.4.4-.5-1.1.6-2.3 1.4-2.7 2.7 1-.5 1.8-1.3 2.3-2.2zm1.4 7.7c-.2.3-.4.6-.5.8 1.4.3 1.7-1 1.7-2.2-.5.4-.9.9-1.2 1.4zm10.4.2c1.9-1.9-.9-.5-1.8-1.2-1.7-.2-1.6 1.8-2.1 2.8 1.3-.2 2.6-1.2 3.9-1.6zm-2.5 11.8c1 0 1.7-1 1.2-1.9-.9 0-1.7 1.1-1.2 1.9zm-1.7 2.3c.9-.1 1.7-.9 1.5-1.8-.7-.6-2.2 1.1-1.5 1.8zm-2.8.9c.1.2.1.4.1.6 5.6-.7-.1-2.8-.1-.6zm-.1-11.1c.2.2.2.4.1.6 3.3-2.3-.5-3.5-1.8-1 .6 0 1.3-.2 1.7.4zm-3.4 14.7c4.4-1.8 2.7-4.4-.4 0h.4zm-2.3-1.6c2-.9.3-1-.4.4.1-.2.2-.3.4-.4zm-.6-8.4c.6-1.7 4.1-.8 2.2-2.7-.3 1.1-3.8 2.4-2.3.6 1.5-.6 3.2-4.1.3-3.5-3.1 2.3-3.5 7.2-6.7 9.8 1.5-.4-.2 1.6-1 1.3 1 1 2.3-1.3 3.1-1.9-.4-2.1 2.5-1.4 2.8-3.1.1-.8 1.2-1.1 1.6-.5zm-1.3 13.6c.2-.2.4-.4.5-.6-1.6-.8-2.3 1.8-.5.6zm-3.5 9.3c1.1 0 .6.8 0 1.2 4.4-2 2.7-5.3-1.1-1.2h1.1zm1.5-8.7c-.2-.6-1.3.8-1.1-.1-.3.3-.9.2-.6-.3-1.1.4-3.5 2-1.3 2.5.1 0 .1-.1 0 0 .8-.6 1.7-.5 2.4-.1m-5.8 9.1c1-1.3 1-2.9 2.5-3.6-.1-.2.3-1.4-.1-1-1.6 1.7-1.5 1.1-3.5 1.6-.4 1.4-2.7 1.1-2.2 3.1.4-.2.7.2.1.5.2 1.4 2.5-1.2 1.9.6.6-.3 1.1-.7 1.3-1.2zm17.4 8.5c-1.3 1-.2 1.5.6.4-.3.1-.6-.1-.6-.4zm7.2-5.2c-1.4-1.5-3.9 4.4-4.3 2.1 2.3-2.6-1.3-2.5-2.2 1.7 1.7.8 5.1-2.5 6.5-3.8zm21.8 19.7c.4-1.2-1.3-1-1.6-.1.4.4.4 1.1.1 1.5.6.1.9-.9 1.5-1.4zm34.6 3.7c-1.4-1.5-3.9 4.4-4.3 2.1 2.3-2.6-1.3-2.5-2.2 1.7 1.7.8 5.1-2.5 6.5-3.8zm25.9 9.3c.6.1.6-.5.5-1-.2.4-4.1 2.5-3.4 1.1.3-.3 0-.4-.3-.4m5-2.2c-1 .9.9.7.7-.2-.3.1-.5.2-.7.2zm15.2-12.1c-1.1-.1-1.7 1.7-2.8 2 .5.3.8.6 1.4.8.1-1.4 1.3-.9 2.3-1.1.7-1.8-2.7 0-.9-1.7.1 0 0 0 0 0zm1.4-4.2c-.4-.1-.8-.2-1.1-.5-.2 1 1.2.6 1.7.8-.1-.1-.3-.3-.6-.3z" style="fill-rule:evenodd;clip-rule:evenodd;fill:#55a31d"/></svg>